<svg xmlns="http://www.w3.org/2000/svg" baseProfile="tiny" viewBox="0 0 481.7 141.7"><path fill="#080403" d="M223.3 22.9v-14c0-1.3.2-1.7 1.6-1.4l72.2 15c1.8.4 3.7-.1 5.5-.2l23-.9 33.3-1.5 39.8-1.6c1.9-.1 2.3.5 2.3 2.3-.1 6.1 0 12.2 0 18.3 0 1.4.1 1.9 1.8 1.6l42.6-9 9.8-2.1c1.3-.3 2-.1 2.4 1.4l24.1 91.8c.4 1.7.2 2.1-1.6 2.2l-39.6 1.6-25.8 1.1-36.2 1.7c-1.4.1-2.2 0-1.9-1.6.2-1.1-.4-1.3-1.4-1.2l-29.4 3.8-29.7 3.7-13.5 1.8c-1.2.2-1.6-.2-1.7-1.2l-2-13c-.2-1.4-.9-2-2.2-2.2l-29.8-4.2-14.4-2.1c-1.4-.2-1.8.3-1.8 1.7l.9 18.9c.1 1.6-.4 2-2 1.9l-20-1.5-33.8-2.4c-1.8-.1-3.7.1-5.5-.3-.6-.2-1 0-.8.8.1.2.1.4.1.6.8 4 .8 3.9-3.2 4l-35.6 1.5-24.4.9-33.1 1.5c-3.3.2-6.7.1-10 .3-8 .5-16 .7-24 .9-2.4.1-2.4 0-1.8-2.4l3.4-13.1c.4-1.3.1-1.8-1.4-1.9l-31.4-2.6-26.3-2c-1.3-.1-1.7-.5-1.7-1.8l.7-60.9.2-29.9c.3-8.4.3-16.8.3-25.2C1.3.2 1.6-.2 3.5.3l120.4 30.9c1.6.4 1.9 1 1.3 2.4-.2.4-.3.9-.4 1.3-.5 1.1-.2 1.4 1 1.5l28.8 2.3c1.8.1 3.5 0 5.3.4 1.1.2 1.7-.1 1.9-1.3.3-1.7.9-3.4 1.2-5.2.2-1.2.7-1.5 1.9-1.4l11.3 1.4 37.4 4.8c2.8.4 5.6.6 8.4 1.1 1.6.3 1.7-.3 1.6-1.5-.2-4.8-.2-9.4-.3-14.1zM77.8 117.3c-.2 1.2-.2 2.4-.6 3.5-.6 1.8.1 2 1.7 2l53.8-1.2c10-.2 20-.8 30-.4 14.2.6 28.3 1.9 42.5 2.9l37.4 2.9c1.4.1 1.8-.1 1.7-1.6l-.5-18.5c0-.6-.5-1.6.9-1.4l11.2 1.7 14.8 2.2 14.7 2.1 14.6 2.3c1 .2 1.5-.2 1.8-1.2.4-1.4.9-2.7 1.3-4.1l3.4-9.8c.6.2.5.5.6.7l3.2 22c.3 2.3.5 2.4 2.8 2.1 3.8-.6 7.6-1 11.5-1.5l18.3-2.1 18.3-2.3 19.1-2.3c.9-.1 1.2 0 1.1.9-.1 1.4.1 2.8-.1 4.1-.2 1.6.2 2.1 2 2l56.5-3.2 31.1-1.7c1.3-.1 1.8-.3 1.5-1.8l-19.5-80.4c-.4-1.5-1-1.4-2-1.2l-35.8 7.3-23.8 4.8c-1.1.2-1.7.1-1.7-1.4.1-4.2 0-8.4-.3-12.6-.1-1-.2-1.3-1.3-1.2-4 .3-8 .4-12 .6l-17.5.9-27.7 1.5-19.1 1c-3.6.1-7.2.9-10.8.2l-12.1-2.4-44.6-8.9c-3.3-.7-6.6-1.3-10.5-2v21.1c0 .9.2 1.9-1.4 1.7-3.4-.5-6.8-.9-10.1-1.3l-17.9-2.2-17.2-2.1-17.3-2.2c-1.1-.1-1.7 0-2 1.4l-4.4 20c-.7-3.9-1.5-7.4-2-11-.2-1.3-.8-1.3-1.8-1.4-4.7-.2-9.3-.5-13.9-.9l-20-1.5c-5.1-.4-10.2-.5-15.3-1.2-.2-.4-.7-.6-1.1-.7l-12.4-2.8-79.2-18.4c-.7-.2-1.5-.4-1.6.9l-1.2 23.2-1.3 26.8-1.9 38.2c-.1 1.2.3 1.5 1.5 1.6 3.3.2 6.5.5 9.8.8l14.2 1.5c4.9.5 9.8.8 14.6 1.2l20.1 2c1.8.3 3.9.1 5.9.8z"/><path fill="#fcfcfc" d="M110.1 42.2c5.1.7 10.2.8 15.3 1.2l20 1.5 13.9.9c1 .1 1.6.1 1.8 1.4.5 3.5 1.3 7 2 11l4.4-20c.3-1.4.9-1.5 2-1.4l17.3 2.2 17.2 2.1 17.9 2.2 10.1 1.3c1.5.2 1.4-.8 1.4-1.7V21.8l10.5 2 56.7 11.3c3.6.7 7.2 0 10.8-.2 6.4-.2 12.7-.7 19.1-1l27.7-1.5 29.5-1.5c1.1-.1 1.3.3 1.3 1.2.3 4.2.4 8.4.3 12.6 0 1.5.5 1.6 1.7 1.4l23.8-4.8 35.8-7.3c1-.2 1.7-.3 2 1.2l19.5 80.4c.4 1.5-.2 1.7-1.5 1.8l-31.1 1.7-56.5 3.2c-1.7.1-2.1-.4-2-2 .2-1.4 0-2.8.1-4.1 0-.9-.2-1-1.1-.9l-19.1 2.3-18.3 2.3-18.3 2.1c-3.8.4-7.7.9-11.5 1.5-2.3.3-2.5.2-2.8-2.1l-3.2-22c0-.2 0-.5-.6-.7l-3.4 9.8c-.5 1.3-1 2.7-1.3 4.1-.3 1-.8 1.4-1.8 1.2l-14.6-2.3-14.7-2.1-14.8-2.2-11.2-1.7c-1.3-.2-.9.8-.9 1.4l.5 18.5c.1 1.4-.3 1.7-1.7 1.6l-37.4-2.9-42.5-2.9c-10-.4-20 .2-30 .4l-53.8 1.2c-1.6 0-2.3-.2-1.7-2 .4-1.1.4-2.3.6-3.5.1-.3.3-.6.3-.9L92 43.2c.4-1.8 1-2 2.7-1.9 5.4.4 10.4.6 15.4.9zm239.7 50.4l-8.3-14.3-15.4-26.7c-.5-.9-1.1-1.5-2.3-1.4l-15.3 1.1c-.6 0-1.6-.3-1.5.9 0 1.2.9.8 1.6.9 6.2.4 7.2 1.3 8.3 7.4 0 .2.1.4.1.6l4.4 37.2c.7 6.4-.6 8.3-6.1 9.3-.6.1-1.2.3-1 1.1.2.7.7.6 1.3.5 3.3-.4 6.5-.6 9.8-.9 2.5-.2 4.9-.5 7.4-.8.6-.1 1.7.1 1.7-.9s-1-.8-1.7-.9h-.6c-3.5-.2-4.8-1.2-5.9-4.6-1.2-3.7-1.3-7.6-1.8-11.4l-2.6-22.2c-.2-1.7-.4-3.4-.5-5 .7.5 1.1 1.1 1.5 1.7l24.1 40.3c.3.5.4 1.3 1.3 1.2s.9-.8 1.1-1.4l14.2-38.8 3.2-8.6c.5 3.6.6 7 .8 10.5l1.4 27.2c.2 6.1.1 6.1-5.8 8-.5.2-1 .3-.9 1.1.1 1 .7.5 1.2.4l16.8-1.7c.6-.1 1.3 0 1.4-1 .1-.9-.5-1.2-1.1-1.3-1.7-.3-2.6-1.4-2.8-3-.2-1.2-.3-2.3-.4-3.5l-1.5-34.3c-.1-2.2-.2-4.5.2-6.7.3-1.4.9-2.5 2.2-3 1-.4 2.1-.8 3.1-1.1.7-.2 1.6-.2 1.4-1.2-.1-1-1-.6-1.6-.6l-13.6.8c-1.5.1-2 .6-2.5 1.9l-7.2 20.5-8.1 22.7zm-224.3 10.8h23.3c1.1 0 1.6-.3 1.8-1.5.5-4 1.2-7.9 1.8-11.8.1-.6.4-1.3-.1-1.6-.6-.4-1.4-.3-2.1-.1-.8.2-.7 1-1 1.6-1.7 3.9-3.9 7.3-8.5 8.3-6.2 1.2-12.4 1.2-18.6.6-2.1-.2-2.8-1.4-2.7-3.1l.7-19.3c0-.8.3-1.1 1.2-1.1 3.9.2 7.8.1 11.6.5 4.8.4 6.5.7 7.8 6.3.2.9.8 1.5 1.8 1.4 1.3-.1 1-1 .9-1.8l-.9-13.8c-.1-.9 0-1.9-1.3-2-1.4-.1-1.3 1-1.4 1.9-.7 3.4-1.6 4.2-5 4.5-4.5.4-8.9-.1-13.4-.2-.9 0-1.2-.3-1.2-1.3.3-4.5.4-9.1.6-13.6 0-1.5.7-2.3 2.2-2.1 5 .4 10.1.3 15.1 1.2 2.4.4 4.2 1.8 5 4.2.2.6.4 1.1.6 1.7.3 1 1.1.7 1.8.8 1 0 .7-.7.7-1.3l-.8-6.8c-.1-.9-.6-1-1.3-1.1l-10.4-.7-24.4-1.5c-.9-.1-2.5-.8-2.7.6-.3 1.6 1.6 1 2.4 1.2 3 .8 3.8 1.5 3.7 4.6-.1 3.3-.4 6.7-.7 10-.8 9.3-1.1 18.6-2.4 27.9-.4 2.7-1.4 4-4.1 4.6-.9.2-1.9.5-2.9.6-1.1.1-1.8.4-1.7 1.6.1 1.3 1.1.8 1.8.8 7.4-.2 15.1-.2 22.8-.2zm291.7-3.9c-4-.1-4.7-.4-4.9-2.8-.6-6.3-1-12.6-1.5-18.9-.1-.9.2-1.3 1.1-1.4 4.1-.5 8.2-1.2 12.3-1.5 4.8-.3 5.8.6 7.5 5.2.4 1 .9 1.7 2.2 1.3s.9-1.3.8-2.1l-2.2-14.8c-.1-.9 0-2-1.5-1.8-1.3.1-1.3.9-1.4 1.9-.3 4-1.1 5.2-5 6.3-4.2 1.2-8.7 1.4-13 2.1-1 .2-1.2-.3-1.2-1.2l-1.1-13.6c-.2-2.4.3-3 2.7-3.5 3.6-.6 7.2-1.5 10.8-1.8 5.3-.4 7.9-1.5 10.3 4.7.5 1.2 1.4.8 2.2.7.9-.2.8-.9.6-1.6-.5-2.4-1.1-4.9-1.5-7.3-.2-1.4-1-1.5-2.1-1.3L397 54.7c-.7.1-1.8 0-1.6 1.2.2 1 1.2.5 1.8.5 3.3.1 4.1.6 4.3 4 .8 12.1 1.6 24.1 1.7 36.2.1 4.3-.9 5.3-5.1 6.3-1 .2-1.5.5-1.3 1.5.2 1.2 1.1.7 1.7.6l25.1-2.1 18.3-1.6c.8-.1 1.8.2 2-1.3l1.3-13.7c.1-.8-.2-1.2-1.1-1.2-1.6-.1-2.3.7-2.7 2.2-1.3 4.3-3.5 8-8.1 9.5-5.2 1.9-10.8 2.4-16.1 2.7zM201.9 107c1.4.2 2.7-.1 4-.3 6.4-1.1 11-4.5 13.1-10.8 2-6.2.5-11.6-4.1-16.2-3.8-3.8-8.3-6.8-12.6-10-2.2-1.7-4.4-3.3-6.1-5.6-3-4.1-1.4-8.9 3.5-10.1 4.6-1.1 8.5.8 11.8 3.8 2.7 2.4 3.9 5.6 4.7 8.9.3 1.2 1.1 1.2 1.9 1.2 1.1 0 .6-1 .6-1.5-.2-4.4-.5-8.8-.8-13.1 0-.4.1-1-.6-1.1-.6 0-1.4-.4-1.8.4-.9 1.8-2.2 1.4-3.7.8-3.2-1.3-6.3-2.7-9.9-3.1-6.5-.7-13.7 3-15.1 10.2-1 5.3 1.1 9.2 4.9 12.5 4.7 4.1 10 7.4 14.6 11.6 3.8 3.4 5 8.2 3.2 12.5-2.2 5-8.3 7.1-14 4.9-5.2-2-8.4-5.8-10.5-10.8-.6-1.6-1.1-3.2-1.6-4.9-.3-1.2-1.1-1.1-2-1.2-.8 0-1 .4-1 1.2l-.1 17.5c0 .7 0 1.5 1 1.6.8 0 1.5.1 2-.9 1.1-2.1 2.1-2.3 4.3-1.3 4.8 2 9.3 4 14.3 3.8zm49.8-26.2h.2v1.8c-.1 6.9 4 12.6 10.6 14.9 2.8 1 5.7 1.5 8.6 1.8 9.2 1 16.8-2 20-12.3 1.8-5.6 3.1-11.4 4.7-17 1.2-4.2 1.8-8.7 4.2-12.4 1.5-2.2.4-4.1.4-6.2 0-.5-.5-.6-.9-.7l-10-1.8c-.7-.1-1.1.2-1.2.9s0 1.2.7 1.4c.3.1.6.2.9.4 5.1 2.2 5 3.9 4.2 7.8-1.9 9.4-4.2 18.6-6.9 27.8-1.4 4.7-4.3 8.1-9.4 9-2.4.4-4.8.2-7.2-.2-8-1.4-10.9-6.5-10.2-13.1 1.1-9.6 2.5-19.1 3.9-28.7.8-5.4 1.8-6.3 7.3-6.2.9 0 1.9.3 2.1-1.1.1-1.4-1.1-1.3-1.9-1.5l-22.5-4.2c-.5-.1-1.3-.5-1.4.4-.1.7-.5 1.6.7 1.9 1 .3 2 .7 2.9 1.1 2.5 1.1 3.7 2.7 3.5 5.3-.3 3.9-.7 7.8-1.1 11.8-.9 6.5-1.6 12.8-2.2 19.1z"/><path fill="#ed2228" d="M110.1 42.2c-5-.3-10.1-.5-15.1-1-1.7-.2-2.3 0-2.7 1.9l-14.2 73.2-.3.9c-2-.7-4.1-.5-6.2-.7-6.7-.8-13.4-1.4-20.1-2l-14.6-1.2-14.2-1.5-9.8-.8c-1.2-.1-1.6-.4-1.5-1.6l1.9-38.2 1.3-26.8 1.2-23.2c.1-1.4.8-1.1 1.6-.9l79.2 18.4c4.1 1 8.2 1.9 12.4 2.8.5.1.9.3 1.1.7zM60.3 79c2.5 0 4.7-.4 6.9-.8C79 75.9 81.1 61.9 76 55.7c-3.5-4.2-8.2-6.5-13.4-7.7l-28.4-5.9c-.5-.1-.9-.4-1 .4-.1.6-.4 1.2.3 1.5.4.2.8.2 1.1.3 4.8 1.6 6 3.2 5.7 8.2-.3 4.1-.9 8.2-1.4 12.3l-2.2 17.7c-.5 3.9-.7 7.8-1.6 11.7-.7 3.2-1.8 4-5 4.1h-1.2c-.6 0-1.4-.2-1.5.8-.1 1.2.8.7 1.4.8l12.4 1.5 7.6.8c.5 0 1.3.4 1.4-.6.1-.8-.6-.9-1.2-1-.3-.1-.6-.1-1-.2-3.8-1.1-4.6-2.1-4.1-5.9L46.2 79c.1-.4 0-.7.5-.9 1.5-.5 4.5.7 5.4 2.1L65 102.9c.3.5.4 1.2 1.1 1.3l10.5 1.2c.4 0 1 .2 1.1-.5.2-.7-.4-1-.9-1-2.3-.4-3.6-2.1-4.6-3.9l-5.6-9.9c-2-3.7-4.1-7.3-6.3-11.1z"/><path fill="#0d0d0d" d="M349.8 92.6l8.1-22.8 7.2-20.5c.4-1.3 1-1.9 2.5-1.9 4.5-.2 9.1-.5 13.6-.8.6 0 1.5-.4 1.6.6s-.7 1-1.4 1.2c-1.1.3-2.1.7-3.1 1.1-1.4.5-2 1.6-2.2 3-.4 2.2-.3 4.5-.2 6.7l1.5 34.3c.1 1.2.2 2.4.4 3.5.2 1.7 1.1 2.7 2.8 3 .7.1 1.2.3 1.1 1.3s-.8.9-1.4 1l-16.8 1.7c-.4 0-1.1.5-1.2-.4-.1-.7.4-.9.9-1.1 5.9-1.9 6-1.9 5.8-8-.3-9.1-.9-18.1-1.4-27.2-.2-3.5-.3-7-.8-10.5l-3.2 8.6-14.2 38.8c-.2.6-.2 1.3-1.1 1.4s-1-.7-1.3-1.2l-24.1-40.3c-.4-.6-.8-1.2-1.5-1.7.2 1.7.3 3.4.5 5l2.6 22.2c.5 3.8.6 7.7 1.8 11.4 1.1 3.4 2.4 4.4 5.9 4.6h.6c.7 0 1.7-.2 1.7.9 0 1-1 .8-1.7.9l-7.4.8-9.8.9c-.6.1-1.1.2-1.3-.5-.2-.8.4-1 1-1.1 5.5-1 6.9-2.9 6.1-9.3L317 61c0-.2 0-.4-.1-.6-1.1-6.1-2.1-7-8.3-7.4-.7 0-1.5.3-1.6-.9 0-1.2.9-.9 1.5-.9l15.3-1.1c1.2-.1 1.8.4 2.3 1.4l23.7 41.1z"/><path d="M125.5 103.4h-23.1c-.7 0-1.7.5-1.8-.8-.1-1.2.6-1.5 1.7-1.6 1 0 1.9-.3 2.9-.6 2.6-.7 3.7-1.9 4.1-4.6 1.3-9.3 1.6-18.6 2.4-27.9.3-3.3.6-6.7.7-10 .1-3.1-.7-3.8-3.7-4.6-.8-.2-2.6.4-2.4-1.2.2-1.4 1.8-.6 2.7-.6l24.4 1.5 10.4.7c.7 0 1.2.2 1.3 1.1.2 2.3.6 4.6.8 6.8.1.5.3 1.3-.7 1.3-.7 0-1.5.3-1.8-.8-.2-.6-.4-1.1-.6-1.7-.8-2.4-2.5-3.8-5-4.2-5-.9-10.1-.8-15.1-1.2-1.4-.1-2.1.6-2.2 2.1-.1 4.5-.3 9.1-.6 13.6-.1 1 .3 1.3 1.2 1.3 4.5.1 8.9.6 13.4.2 3.4-.3 4.3-1.1 5-4.5.2-.9 0-1.9 1.4-1.9 1.3.1 1.3 1.1 1.3 2l.9 13.8c0 .7.4 1.7-.9 1.8-1 .1-1.6-.5-1.8-1.4-1.3-5.5-3-5.9-7.8-6.3-3.9-.3-7.7-.3-11.6-.5-.9 0-1.1.3-1.2 1.1l-.7 19.3c0 1.7.6 2.9 2.7 3.1 6.2.7 12.4.7 18.6-.6 4.6-.9 6.8-4.4 8.5-8.3.3-.6.2-1.4 1-1.6.7-.2 1.5-.3 2.1.1s.2 1.1.1 1.6l-1.8 11.8c-.2 1.2-.6 1.5-1.8 1.5-7.5.2-15.2.2-23 .2zm291.7-3.9c5.2-.3 10.8-.7 16.2-2.6 4.5-1.5 6.7-5.2 8.1-9.5.5-1.5 1.1-2.3 2.7-2.2.9.1 1.1.4 1.1 1.2l-1.3 13.7c-.1 1.5-1.1 1.2-2 1.3l-18.3 1.6-25.1 2.1c-.6.1-1.5.6-1.7-.6-.1-1 .4-1.3 1.3-1.5 4.3-.9 5.2-1.9 5.1-6.3-.1-12.1-1-24.2-1.7-36.2-.2-3.4-1-3.9-4.3-4-.6 0-1.6.5-1.8-.5-.2-1.2.9-1 1.6-1.2l35.3-6.6c1.1-.2 1.8-.1 2.1 1.3.4 2.5 1 4.9 1.5 7.3.1.6.3 1.4-.6 1.6-.8.1-1.7.5-2.2-.7-2.4-6.1-5-5.1-10.3-4.7-3.6.3-7.2 1.2-10.8 1.8-2.4.4-2.9 1-2.7 3.5l1.1 13.6c.1.9.2 1.4 1.2 1.2 4.3-.7 8.8-.9 13-2.1 3.8-1.1 4.7-2.3 5-6.3.1-1 .1-1.8 1.4-1.9 1.4-.1 1.4 1 1.5 1.8l2.2 14.8c.1.8.5 1.7-.8 2.1-1.3.3-1.8-.3-2.2-1.3-1.7-4.6-2.7-5.5-7.5-5.2-4.1.3-8.2 1-12.3 1.5-.9.1-1.2.5-1.1 1.4l1.5 18.9c.1 2.2.8 2.6 4.8 2.7zM201.9 107c-5 .2-9.5-1.8-14-3.9-2.2-1-3.2-.8-4.3 1.3-.5.9-1.2.9-2 .9-1-.1-1-.8-1-1.6l.1-17.5c0-.7.2-1.2 1-1.2s1.7 0 2 1.2c.4 1.6.9 3.3 1.6 4.9 2 5 5.3 8.8 10.5 10.8 5.6 2.2 11.8.1 14-4.9 1.8-4.2.6-9.1-3.2-12.5-4.6-4.2-9.9-7.5-14.6-11.6-3.8-3.3-5.9-7.2-4.9-12.5 1.4-7.2 8.6-10.9 15.1-10.2 3.5.4 6.7 1.8 9.9 3.1 1.5.6 2.8.9 3.7-.8.4-.8 1.2-.4 1.8-.4.7 0 .5.6.6 1.1l.8 13.1c0 .5.5 1.5-.6 1.5-.8 0-1.6 0-1.9-1.2-.8-3.3-2-6.6-4.7-8.9-3.4-3-7.2-4.9-11.8-3.8-4.9 1.2-6.6 6-3.5 10.1 1.7 2.2 3.9 3.9 6.1 5.6 4.3 3.2 8.8 6.2 12.6 10 4.6 4.6 6.1 10.1 4.1 16.2-2.1 6.2-6.7 9.7-13.1 10.8-1.6.3-2.9.6-4.3.4z" fill="#111212"/><path fill="#0d0d0d" d="M251.7 80.8l1.9-19 1.1-11.8c.2-2.6-1-4.3-3.5-5.3l-2.9-1.1c-1.2-.3-.8-1.2-.7-1.9.1-.9.9-.5 1.4-.4l22.5 4.2c.8.2 2 .1 1.9 1.5s-1.1 1.1-2.1 1.1c-5.4-.1-6.5.8-7.3 6.2L260.1 83c-.7 6.6 2.1 11.7 10.2 13.1 2.4.4 4.8.6 7.2.2 5.1-.9 8-4.3 9.4-9 2.7-9.2 5-18.5 6.9-27.8.8-3.9.9-5.6-4.2-7.8-.3-.1-.6-.3-.9-.4-.7-.3-.8-.7-.7-1.4s.5-1 1.2-.9l10 1.8c.4.1.9.2.9.7 0 2.1 1.1 4-.4 6.2-2.4 3.7-3 8.2-4.2 12.4-1.6 5.7-2.9 11.4-4.7 17-3.2 10.3-10.7 13.3-20 12.3-2.9-.3-5.8-.9-8.6-1.8-6.6-2.3-10.7-8-10.6-14.9v-1.8c.2-.1.1-.1.1-.1z"/><path fill="#fcfcfc" d="M60.3 79l6.3 11 5.6 9.9c1.1 1.8 2.3 3.5 4.6 3.9.5.1 1 .3.9 1-.1.6-.7.5-1.1.5l-10.5-1.2c-.7-.1-.8-.8-1.1-1.3L52.1 80.1c-.8-1.5-3.8-2.6-5.4-2.1-.5.2-.5.5-.5.9l-2.3 15.5c-.5 3.8.3 4.8 4.1 5.9.3.1.6.2 1 .2.6.1 1.3.1 1.2 1-.1 1-.9.6-1.4.6l-7.6-.8-12.4-1.5c-.5-.1-1.5.4-1.4-.8.1-1 .9-.7 1.5-.8h1.2c3.2-.1 4.3-.9 5-4.1.9-3.8 1.1-7.8 1.6-11.7l2.2-17.7c.5-4.1 1.1-8.2 1.4-12.3.3-5.1-.9-6.7-5.7-8.2-.4-.1-.8-.2-1.1-.3-.8-.3-.5-1-.3-1.5.2-.7.6-.4 1-.4l28.4 5.9c5.2 1.2 9.9 3.5 13.4 7.7 5.2 6.2 3 20.1-8.8 22.5-2.2.5-4.4.9-6.9.9zm-5.8-3.4v-.2c1.2 0 2.5.1 3.7 0 5.2-.3 8.9-3.2 10.5-8 1.7-5.2.7-9.8-3-12.9-3.8-3.1-8.4-4.1-13.2-4.4-1.4-.1-2.1.8-2.2 2L47 73.7c-.1.9-.1 1.4 1.1 1.5 2.2-.1 4.3.2 6.4.4z"/><path fill="#ed2228" d="M54.5 75.6l-6.3-.5c-1.2 0-1.3-.6-1.1-1.5L50.4 52c.2-1.2.8-2.1 2.2-2 4.8.4 9.4 1.3 13.2 4.4 3.7 3.1 4.7 7.7 3 12.9-1.6 4.8-5.3 7.7-10.5 8-1.2.1-2.5 0-3.7 0-.1.2-.1.2-.1.3z"/></svg>