<svg id="Layer_1" data-name="Layer 1" xmlns="http://www.w3.org/2000/svg" viewBox="0 0 786.37 157.87"><defs><style>.cls-1{fill:#0d0d0d;}.cls-2{fill:#fdfcfc;}.cls-3{fill:#ed2125;}</style></defs><path class="cls-1" d="M786.37,157.87h-169c.68-2.63,1.33-5.22,2-7.8,1.34-5,2.65-10.11,4.08-15.13.47-1.63.32-2.22-1.58-1.87-17.65,3.23-35.33,6.35-53,9.65-2,.37-2.69,0-3.22-1.94-3.6-13.12-7.32-26.2-11-39.29-.18-.62-.43-1.23-.83-2.35l-4.63,23.17c-.89,4.47-1.83,8.94-2.6,13.43-.31,1.8-.93,2.12-2.76,1.85-22.05-3.2-44.11-6.25-66.16-9.43-1.86-.27-2.05.26-1.81,1.87.82,5.41,1.51,10.84,2.31,16.26.18,1.28,0,1.77-1.5,1.58q-26.46-3.42-52.94-6.75c-15.26-1.92-30.53-3.77-45.79-5.68-7.26-.9-14.51-1.82-21.76-2.81a14.11,14.11,0,0,0-5.42.48q-49,12-98,24.1c-1.77.44-2.37.34-2.43-1.79-.24-10.38-.74-20.75-1.06-31.13-.05-1.77-.53-2.32-2.42-2.33q-34.59-.17-69.18-.57c-2.18,0-2.79.66-3.12,2.62-1.05,6.38-2.38,12.71-3.4,19.1-.31,1.93-.89,2-2.51,1.39-16.79-6.08-33.63-12-50.4-18.18-2-.75-2.64-.37-3.17,1.57-1.43,5.2-3.11,10.33-4.56,15.52-.45,1.61-1,2.3-2.86,2.05-11-1.47-21.94-2.82-32.91-4.21L33,136c-10.56-1.33-21.11-2.69-31.68-4-1.39-.16-1.32-.87-1.25-1.84.6-8.7,1.16-17.4,1.77-26.1C2.55,93.38,3.34,82.7,4.1,72Q5.53,52.13,6.93,32.26,7.8,20,8.61,7.65a23.73,23.73,0,0,1,.65-5.2c23,5.36,46,10.67,68.94,16.13,2.31.55,3,0,3.3-2.16.83-5.14.91-5.07,6.21-5,23.14.47,46.28.88,69.42,1.39,1.87,0,2.57-.35,2.54-2.37,0-3.4.25-6.8.41-10.48,6.11,1.37,12.14,2.71,18.17,4.08q32.33,7.29,64.65,14.57c2.27.51,4.6-.23,7,0,19.65,1.69,39.31,3.14,59,4.72,15.51,1.25,31,2.57,46.51,3.81,1.31.11,2.23.21,2.19,1.84s.85,1.77,2.39,1.47q31.43-6.19,62.87-12.22c1.71-.33,3-.59,2.14-2.87-.48-1.2-.3-2,1.52-2.13,21-1.55,42-3.23,63-4.84,18.49-1.41,37-2.76,55.5-4.15,8.79-.66,17.58-1.35,26.38-2,.93-.07,2.12-.57,1.58,1.34-.39,1.36.86.87,1.45.85q19.35-.6,38.69-1.28c11.56-.4,23.12-.88,34.68-1.3,11.82-.42,23.63-.78,35.44-1.28,1.68-.07,2.15.27,2,2-.43,5.3-.62,10.61-1.12,15.9-.18,2,.48,2.58,2.28,2.76,8,.83,16,1.72,24,2.61q14.37,1.61,28.72,3.25c8,.91,16,1.87,24,2.69,3.49.36,3.42.24,4,3.83q6.33,40.95,12.72,81.88C782,129.53,784.15,143.62,786.37,157.87Z"/><path class="cls-2" d="M554.77,46.59c-1.19,6.57-2.41,13.13-3.56,19.7-1.76,10.07-3.47,20.14-5.22,30.21s-3.59,20.1-5.25,30.18c-.75,4.53-.61,4.73-5,4.27-5.82-.61-11.61-1.51-17.41-2.28l-16.67-2.17c-7-.93-14-1.9-21.07-2.82-5.63-.74-11.26-1.53-16.92-2.1-1.08-.11-2.5-1.29-3.19-.23s-.11,2.56.09,3.87c.26,1.72.36,3.46.63,5.18s-.86,1.07-1.56,1c-6.05-.52-12.1-1.09-18.15-1.64l-47-4.3c-8.2-.76-16.41-1.43-24.59-2.35-4.2-.48-7.88,1.29-11.75,2.15-23,5.11-45.91,10.43-68.86,15.68-9.9,2.26-19.81,4.47-29.69,6.82-1.81.43-2.17,0-2.24-1.77-.59-14.44-1.29-28.88-1.92-43.32a4.53,4.53,0,0,0-.85-2.58c-1.08,4.85-2.17,9.48-3.14,14.14-.34,1.66-.92,2.38-2.85,2.34q-36.2-.83-72.41-1.44c-3.58-.07-7.16-.14-10.74-.08-1.5,0-2.14-.18-2.05-2,.57-10.87,1-21.74,1.47-32.62a16.91,16.91,0,0,0-.17-3.27c-1.09,6.07-2.15,12.14-3.27,18.2-1.6,8.61-3.34,17.19-4.79,25.83-.34,2.07-1,1.92-2.53,1.42-13.11-4.17-26.26-8.21-39.35-12.44-2-.66-2.63-.15-3.14,1.72-2.24,8.15-4.64,16.25-6.88,24.4-.35,1.24-.51,1.63-2.07,1.39-6.92-1.07-13.9-1.83-20.85-2.75s-13.73-1.9-20.6-2.82c-5.56-.75-11.13-1.43-16.7-2.16L23.65,127.2c-4.26-.57-8.51-1.21-12.78-1.65-1.25-.13-1.49-.44-1.38-1.62,1-10.83,1.88-21.67,2.83-32.5q1.37-15.51,2.77-31Q16.77,41.69,18.43,23c.14-1.49.28-3,.31-4.48s.75-1.9,2.2-1.56Q34.47,20,48,23c13.13,2.93,26.27,5.8,39.38,8.82,1.52.35,1.83-.1,2-1.33.28-1.72.69-3.42.9-5.15.16-1.27.7-1.55,2-1.47q33.52,2,67,3.94l1,.06c2.14.18,5,1.28,6.27.08,1.48-1.38.73-4.34.87-6.63q.28-4.84.43-9.71c0-1.06.26-1.41,1.46-1.16q26.31,5.61,52.63,11.1,14.88,3.12,29.77,6.2c.4-3.58.41-3.71,4.18-3.47,8.62.55,17.23,1.27,25.85,1.86,6,.41,11.94.71,17.91,1.11,8.87.6,17.73,1.27,26.59,1.88q8.44.59,16.9,1.1c3,.19,6,.44,9,.46,1.25,0,1.28.71,1.4,1.51q.92,6.62,1.82,13.23,1.41,10.41,2.79,20.83c.48,3.6.93,7.2,1.46,11.33a100.26,100.26,0,0,0,1.24-11.68q1.25-13.51,2.35-27c.11-1.4.36-2,2.05-2.27,22-3.69,44-7.56,66-11.33,1.29-.22,1.83-.7,1.49-1.93-.45-1.62.05-2,1.76-2.13,13-.7,26.07-1.54,39.1-2.31,9.64-.57,19.28-1.06,28.91-1.64,12.54-.74,25.08-1.53,37.62-2.29,6.14-.38,12.29-.74,18.44-1.13,1-.06,1.89-.18,1.6,1.3-.48,2.35-.91,4.7-1.37,7-1.82,1.22-4,1-6,1.21-2.6.31-2.6.24-2,2.88,1.23,5.6,2.72,11.13,4.07,16.71C555.14,44.2,555.69,45.42,554.77,46.59Z"/><path class="cls-3" d="M554.77,46.59q-2.41-10.38-4.84-20.76c-.22-.95-.43-1.91-.66-2.91l9.53-.7c7.73-.37,15.45-.7,23.17-1.11s15.27-.88,22.91-1.31q16.82-.94,33.62-1.87c7.14-.39,14.28-.75,21.42-1.13,2.9-.15,5.81-.26,8.71-.52,1.86-.16,2.72.28,2.52,2.38-.31,3.21-.34,6.46-.54,9.68-.09,1.31.23,1.83,1.72,2,9.16.88,18.3,1.93,27.45,2.87,8.74.89,17.49,1.7,26.23,2.58,9.65,1,19.29,2,28.93,3,1.56.15,1.34,1.39,1.45,2.19.49,3.43.77,6.9,1.16,10.35.76,6.73,1.57,13.46,2.33,20.19.73,6.4,1.43,12.81,2.16,19.22.77,6.73,1.56,13.46,2.33,20.19q1.1,9.75,2.17,19.48c.21,2,.32,4,.61,5.93.2,1.33-.4,1.55-1.52,1.53q-29.7-.54-59.42-1L652,135.87c-2.16,0-4.33-.25-6.49-.17-2,.08-2.1-.76-1.71-2.4,1-4.11,1.84-8.25,2.69-12.39.22-1,.69-1.94-1.42-1.57-15.24,2.69-30.52,5.12-45.77,7.7q-11,1.85-21.88,3.92c-2.05.39-2.3-.82-2.66-2.28q-7.53-31.31-15.13-62.59C558.08,59.58,556.77,53,554.77,46.59Z"/><path class="cls-1" d="M298.78,76.83c1.57-1.79,3.07-3.66,4.73-5.37,5.1-5.24,10.41-10.28,14.92-16.06a33.39,33.39,0,0,0,2.28-3.26c2.12-3.55,1-5.72-3.12-6.41-.94-.16-2.87.85-2.64-1.07.19-1.51,1.93-.56,2.93-.56,6.33,0,12.65.19,19,.37.7,0,1.93-.45,2,.8s-1.19.83-1.91,1a12.77,12.77,0,0,0-7.16,3.68C322.9,57,316.7,64.74,310.13,72.12c-1.08,1.21,0,1.58.54,2.11Q323.27,86.13,335.9,98c1.82,1.71,3.76,3.28,5.56,5a12.08,12.08,0,0,0,7.52,3.44c.68,0,1.66-.2,1.72.92s-1,1-1.59,1.14c-7.24,1.23-14.5,2.39-21.74,3.59-1.39.23-2.76.54-4.13.83-.6.12-1.19.29-1.36-.56s0-1.28.86-1.47,1.92-.53,2.88-.8c3.08-.87,3.74-2.43,2-5.15a21.46,21.46,0,0,0-3.17-3.82c-7.06-6.69-14.19-13.3-21.24-20-.95-.9-1.45-.82-2.4,0A6.08,6.08,0,0,0,298.7,87c.75,6.33.86,12.74,1.78,19.07.83,5.68,2.49,7,8.28,6.79.33,0,.67,0,1,0,.83,0,1.51.11,1.54,1.14s-.62,1-1.32,1.06c-6.68,1.14-13.36,2.31-20,3.47l-10.51,1.82c-.72.13-1.53.5-1.81-.61s.2-1.54,1.19-1.79,2.24-.62,3.34-1c5-1.76,6.4-4.09,6-9.41q-1.89-26.32-3.7-52.67c-.48-7.06-2-8.82-9.06-9.61-.42,0-.83-.08-1.24-.16-.69-.14-1.28-.37-1.24-1.26s.79-.87,1.45-.86l20.46.47q4.37.11,8.74.26c.69,0,1.6-.26,1.7.89s-.79,1-1.51,1.09c-7,.71-8.07,1.8-7.66,8.69.43,7.28,1.17,14.55,1.77,21.82Z"/><path class="cls-1" d="M469.05,41.22c8.23-.5,16.47-1,24.65.43,10.16,1.73,19.28,5.5,26.09,13.66a28.35,28.35,0,0,1,6.29,14.11c1.41,9.17.49,18.06-4.6,26.11-5.67,9-14.14,13.42-24.52,14.5-8.31.87-16.52-.37-24.74-1.39-3.86-.47-7.74-.72-11.61-1.09-.66-.06-1.31-.2-2-.32s-1.14-.35-1-1.12.73-.49,1.18-.53.67,0,1,0c3.79-.15,5.14-1.49,4.87-5.28-.63-9-1.36-18-2.09-27C462,66.12,461.38,59,460.8,51.91c-.47-5.68-2.17-7.51-8-8.1-1.25-.13-1.87-.52-1.86-1.71,0-1.45,1.2-.84,1.85-.84C458.23,41.2,463.64,41.22,469.05,41.22Z"/><path class="cls-1" d="M198.8,50.26c-.43,3.77-.9,7.52-1.27,11.28q-1.4,14.24-2.7,28.48a24.87,24.87,0,0,0,.16,4.22c.23,2.71,2,4,4.44,4.68.64.16,1.32.17,2,.33s1.13.27,1.06,1.1-.77.73-1.28.71c-4.82-.2-9.63-.43-14.45-.66-1.91-.09-3.82-.19-5.72-.34-.49,0-1.28.35-1.36-.58s.47-1.21,1.21-1.3c1.24-.15,2.48-.23,3.71-.41a5.63,5.63,0,0,0,4.9-4.61c1.38-5.25,1.41-10.67,2-16,1-9.73,1.74-19.49,2.82-29.21.68-6.17-1.85-10.38-7.82-12.15-.91-.27-2.22-.33-1.81-1.78s1.51-.54,2.27-.42c4.6.74,9.17,1.66,13.79,2.29A5.47,5.47,0,0,1,205,39c9,15.62,18.18,31.19,27.29,46.78.24.41.5.8,1,1.6,1.59-8.89,3.12-17.33,4.62-25.78a65.3,65.3,0,0,0,1.43-9.82c.11-4.69-1-6.2-5.32-7.77-.78-.28-2-.23-1.65-1.64s1.53-.61,2.23-.49c5.5.88,11,1.87,16.47,2.83.81.14,1.77.08,1.75,1.29,0,1.4-1.13.93-1.85,1-3.94.18-6.1,2.23-7.12,6-2.16,8-3.27,16.19-4.89,24.28-1.66,8.26-3.06,16.56-4.59,24.84-.11.63-.1,1.43-1,1.47s-1.17-.81-1.55-1.42L212,70.32,200.22,51.55C199.92,51.07,199.76,50.46,198.8,50.26Z"/><path class="cls-1" d="M400.9,106.49q-12.6-.46-25.2-.95c-.67,0-1.62.32-1.73-.86s.77-1.4,1.75-1.55c4.81-.75,5.71-1.49,6.14-6.24.48-5.29.62-10.61.85-15.92.35-8.13.65-16.27,1-24.4a25,25,0,0,0,0-3.24c-.38-4.24-.88-4.71-5.2-4.86-.7,0-1.4.12-1.41-.86s.76-.94,1.41-1c4-.59,8-1.21,12.07-1.75,10.36-1.4,20.74-2.73,31.1-4.2,1.52-.21,2.09,0,2.16,1.58.13,3.31.38,6.63.6,9.94.06.91.06,1.65-1.15,1.74-1,.08-1.85.18-2-1.15a7.63,7.63,0,0,0-.5-1.65c-1.55-4.09-3.25-5.37-7.69-5.28-6.25.13-12.39,1.39-18.59,2.06-1.58.17-2,1.36-2,2.69-.12,6-.19,12-.3,17.94,0,.87.06,1.42,1.18,1.33,5.39-.43,10.79-.73,16.17-1.22,3.3-.31,5.2-2.32,5.88-5.53.21-1,.41-2,.66-2.91s1.22-1,2-1,1,.69,1.05,1.37q.34,10.08.68,20.17c0,.83-.1,1.51-1.16,1.49-.89,0-1.93.25-2-1.15a1.05,1.05,0,0,0-.06-.24c-2.45-7.31-2.89-7.68-10.65-7.55-4.08.07-8.14.47-12.22.62-1.39.05-1.8.53-1.81,1.92-.08,7.15-.28,14.29-.42,21.43-.05,3,.64,4,3.57,4.3a85.93,85.93,0,0,0,18.42,0c7.15-.74,11.3-5,14-11.25.56-1.31,1.19-2.3,2.89-2.12,1.15.12,1.67.36,1.37,1.66q-1.83,8-3.51,16c-.32,1.58-1.28,1.61-2.54,1.56-8.23-.36-16.47-.68-24.7-1Z"/><path class="cls-1" d="M36.14,111c3.93,0,5.26-.93,6-5.46C44.06,93.77,45.81,82,47.59,70.14c.74-4.92,1.45-9.85,2-14.8.67-5.61-.91-7.89-6.32-9.57-.4-.12-.81-.18-1.2-.29a1.21,1.21,0,0,1-.93-1.71c.26-1,1-.73,1.61-.6,3.27.65,6.52,1.32,9.78,2q9.41,1.94,18.8,3.9c.78.16,1.83,0,1.65,1.31s-1.2,1-2.11.91a20.71,20.71,0,0,0-2.49-.07c-4.21.05-5.68,1.12-6.81,5.09-1.49,5.2-2,10.59-3,15.9-2,11.53-3.92,23.08-5.89,34.62-.67,3.9-.23,4.75,3.6,5.54a145.56,145.56,0,0,0,17,2.14c6.49.53,11.35-2.34,15.4-7.05.54-.63,1.06-1.28,1.61-1.9a1.67,1.67,0,0,1,2.27-.19c.9.56,0,1.18-.24,1.67-2.17,3.91-4.41,7.78-6.57,11.7a2.1,2.1,0,0,1-2.51,1.33c-6.45-1-12.92-1.81-19.37-2.74-7.44-1.07-14.86-2.2-22.3-3.29-2.45-.36-4.91-.66-7.36-1-.82-.12-2,0-1.94-1.23s1.26-.7,2-.77C34.73,111,35.06,111,36.14,111Z"/><path class="cls-1" d="M114.68,38.28l21,2c.63.06,1.4-.06,1.31,1-.08.87-.56,1.08-1.35,1.06-7-.17-7.42,1.59-8.5,7.2-2.41,12.47-4.64,25-6.86,37.47-.94,5.27-.17,6.43,4.93,8.37.84.32,2,.39,1.42,1.73-.51,1.19-1.43.38-2.12.2q-9.85-2.58-19.69-5.25c-.68-.19-1.86,0-1.73-1.27.16-1.43,1.24-.73,1.94-.68,4.91.34,5.66,0,6.59-4.9,2.48-13,4.83-25.94,7.16-38.92.66-3.74-.41-5.11-4.15-6-.79-.19-2.13.25-2-1.21S114.1,38.52,114.68,38.28Z"/><path class="cls-2" d="M731.86,92.64c0-7.56.13-15-.05-22.32-.11-4.14-.07-8.29-.51-12.43-.48-4.38-2.61-6.81-6.91-7.49-.83-.13-2.11,0-1.85-1.41s1.36-.63,2.06-.57c5.89.51,11.77,1.07,17.65,1.64.86.09,2.1-.15,2.09,1.17s-1.24.8-2,.88c-4.71.53-5.58,1.24-6,5.91-.64,6.47.23,12.93.42,19.4.37,12.45,1,24.9,1.42,37.35,0,.67.48,1.62-.63,1.87a2.16,2.16,0,0,1-2.36-1c-2.65-3.62-5.35-7.21-8-10.8q-16.89-22.56-33.8-45.1a4.64,4.64,0,0,0-2.13-2.07c-.56,4.93-1.13,9.74-1.64,14.56q-1.44,13.52-2.81,27a12.37,12.37,0,0,0,0,2.72c.8,6.55,1.57,7.39,8.1,8.69,1,.21,1.69.51,1.62,1.73s-.92,1.31-1.91,1.28c-8.48-.31-17-.58-25.45-.91-.79,0-2,.35-1.92-1.21a1.77,1.77,0,0,1,1.91-1.85,12.6,12.6,0,0,0,1.74-.1c6.63-1.05,8.89-3.24,9.79-10,2.06-15.39,4-30.8,6-46.21.32-2.54-2-5.7-4.88-6.65a23.68,23.68,0,0,0-2.92-.63.92.92,0,0,1-.84-1.24c.11-.61.52-.77,1.09-.72l15.67,1.46c1,.09,1.32.92,1.81,1.56L730,90.42C730.57,91.18,731.23,91.89,731.86,92.64Z"/><path class="cls-2" d="M633,104.58c.83.5,2.83-.92,2.89.75,0,1.34-2,1.06-3.24,1.24-7.84,1.17-15.68,2.38-23.52,3.56-.52.08-1.26.9-1.5-.36-.22-1.1.51-1.15,1.28-1.35,1.44-.38,2.85-.85,4.25-1.36a4.27,4.27,0,0,0,3-4.33c.15-5.18-.78-10.25-1.27-15.36-1-10.32-2.15-20.62-3.28-30.92a64.92,64.92,0,0,0-1.15-7.37,6.17,6.17,0,0,0-5.38-5.15,35.26,35.26,0,0,0-5.23-.27c-1,0-1.22-.57-1.32-1.42-.12-1,.53-1,1.23-1.09l31.36-2.42c.74-.06,1.54-.25,1.52,1,0,.91-.33,1.41-1.27,1.46-.41,0-.83,0-1.24.08-5.44.78-7.88,3.21-7.51,8.36q1.72,24.74,3.85,49.44C627,104,627.83,104.55,633,104.58Z"/><path class="cls-2" d="M485,106.55a31.43,31.43,0,0,1-7.44-.52,3.74,3.74,0,0,1-3.33-3.94q-1.11-24.25-2.37-48.52c-.4-7.66.15-8.32,7.82-8.17,11.17.21,20.95,3.58,27.89,12.85C513,65.52,513.87,73.9,513,82.63c-.56,5.81-2.17,11.26-6,15.76-4.68,5.51-11.1,7.5-18,8.15C487.66,106.66,486.32,106.55,485,106.55Z"/></svg>