<?xml version="1.0" standalone="no"?>
<!DOCTYPE svg PUBLIC "-//W3C//DTD SVG 20010904//EN"
 "http://www.w3.org/TR/2001/REC-SVG-20010904/DTD/svg10.dtd">
<svg version="1.0" xmlns="http://www.w3.org/2000/svg"
 width="700.000000pt" height="700.000000pt" viewBox="0 0 700.000000 700.000000"
 preserveAspectRatio="xMidYMid meet">
<metadata>
Created by potrace 1.14, written by Peter Selinger 2001-2017
</metadata>
<g transform="translate(0.000000,700.000000) scale(0.100000,-0.100000)"
fill="#000000" stroke="none">
<path d="M3518 6622 c-211 -432 -559 -1138 -568 -1152 -6 -8 -14 -24 -19 -35
-11 -25 -382 -779 -384 -781 -1 -1 -18 -4 -37 -7 -85 -13 -187 -28 -215 -32
-16 -2 -46 -6 -65 -9 -113 -17 -190 -28 -225 -32 -22 -3 -62 -9 -90 -14 -27
-5 -72 -12 -100 -15 -27 -3 -61 -8 -75 -10 -14 -2 -76 -11 -138 -20 -62 -9
-122 -18 -134 -20 -12 -3 -42 -7 -67 -10 -25 -3 -55 -7 -66 -9 -30 -5 -114
-18 -210 -31 -18 -2 -79 -11 -145 -20 -14 -2 -54 -9 -90 -14 -36 -6 -87 -13
-115 -17 -27 -3 -57 -8 -67 -9 -16 -4 -73 -12 -138 -21 -38 -5 -39 -5 -267
-37 l-153 -22 29 -30 c26 -27 549 -539 751 -735 47 -45 224 -218 394 -384 169
-165 364 -355 433 -421 l124 -119 -6 -50 c-4 -27 -9 -58 -11 -70 -9 -49 -24
-134 -29 -171 -4 -22 -8 -47 -10 -55 -3 -8 -7 -33 -10 -55 -4 -22 -8 -51 -11
-65 -2 -14 -13 -77 -24 -140 -11 -63 -22 -126 -24 -140 -3 -14 -12 -70 -22
-125 -9 -55 -18 -109 -20 -120 -2 -11 -6 -33 -9 -50 -3 -16 -21 -120 -40 -230
-18 -110 -36 -213 -38 -230 -3 -16 -10 -59 -16 -95 -16 -84 -39 -224 -56 -328
-2 -12 -6 -30 -9 -40 -2 -9 -7 -37 -10 -62 -4 -25 -9 -58 -12 -75 -31 -163
-49 -285 -41 -285 4 0 45 20 90 44 45 24 136 71 202 106 66 35 156 82 200 105
135 71 274 144 405 212 69 36 152 80 185 98 33 18 110 58 170 90 61 32 155 81
210 110 55 29 150 78 210 110 61 31 142 74 180 95 39 21 119 63 178 94 l108
57 82 -44 c45 -24 132 -70 192 -102 61 -32 146 -77 190 -100 112 -59 260 -137
395 -208 63 -33 156 -81 205 -107 50 -26 135 -71 190 -100 55 -29 132 -69 170
-90 39 -21 129 -68 200 -105 72 -37 162 -84 200 -105 186 -99 303 -160 309
-160 6 0 0 64 -10 115 -3 11 -7 36 -10 55 -2 19 -7 46 -10 60 -6 34 -9 49 -43
255 -17 99 -33 191 -36 205 -2 13 -7 42 -10 65 -3 22 -8 47 -10 55 -3 13 -10
50 -20 115 -1 11 -10 63 -19 115 -10 52 -19 109 -22 125 -2 17 -13 80 -24 140
-11 61 -22 124 -24 140 -7 38 -66 382 -71 415 -3 14 -10 52 -15 85 -5 33 -12
74 -15 90 -3 17 -8 46 -11 65 -3 19 -8 46 -10 60 -8 51 -14 86 -19 110 -3 14
-8 45 -12 69 l-6 43 160 157 c89 86 293 285 454 442 162 158 348 339 414 403
66 65 231 226 368 358 l247 241 0 53 0 53 -57 7 c-32 3 -67 8 -78 10 -10 2
-37 6 -60 9 -22 3 -69 11 -105 16 -35 6 -85 12 -110 15 -25 2 -52 6 -60 9 -8
2 -37 7 -65 10 -27 3 -75 10 -105 15 -30 5 -80 12 -110 15 -30 4 -62 8 -70 10
-8 3 -46 9 -85 14 -38 6 -88 13 -110 16 -22 3 -71 10 -110 16 -97 15 -133 20
-310 44 -39 6 -112 16 -235 35 -69 11 -147 22 -175 25 -27 3 -59 8 -71 10 -11
3 -40 7 -65 10 -24 3 -55 7 -69 10 -14 3 -63 10 -110 16 -47 6 -92 13 -100 14
-8 2 -23 4 -33 4 -10 1 -21 11 -26 24 -5 12 -134 274 -286 582 -152 308 -330
668 -395 800 -204 416 -371 750 -378 757 -4 4 -51 -81 -104 -190z"/>
</g>
</svg>
