<svg id="Layer_1" data-name="Layer 1" xmlns="http://www.w3.org/2000/svg" viewBox="0 0 547.79 474.95"><defs><style>.cls-1{fill:#fff;}.cls-2{fill:red;}</style></defs><polyline points="259.25 42.49 70 63.15 85.68 154.96 0 211.46 91.75 397.81 96.3 407.58 124.1 413.02 133.21 399.98 164.05 379.33 195.9 384.77 190.84 400.52 285.89 462.46 289.94 474.95 547.79 152.79 369.32 56.63 265.53 0"/><path class="cls-1" d="M285.39,51.74S261.28,170.84,242,265.31L259.1,80.53,106.91,99,134.2,298.22l-29.31-119.9L39.67,222.87,114,382.59l35.39-22.27L147.1,351l74.84,12.44c-1.92,9.24-3.1,14.78-3.29,15.39L294,431,495.21,158.22Z"/><polygon class="cls-2" points="285.39 51.74 218.65 378.79 293.99 430.95 495.21 158.22 285.39 51.74"/><polyline class="cls-2" points="39.67 222.87 104.89 178.32 149.38 360.32 113.99 382.6"/><path d="M150.46,124.71l-30.07,3.08,4.68,37.48,28.53-2.59Z"/><path d="M133.27,230.91l4.2,33.58,24.34-2.24L159,228.35Z"/><path d="M209,169.35,206.44,212l31.37-2.57,3.37-43.5Z"/><path d="M195.34,159,196.56,120l-25.27,2.58,1.5,38.36Z"/><path d="M242.07,154.38l2.09-26.9.55-13.1-32.6,3.34-2.37,39.5Z"/><path d="M174.88,214.79l18.77-1.54L195,171.33l-21.68,2.28Z"/><path d="M154.66,175.56l-27.94,2.89,5,39.92,26.3-2.19Z"/><path d="M175.35,226.73l1.32,34.15,15.55-1.44,1.07-34.5Z"/><path d="M203.66,258.31l30.57-2.83L237,220.34l-31.21,3.13Z"/><polygon points="287.15 114.38 278.28 157.22 416.33 231.73 443.49 193.06 287.15 114.38"/><polygon points="273.9 175.56 264.79 211.98 379.37 277.6 401.54 248.21 273.9 175.56"/><path d="M261.1,237.48l-8.87,35.35s90.36,53,92.58,50,21.62-29.19,21.62-29.19Z"/><polygon points="241.18 388.4 271.08 409.25 296.02 363.38 252.23 337.77 241.18 388.4"/></svg>