<?xml version="1.0" encoding="utf-8"?>
<!-- Generator: Adobe Illustrator 24.0.1, SVG Export Plug-In . SVG Version: 6.00 Build 0)  -->
<svg version="1.2" baseProfile="tiny" id="Layer_1" xmlns="http://www.w3.org/2000/svg" xmlns:xlink="http://www.w3.org/1999/xlink"
	 x="0px" y="0px" viewBox="0 0 478.49 120.77" xml:space="preserve">
<g>
	<path fill="#0A0504" d="M262.95-0.03c0.48,0,0.96,0,1.44,0c6.59,1.31,12.97,3.43,19.43,5.23c20.26,5.64,40.48,11.44,60.76,17.03
		c4.04,1.11,8.04,2.47,12.23,2.97c10.64,1.29,21.2,3.11,31.84,4.42c2.64,0.32,2.72,1.05,3.35-2.41c1.04-5.7,2.28-11.37,3.3-17.08
		c0.35-1.97,1.01-2.45,3-1.93c3.44,0.9,6.86,1.91,10.28,2.87c15.83,4.42,31.65,8.87,47.48,13.3c6.78,1.9,13.57,3.75,20.33,5.68
		c0.75,0.21,1.59,0.35,1.93,1.24c-0.38,0.97-0.32,1.9,0.27,2.79c0.07,2.47-0.15,4.95,0.12,7.42c0,0.16,0,0.32,0,0.48
		c-0.16,0.24-0.23,0.51-0.23,0.79c-0.01,0.28-0.01,0.56-0.01,0.84c0.08,8.71-0.07,17.43-0.18,26.14c-0.05,4.23,0.07,8.48-0.19,12.7
		c-0.24,3.84,0.04,7.68-0.24,11.5c-0.37,5.11,0.07,10.23-0.43,15.33c-0.16,1.59-0.6,2.11-2.23,2.19
		c-5.58,0.29-11.17,0.49-16.75,0.78c-5.46,0.28-10.93,0.53-16.39,0.84c-3.87,0.22-7.74,0.41-11.61,0.58
		c-3.79,0.17-7.58,0.39-11.36,0.61c-3.59,0.2-7.18,0.37-10.77,0.56c-4.23,0.23-8.45,0.43-12.68,0.66
		c-3.59,0.19-7.18,0.38-10.77,0.56c-2.15,0.11-4.31,0.2-6.46,0.4c-0.6,0.06-1.2,0.11-1.8,0.04c-1.19-0.12-1.61-0.6-1.61-1.79
		c0-1.27-0.01-1.3-1.29-1.1c-8.22,1.25-16.44,2.5-24.67,3.71c-7.28,1.07-14.56,2.13-21.84,3.19c-1.57,0.23-3.17,0.19-4.75,0.43
		c-0.48,0-0.96,0-1.44,0c-0.75-0.45-0.57-1.16-0.48-1.83c0.65-4.92,1.19-9.84,1.79-14.77c0.22-1.81,0.14-1.86-1.71-1.99
		c-4.11-0.3-8.22-0.31-12.33-0.46c-0.68-0.02-1.35-0.09-2.03-0.16c-1.63-0.18-1.97,0.16-1.77,1.75c0.47,3.69,0.96,7.38,1.44,11.06
		c0.38,2.94,0.05,3.39-2.89,3.15c-5.77-0.47-11.56-0.73-17.34-1.11c-5.62-0.37-11.24-0.69-16.86-1.06
		c-5.86-0.38-11.72-0.73-17.58-1.09c-4.39-0.27-8.77-0.52-13.16-0.82c-4.46-0.3-8.93-0.68-13.39-0.83
		c-4.26-0.14-8.53-0.65-12.81-0.16c-2.1,0.24-4.23,0.18-6.34,0.23c-3.44,0.08-6.86,0.32-10.3,0.33c-6.43,0.02-12.86,0.43-19.29,0.53
		c-2.83,0.04-5.68,0.04-8.51,0.18c-5.98,0.3-11.98,0.23-17.96,0.67c-1.79,0.13-3.59,0.01-5.39,0.19c-1.27,0.13-2-0.57-2.22-1.84
		c-0.04-0.24-0.08-0.48-0.09-0.71c-0.08-1.39-0.79-2.12-2.16-2.46c-11.61-2.87-23.2-5.79-34.81-8.68c-0.42-0.1-0.85-0.28-1.32-0.01
		c-0.29,0.78,0.01,1.56,0.16,2.32c0.7,3.82,1.37,7.64,2.05,11.46c0.53,2.98,0.2,3.37-2.74,3.13c-7.33-0.6-14.66-1.2-21.98-1.85
		c-7.64-0.68-15.28-1.41-22.93-2.03c-8.84-0.71-17.68-1.45-26.51-2.29c-6.09-0.58-12.18-1.07-18.28-1.54
		c-3.82-0.3-7.63-0.78-11.47-0.97c-0.79-0.04-1.5-0.28-1.87-1.07c0-0.88,0-1.76,0-2.64c0.18-0.24,0.18-0.48,0-0.72
		c0-0.24,0-0.48,0-0.72c0.54-1.28,0.48-2.66,0.69-3.99c1.7-10.62,3.45-21.24,5.17-31.86c1.97-12.16,3.95-24.32,5.84-36.49
		c0.06-0.4,0.13-0.79,0.2-1.18c0.33-1.72,0.75-2.17,2.46-2.46c3.16-0.52,6.35-0.79,9.52-1.19c13.13-1.66,26.28-3.12,39.42-4.72
		c4.13-0.5,8.25-1.04,12.38-1.53c0.88-0.1,1.4-0.42,1.49-1.36c0.1-1,0.75-1.43,1.71-1.51c1.51-0.13,3.02-0.31,4.55-0.26
		c4.76,0.13,9.51-0.21,14.26-0.29c5.71-0.1,11.42-0.29,17.13-0.46c5.95-0.17,11.9-0.31,17.85-0.48c5.59-0.17,11.18-0.31,16.77-0.48
		c5.31-0.16,10.62-0.3,15.93-0.5c2.36-0.09,4.71-0.19,7.07-0.18c1.83,0.01,2.09,0.31,1.97,2.11c-0.09,1.38,0.11,1.55,1.63,1.22
		c7.04-1.51,14.08-3.02,21.12-4.53c8.29-1.77,16.58-3.57,24.86-5.36c0.2-0.04,0.39-0.08,0.59-0.1c1.73-0.2,2.36,0.25,2.6,1.98
		c0.4,2.89,0.8,5.78,1.21,8.67c0.24,1.66,0.46,3.33,0.72,4.99c0.22,1.47,0.44,1.62,1.9,1.29c7.84-1.78,15.67-3.57,23.51-5.34
		c2.22-0.5,4.45-0.97,6.67-1.49c1.79-0.42,2.12-0.87,2.2-2.73c0.2-4.83,0.55-9.65,0.95-14.47C262.36,0.88,262.34,0.29,262.95-0.03z"
		/>
	<path fill="#FFFFFF" d="M478.71,41.49c-0.08-0.35-0.22-0.7-0.23-1.05c-0.03-2.21-0.04-4.42-0.05-6.63
		c-0.16-0.22-0.18-0.45-0.04-0.69c0.1-0.1,0.21-0.11,0.32-0.03C478.71,35.89,478.71,38.69,478.71,41.49z"/>
	<path fill="#0A0504" d="M478.71,33.09c-0.07,0.01-0.14,0.01-0.21,0.01c-0.69-0.33-0.69-0.66,0-0.98c0.07,0,0.14,0,0.21,0.01
		C478.71,32.45,478.71,32.77,478.71,33.09z"/>
	<path fill="#FFFFFF" d="M-0.09,104.85c0,0.24,0,0.48,0,0.72C-0.09,105.33-0.09,105.09-0.09,104.85z"/>
	<path fill="#FDFDFC" d="M82.23,46.81c0.08-0.4,0.23-0.8,0.23-1.21c0.01-6.6,0.01-13.2,0.01-19.8c0-1.48,0.11-1.58,1.55-1.6
		c5.18-0.07,10.36-0.21,15.54-0.23c11.84-0.03,23.68,0.02,35.52-0.02c9.06-0.03,18.12-0.13,27.18-0.25
		c1.85-0.02,2.12-0.02,1.57,2.23c-0.35,1.43-0.58,2.88-0.93,4.63c1.52-0.27,2.77-0.46,4-0.7c3.8-0.76,7.6-1.54,11.39-2.3
		c4.25-0.86,8.5-1.73,12.76-2.58c3.8-0.76,7.62-1.47,11.42-2.22c3.88-0.77,7.75-1.57,11.62-2.34c0.71-0.14,1.24-0.18,1.37,0.88
		c0.48,3.95,1.08,7.88,1.65,11.81c0.05,0.38,0.21,0.74,0.34,1.19c2.92-0.6,5.83-1.2,8.74-1.8c4.1-0.85,8.19-1.7,12.29-2.54
		c4.02-0.82,8.06-1.61,12.08-2.43c3.41-0.7,6.82-1.43,10.24-2.13c3.65-0.74,7.3-1.45,10.95-2.17c1.36-0.27,1.93-0.94,2-2.37
		c0.07-1.5,0.14-3,0.25-4.5c0.02-0.33,0.18-0.66,0.29-1c13.86,3.43,27.68,6.85,41.49,10.29c6.78,1.69,13.56,3.4,20.33,5.14
		c0.71,0.18,0.95,0.05,1.01-0.64c0.05-0.54,0.21-1.08,0.22-1.62c0.05-1.5,0.09-1.63,1.56-1.44c2.67,0.34,5.32,0.8,7.98,1.15
		c2.17,0.29,4.36,0.48,6.53,0.76c2.21,0.28,4.41,0.61,6.61,0.9c2.13,0.28,4.27,0.5,6.41,0.78c2.09,0.27,4.17,0.59,6.26,0.87
		c2.09,0.28,4.19,0.52,6.28,0.81c2.74,0.38,5.48,0.8,8.22,1.17c2.05,0.28,4.12,0.48,6.17,0.75c2.82,0.37,5.64,0.8,8.46,1.16
		c0.82,0.1,1.68,0.34,1.85-1.07c0.33-2.66,0.89-5.28,1.34-7.93c0.26-1.53,0.43-3.08,0.75-4.61c0.14-0.65,0.51-1.12,1.42-0.89
		c7.15,1.82,14.31,3.58,21.47,5.36c10.34,2.57,20.68,5.17,31.04,7.7c3.04,0.74,6.13,1.3,9.2,1.96c1.54,0.33,2.47,1.87,2.1,3.45
		c-0.06,0.26-0.2,0.52-0.21,0.78c-0.09,2.66-0.16,5.32-0.25,7.98c-0.15,4.6-0.32,9.2-0.48,13.8c-0.07,1.98-0.17,3.96-0.24,5.94
		c-0.17,4.8-0.33,9.6-0.48,14.4c-0.09,2.94-0.13,5.88-0.25,8.82c-0.12,2.88-0.29,5.76-0.5,8.64c-0.02,0.26-0.44,0.51-0.71,0.71
		c-0.1,0.08-0.31,0.01-0.47,0.01c-10.98,0.08-21.96,0.15-32.94,0.24c-7.22,0.06-14.44,0.05-21.66,0.29
		c-3.23,0.11-6.44,0.75-9.66,1.14c-2.1,0.25-4.2,0.47-6.3,0.74c-2.94,0.38-5.88,0.81-8.82,1.18c-2.18,0.27-4.36,0.47-6.54,0.74
		c-2.29,0.28-4.56,0.62-6.85,0.91c-2.06,0.27-4.12,0.5-6.17,0.76c-2.36,0.31-4.72,0.65-7.08,0.94c-2.18,0.27-4.36,0.47-6.54,0.74
		c-2.29,0.28-4.56,0.62-6.85,0.91c-2.14,0.27-4.28,0.49-6.41,0.77c-2.28,0.29-4.56,0.64-6.84,0.94c-1.31,0.18-2.63,0.41-3.95,0.43
		c-0.37,0.01-1.07-0.65-1.08-1.01c-0.04-1.58,0.08-3.16,0.21-4.74c0.09-1.13,0.34-2.24,0.45-3.36c0.19-1.88,0.21-3.78,0.54-5.63
		c0.18-1.03-0.14-1.42-1-1.63c-0.23-0.06-0.46-0.11-0.69-0.12c-2.74-0.09-5.48-0.14-8.22-0.25c-3.2-0.13-6.4-0.3-9.6-0.48
		c-2.6-0.14-5.2-0.33-7.8-0.47c-3.28-0.18-6.56-0.35-9.84-0.47c-1.48-0.06-1.61,0.28-1.35,1.8c0.34,2.04,0.54,4.11,0.79,6.17
		c0.18,1.52,0.22,3.06,0.54,4.55c0.24,1.1-0.32,1.35-1.08,1.37c-0.94,0.03-1.88-0.18-2.82-0.21c-3.78-0.1-7.56-0.14-11.34-0.25
		c-4.4-0.13-8.8-0.31-13.2-0.47c-2.02-0.07-4.04-0.16-6.06-0.24c-4.36-0.16-8.72-0.32-13.08-0.48c-4.28-0.16-8.56-0.32-12.84-0.48
		c-4.44-0.16-8.88-0.32-13.32-0.48c-1.7-0.06-3.4-0.15-5.1-0.24c-0.61-0.03-1.23-0.1-1.11-0.96c0.16-1.23-0.66-1.25-1.49-1.19
		c-1.88,0.13-3.76,0.36-5.64,0.46c-2.62,0.13-5.24,0.15-7.86,0.26c-3.48,0.14-6.96,0.31-10.44,0.48c-2.92,0.15-5.84,0.33-8.76,0.47
		c-3.48,0.17-6.96,0.31-10.44,0.49c-2.88,0.14-5.76,0.32-8.64,0.47c-3.24,0.17-6.48,0.35-9.72,0.46c-0.57,0.02-1.14-0.28-1.85-0.46
		c0,0.01-0.15,0.24-0.17,0.47c-0.09,0.94-0.74,1.11-1.45,0.95c-3.77-0.85-7.53-1.74-11.29-2.63c-5.42-1.27-10.83-2.55-16.25-3.83
		c-4.29-1.01-8.57-2.05-12.86-3.05c-5.98-1.4-11.97-2.77-17.96-4.15c-0.37-0.09-0.75-0.16-1.12-0.24c-1.37-0.06-2.66-0.5-3.93-0.92
		c-0.89-0.3-1.35-1.08-1.49-2.02c-0.09-0.63-0.06-1.27-0.06-1.91c0-10.81-0.01-21.63,0.01-32.44c0.01-2.12-0.22-4.22-0.37-6.33
		C81.9,47.92,81.73,47.31,82.23,46.81z"/>
	<path fill="#EE2425" d="M82.23,46.81c1.02,14.01,0.23,28.05,0.48,42.07c0.02,1.35,0.85,2.08,2.28,2.32
		c0.96,0.16,1.87,0.61,2.8,0.93c0.28,2.1,0.55,4.2,0.83,6.29c0.12,0.9,0.3,1.8,0.29,2.69c0,0.26-0.56,0.76-0.85,0.75
		c-2.37-0.07-4.74-0.25-7.11-0.37c-3.33-0.17-6.66-0.31-9.99-0.49c-2.61-0.14-5.22-0.32-7.83-0.47c-4.43-0.25-8.87-0.48-13.3-0.73
		c-2.65-0.15-5.3-0.33-7.95-0.47c-4.47-0.25-8.95-0.48-13.42-0.73c-2.65-0.15-5.3-0.32-7.95-0.47c-2.93-0.17-5.86-0.3-8.78-0.52
		c-0.28-0.02-0.77-0.59-0.75-0.88c0.11-1.77,0.33-3.53,0.55-5.28c0.27-2.14,0.58-4.28,0.85-6.43c0.34-2.69,0.65-5.39,1-8.08
		c0.29-2.3,0.61-4.59,0.93-6.89c0.37-2.68,0.77-5.36,1.14-8.05c0.28-2.07,0.51-4.14,0.78-6.2c0.29-2.26,0.62-4.51,0.91-6.77
		c0.28-2.19,0.52-4.38,0.77-6.57c0.25-2.15,0.44-4.31,0.76-6.45c0.1-0.7,0.54-1.19,1.46-1.27c3.61-0.32,7.2-0.78,10.8-1.15
		c1.92-0.2,3.86-0.3,5.78-0.51c2.62-0.28,5.23-0.63,7.85-0.93c1.68-0.19,3.38-0.32,5.06-0.51c2.7-0.3,5.39-0.64,8.09-0.93
		c1.77-0.19,3.54-0.33,5.3-0.51c2.98-0.31,5.95-0.65,8.93-0.94c2.08-0.2,4.18-0.31,6.26-0.51c0.98-0.09,1.46,0.48,1.58,1.25
		c0.32,2.06,0.5,4.14,0.76,6.21c0.29,2.3,0.63,4.59,0.92,6.89c0.12,0.9,0.15,1.81,0.29,2.7C81.82,46.16,82.07,46.48,82.23,46.81z"/>
	<path fill="#0A0504" d="M478.49,32.12c0,0.33,0,0.65,0,0.98c-0.02,0.24-0.04,0.47-0.07,0.71c-0.9-0.38-1-1.69-0.17-2.41
		C478.33,31.64,478.41,31.88,478.49,32.12z"/>
	<path fill="#111111" d="M164.39,52.72c0.22,2.19,0.41,4.28,0.64,6.37c0.29,2.6,0.65,5.2,0.94,7.8c0.2,1.8,0.27,3.61,0.51,5.4
		c0.52,3.9,0.88,7.84,1.74,11.67c0.78,3.47,2.44,3.96,5.64,4.31c0.93,0.1,1.46,0.37,1.21,1.33c-0.09,0.33-0.52,0.79-0.82,0.82
		c-2.68,0.22-5.36,0.32-8.04,0.53c-2.42,0.19-4.83,0.5-7.25,0.67c-0.36,0.03-1.08-0.45-1.07-0.64c0.04-0.51,0.28-1.18,0.66-1.43
		c0.83-0.54,1.82-0.83,2.72-1.27c2.22-1.09,3.04-2.93,2.53-5.35c-0.23-1.11-0.33-2.24-0.46-3.37c-0.41-3.58-0.81-7.16-1.19-10.74
		c-0.19-1.8-0.3-3.6-0.5-5.4c-0.29-2.64-0.62-5.28-0.93-7.93c-0.18-1.6-0.38-3.19-0.5-4.8c-0.26-3.53-2.86-5.52-6.17-5.15
		c-0.32,0.04-0.91-0.34-0.99-0.63c-0.14-0.55-0.27-1.33,0.64-1.49c2.41-0.42,4.83-0.82,7.25-1.21c1.11-0.18,2.23-0.43,3.35-0.44
		c0.59-0.01,1.33,0.29,1.75,0.69c3.55,3.38,7.04,6.83,10.55,10.25c3.45,3.37,6.9,6.74,10.35,10.11c2.85,2.78,5.71,5.56,8.57,8.33
		c0.38,0.37,0.84,0.66,1.57,1.23c-0.26-2.64-0.45-4.97-0.72-7.29c-0.25-2.21-0.58-4.41-0.88-6.62c-0.38-2.82-0.76-5.65-1.15-8.47
		c-0.24-1.74-0.52-3.47-0.76-5.2c-0.42-3.02-2.39-4.91-5.5-4.76c-0.48,0.02-1.03,0.14-1.42-0.04c-0.41-0.19-0.8-0.65-0.97-1.08
		c-0.29-0.74,0.3-1.14,0.9-1.25c2.41-0.45,4.83-0.82,7.24-1.24c2.49-0.43,4.97-0.89,7.45-1.33c0.69-0.12,1.38-0.32,2.07-0.32
		c0.42,0,1.13,0.25,1.21,0.53c0.19,0.7,0.22,1.48-0.77,1.82c-0.98,0.33-1.91,0.8-2.88,1.19c-2.5,1.01-2.94,3.47-2.74,5.55
		c0.23,2.49,0.61,4.96,0.93,7.44c0.39,2.94,0.81,5.88,1.18,8.82c0.27,2.14,0.47,4.28,0.74,6.42c0.28,2.25,0.62,4.49,0.91,6.73
		c0.27,2.13,0.51,4.27,0.77,6.41c0.32,2.64,0.62,5.28,0.99,7.91c0.18,1.22-0.1,1.69-1.3,1.61c-0.4-0.03-0.8-0.23-1.18-0.41
		c-0.2-0.1-0.35-0.32-0.52-0.49c-9.81-9.73-19.62-19.47-29.44-29.19c-2.06-2.04-4.18-4.03-6.28-6.04
		C164.83,52.95,164.62,52.86,164.39,52.72z"/>
	<path fill="#111111" d="M116.32,36.53c5.76,0.04,10.97,1.69,15.34,5.38c4.56,3.85,7.68,8.71,8.61,14.72
		c0.38,2.44,0.64,4.97,0.46,7.42c-0.43,5.86-1.69,11.57-5.57,16.22c-3.11,3.72-6.99,6.47-11.84,7.51c-1.79,0.38-3.63,0.75-5.44,0.7
		c-6.07-0.16-11.76-1.72-16.5-5.7c-4.34-3.64-7.02-8.36-8.36-13.88c-0.74-3.07-0.9-6.19-0.67-9.29c0.33-4.6,1.46-9.06,4.09-12.91
		c3.52-5.17,8.32-8.58,14.64-9.53C112.81,36.91,114.57,36.75,116.32,36.53z"/>
	<path fill="#111111" d="M361.07,63.84c-0.02,6.33,1.6,11.55,4.9,16.14c2.61,3.63,6.2,5.94,10.72,6.63
		c5.58,0.85,10.47-0.71,14.74-4.31c1.19-1.01,2.21-2.23,3.35-3.3c0.31-0.29,0.8-0.37,1.21-0.54c0.13,0.42,0.42,0.87,0.37,1.27
		c-0.21,1.67-0.66,3.19-1.96,4.48c-3.11,3.08-6.6,5.44-10.87,6.51c-3.05,0.77-6.11,1.1-9.3,0.76c-2.73-0.29-5.39-0.69-7.92-1.75
		c-3.7-1.54-6.84-3.79-9.41-6.92c-2.45-2.99-4.22-6.28-5.18-10.01c-0.5-1.94-1.03-3.85-0.73-5.93c0.21-1.45-0.05-2.96,0.06-4.43
		c0.36-5.12,1.93-9.77,5.34-13.73c3.19-3.71,7.1-6.22,11.87-7.29c2.57-0.58,5.14-0.72,7.82-0.48c3.92,0.35,7.58,1.49,11.26,2.72
		c1.18,0.39,2.17,0.49,2.9-0.85c0.18-0.32,1.09-0.4,1.61-0.3c0.3,0.06,0.63,0.68,0.69,1.09c0.6,3.97,1.16,7.95,1.67,11.93
		c0.05,0.41-0.23,1.2-0.47,1.24c-0.61,0.12-1.31,0.32-1.79-0.61c-1.08-2.12-2.24-4.23-3.56-6.21c-2-3-5.01-4.56-8.46-5.35
		c-2.91-0.66-5.8-0.74-8.65,0.3c-2.93,1.07-5.05,3.1-6.54,5.75C362.31,54.93,361,59.53,361.07,63.84z"/>
	<path fill="#111111" d="M247.79,90.93c-3.36,0-6.72,0-10.08,0c-0.55,0-1.12,0.12-1.18-0.77c-0.06-0.86,0.35-1.22,1.08-1.39
		c1.05-0.24,2.12-0.43,3.15-0.74c1.33-0.39,2.05-1.39,2.02-2.79c-0.05-2.86-0.12-5.72-0.24-8.58c-0.11-2.56-0.31-5.12-0.47-7.68
		c-0.16-2.56-0.32-5.12-0.48-7.68c-0.16-2.56-0.32-5.12-0.48-7.68c-0.16-2.48-0.32-4.96-0.48-7.44c-0.1-1.48-0.52-1.76-1.95-1.43
		c-1.36,0.32-2.72,0.63-4.1,0.82c-4.09,0.56-6.14,3.1-6.91,6.94c-0.14,0.72-0.37,1.43-0.47,2.15c-0.12,0.92-0.78,0.98-1.46,1
		c-0.9,0.02-0.7-0.67-0.71-1.2c-0.08-3.1-0.18-6.2-0.24-9.3c-0.03-1.44,0.57-2,1.98-2.22c3.23-0.5,6.44-1.09,9.66-1.62
		c3.03-0.5,6.07-0.98,9.1-1.49c3.03-0.51,6.05-1.07,9.07-1.59c2.57-0.44,5.14-0.88,7.71-1.28c1-0.15,2.03-0.27,3.03-0.21
		c0.34,0.02,0.86,0.6,0.92,0.98c0.39,2.63,0.67,5.27,1,7.91c0.13,1.04,0.32,2.08,0.47,3.12c0.13,0.85-0.12,1.47-1.06,1.63
		c-0.98,0.17-1.64-0.17-2.06-1.12c-0.67-1.55-1.34-3.11-2.18-4.58c-0.91-1.61-2.49-2.46-4.27-2.42c-2.9,0.07-5.8,0.4-8.68,0.71
		c-0.8,0.09-1.25,0.76-1.18,1.63c0.15,1.76,0.32,3.51,0.47,5.27c0.32,3.72,0.65,7.44,0.95,11.17c0.18,2.16,0.34,4.32,0.48,6.48
		c0.25,3.82,0.45,7.65,0.74,11.46c0.13,1.71,0.51,3.39,0.66,5.1c0.24,2.78,2.1,3.76,4.48,4.19c0.73,0.13,1.48,0.25,2.21,0.23
		c0.98-0.03,1.2,0.56,1.26,1.33c0.07,0.9-0.62,1.03-1.24,1.07c-1.04,0.07-2.08,0.02-3.12,0.02
		C252.74,90.93,250.26,90.93,247.79,90.93z"/>
	<path fill="#111111" d="M309.84,83.52c-0.13-1.46,0.06-1.7,1.3-1.71c0.12,0,0.24,0,0.36,0c2.69,0,3.4-0.66,3.01-3.31
		c-0.36-2.44-1.06-4.84-1.51-7.27c-0.21-1.14-1.08-1.28-1.87-1.39c-2.29-0.32-4.6-0.48-6.89-0.76c-2.24-0.28-4.48-0.66-6.72-0.93
		c-1.1-0.13-2.06-0.14-2.7,1.21c-1.02,2.12-2.35,4.08-3.52,6.13c-0.32,0.56-0.61,1.18-0.73,1.81c-0.38,1.96,0.89,2.84,2.81,3.03
		c0.88,0.09,1.42,0.2,1.24,1.2c-0.19,1-0.8,0.67-1.49,0.55c-1.16-0.2-2.35-0.2-3.54-0.27c-2.6-0.16-5.2-0.31-7.8-0.49
		c-0.5-0.03-1.02-0.08-1.48-0.27c-0.25-0.1-0.58-0.62-0.51-0.74c0.21-0.36,0.56-0.81,0.92-0.87c1.88-0.34,3.51-1.15,4.64-2.68
		c1.48-1.99,2.89-4.04,4.2-6.14c4.2-6.75,8.35-13.55,12.52-20.32c2.72-4.41,5.43-8.82,8.19-13.2c0.22-0.35,0.93-0.69,1.28-0.58
		c0.51,0.15,1.15,0.64,1.28,1.11c0.65,2.38,1.19,4.79,1.71,7.21c0.76,3.48,1.46,6.97,2.21,10.45c0.94,4.39,1.87,8.78,2.85,13.16
		c0.64,2.87,1.36,5.71,2.04,8.57c0.28,1.16,0.5,2.34,0.85,3.48c0.34,1.1,0.88,2.06,2.21,2.3c0.6,0.11,1.18,0.56,0.85,1.26
		c-0.15,0.32-0.77,0.62-1.15,0.6c-2.66-0.18-5.32-0.46-7.99-0.68C314.21,83.8,312.02,83.67,309.84,83.52z"/>
	<path fill="#111111" d="M458.31,46.15c0,1.98,0,3.96,0,5.94c0,0.28-0.07,0.58,0.02,0.84c0.21,0.6,0.32,1.14-0.51,1.28
		c-0.82,0.14-1.5-0.04-1.66-1.02c-0.16-0.96-0.28-1.92-0.5-2.87c-0.75-3.23-2.99-4.91-6.03-5.69c-1.5-0.38-3.02-0.66-4.54-0.97
		c-0.71-0.14-0.88,0.38-0.92,0.9c-0.18,2.2-0.3,4.4-0.5,6.6c-0.29,3.13-0.65,6.24-0.94,9.37c-0.2,2.12-0.32,4.24-0.49,6.36
		c-0.31,3.72-0.7,7.44-0.92,11.17c-0.09,1.48,0.03,3.02,0.36,4.46c0.46,2.02,2.34,2.08,3.96,2.42c0.74,0.15,1.85-0.02,1.61,1.29
		c-0.06,0.33-0.53,0.83-0.8,0.83c-3.6-0.1-7.2-0.28-10.81-0.43c-0.56-0.02-1.12,0.01-1.68-0.01c-2.5-0.07-5-0.19-7.5-0.22
		c-0.74-0.01-1.11-0.37-0.97-0.95c0.1-0.46,0.55-1.07,0.96-1.18c1.08-0.3,2.22-0.37,3.34-0.53c1.93-0.27,3.15-1.51,3.34-3.41
		c0.4-3.98,0.8-7.96,1.2-11.94c0.32-3.24,0.64-6.48,0.96-9.73c0.33-3.36,0.61-6.73,0.98-10.08c0.16-1.47,0.49-2.92,0.7-4.38
		c0.24-1.73-0.45-2.5-2.21-2.71c-1.5-0.18-3-0.42-4.49-0.71c-2.82-0.54-5.9,0.92-7.18,3.5c-0.46,0.93-0.81,1.91-1.24,2.86
		c-0.35,0.77-0.82,1.19-1.81,0.9c-1.02-0.3-1.14-0.79-0.96-1.74c0.5-2.72,0.9-5.45,1.34-8.18c0.1-0.61,0.14-1.25,0.33-1.84
		c0.4-1.28,1.55-0.9,2.31-0.74c6.06,1.27,12.09,2.68,18.14,3.98c5.15,1.11,10.33,2.08,15.48,3.19c1.87,0.4,1.96,0.18,1.91,2.24
		c-0.01,0.4,0,0.8,0,1.2C458.47,46.15,458.39,46.15,458.31,46.15z"/>
	<path fill="#FEF4F4" d="M51.29,39.3c2.79,0.41,5.57,0.85,8.37,1.21c1.24,0.16,2.39-0.08,3.17-1.26c0.25-0.38,0.75-0.75,1.19-0.83
		c1.18-0.22,1.49,0.12,1.64,1.63c0.33,3.36,0.64,6.73,0.97,10.09c0.04,0.38,0.18,0.76,0.23,1.14c0.07,0.67,0.01,1.34-0.8,1.48
		c-0.77,0.13-1.39-0.06-1.84-0.86c-0.95-1.69-1.95-3.36-3.06-4.95c-1.67-2.39-4.17-3.64-6.9-4.21c-3.58-0.75-7.06-0.25-10.37,1.46
		c-3.53,1.83-5.75,4.76-7.23,8.31c-1.6,3.84-2.49,7.83-2.17,12.02c0.34,4.54,1.37,8.83,4.53,12.37c2.96,3.32,6.63,4.97,11.06,5.19
		c5.35,0.26,9.95-1.56,14.14-4.7c0.82-0.61,1.58-1.32,2.29-2.05c0.7-0.73,1.5-0.67,2.11-0.16c0.6,0.5,1.02,1.21,0.3,2.13
		c-2,2.55-4.45,4.56-7.22,6.14c-3.18,1.81-6.62,2.75-10.33,2.98c-4.95,0.31-9.68-0.39-14.03-2.73c-5.75-3.09-9.46-7.98-10.47-14.41
		c-1.1-7.05,0.14-13.8,4.25-19.82c1.89-2.77,4.4-4.88,7.3-6.55C42.41,40.59,46.23,39.44,51.29,39.3z"/>
	<path fill="#FDFDFC" d="M99.73,63.65c-0.07-5.58,1.24-10.7,3.61-15.55c2.12-4.34,5.58-6.9,10.44-7.59
		c5.65-0.81,9.94,1.38,13.38,5.7c2.2,2.76,3.17,5.99,3.53,9.43c0.7,6.6-0.02,13.06-2.17,19.33c-1.7,4.97-4.8,8.6-10.12,10
		c-3.05,0.8-5.93,0.39-8.75-0.83c-4.72-2.05-7.26-5.78-8.52-10.68C100.29,70.17,99.7,66.9,99.73,63.65z"/>
	<path fill="#FDFDFC" d="M308.23,48.04c0.79,3.5,1.59,7,2.37,10.51c0.52,2.34,1.05,4.67,1.54,7.02c0.16,0.78-0.13,1.22-1.02,1.13
		c-1.83-0.18-3.68-0.3-5.51-0.51c-1.58-0.18-3.15-0.47-4.73-0.69c-0.81-0.11-1.64-0.13-2.45-0.26c-0.89-0.14-0.8-0.7-0.45-1.29
		c1.03-1.76,2.06-3.53,3.12-5.27c2-3.3,4.02-6.58,6.04-9.86c0.23-0.37,0.49-0.73,0.74-1.09C307.98,47.83,308.1,47.93,308.23,48.04z"
		/>
</g>
</svg>
