<?xml version="1.0" encoding="utf-8"?>
<!-- Generator: Adobe Illustrator 22.0.1, SVG Export Plug-In . SVG Version: 6.00 Build 0)  -->
<svg version="1.1" id="Layer_1" xmlns="http://www.w3.org/2000/svg" xmlns:xlink="http://www.w3.org/1999/xlink" x="0px" y="0px"
	 viewBox="0 0 478.5 120.8" style="enable-background:new 0 0 478.5 120.8;" xml:space="preserve">
<style type="text/css">
	.st0{fill:#090403;}
	.st1{fill:#FDFCFC;}
	.st2{fill:#ED2325;}
	.st3{fill:#0F1010;}
	.st4{fill:#FEF4F4;}
</style>
<g id="SJQoae.tif">
	<g>
		<path class="st0" d="M478.3,36.8c-0.2,13.2-0.4,26.4-0.7,39.6c-0.2,10.7-0.4,21.5-0.6,32.2c0,2.3,0,2.3-2.4,2.4
			c-8.2,0.4-16.5,0.7-24.7,1.2c-11.5,0.6-23,1.2-34.4,1.8c-9.1,0.5-18.1,0.9-27.2,1.4c-3.8,0.2-7.6,0.4-11.5,0.7
			c-1.2,0.1-1.6-0.3-1.2-1.5c0.3-1,0.5-1.8-1.2-1.6c-8.2,1.3-16.5,2.5-24.8,3.7c-9.1,1.4-18.3,2.6-27.4,4c-1.2,0.2-1.4,0-1.2-1.2
			c0.7-5.4,1.3-10.7,2-16.1c0.1-1.2-0.2-1.6-1.5-1.7c-5.4-0.1-10.8-0.3-16.3-0.6c-1.2-0.1-1.6,0.1-1.4,1.5c0.6,4,1,8.1,1.6,12.1
			c0.4,2.7,0.5,2.6-2.2,2.4c-4.3-0.3-8.7-0.5-13.1-0.8c-8.9-0.6-17.8-1.1-26.6-1.7c-6.3-0.4-12.6-0.8-18.9-1.1
			c-6.9-0.4-13.9-1-20.8-1.3c-6-0.3-11.9-0.3-17.9,0.1c-4.5,0.3-9,0.2-13.4,0.4c-10.5,0.4-21,0.6-31.5,0.9c-5.7,0.2-11.3,0.4-17,0.6
			c-1.2,0.1-1.7-0.2-1.8-1.6c-0.2-2.8-0.3-2.8-3.1-3.5c-11.6-2.9-23.2-5.8-34.8-8.7c-1.6-0.4-1.8,0-1.6,1.4
			c0.9,4.9,1.7,9.7,2.6,14.6c0.2,1.1,0,1.3-1.1,1.2c-6.3-0.6-12.7-1.1-19-1.6c-7.5-0.7-15-1.4-22.5-2c-6.1-0.5-12.2-1-18.3-1.5
			c-6.1-0.5-12.2-1.1-18.3-1.6c-4.7-0.4-9.4-0.8-14.1-1.2c-3.5-0.3-7-0.7-10.6-0.9c-1.5-0.1-1.7-0.8-1.5-2
			c0.9-5.3,1.7-10.6,2.6-15.9C4.2,80.9,5.9,71,7.5,61.1c1.7-10.3,3.3-20.7,5-31c0.2-1.2,1-1.3,1.7-1.4c2.2-0.3,4.4-0.5,6.6-0.8
			c6.5-0.8,13.1-1.6,19.6-2.4c5.4-0.6,10.7-1.2,16.1-1.9c5.2-0.6,10.5-1.3,15.7-1.9c1.3-0.2,2.7-0.5,4-0.5c1,0,1.6-0.3,1.4-1.4
			c-0.2-1.2,0.4-1.5,1.5-1.5c9-0.2,18-0.5,27.1-0.7c13.3-0.4,26.5-0.7,39.8-1.1c9-0.3,17.9-0.5,26.9-0.8c1.3,0,1.2,0.6,1,1.4
			c-0.4,2.6-0.4,2.6,2.2,2.1c15.6-3.3,31.2-6.7,46.8-10.1c1.3-0.3,1.6-0.1,1.7,1.2c0.6,5,1.4,9.9,2.1,14.9c0.2,1.1,0.5,1.4,1.7,1.1
			c10.6-2.5,21.2-4.9,31.9-7.2c1.1-0.2,1.4-0.7,1.5-1.9c0.3-5.4,0.7-10.7,1-16c0.1-1.4,0.8-1,1.5-0.8c9.1,2.6,18.1,5.1,27.2,7.7
			c20,5.6,40,11.3,60.1,16.8c3.5,1,7.3,1.2,10.9,1.7c7.1,1,14.2,2.1,21.2,3.1c2.2,0.3,4.4,0.5,6.6,0.9c1.1,0.2,1.5,0.1,1.7-1.1
			c1.2-6.5,2.6-13,3.8-19.5c0.2-1.3,0.7-1.5,1.8-1.2c12.1,3.4,24.1,6.8,36.2,10.2c14.3,4,28.5,8,42.8,12c1.3,0.4,1.9,0.8,1.8,2.2
			c-0.1,1.3,0,2.6,0,3.9C478.4,36.8,478.4,36.8,478.3,36.8z M82.5,51.6c-0.3-2.3-0.7-4.5-1-6.8c-0.6-4.9-1.2-9.8-1.9-14.7
			c-0.1-0.9-0.5-1.4-1.6-1.3c-5.1,0.6-10.2,1-15.3,1.5C55.4,31.2,48,32,40.7,32.8c-6.8,0.7-13.7,1.4-20.5,2.1
			c-0.9,0.1-1.2,0.3-1.3,1.2c-0.8,6.7-1.7,13.3-2.5,20c-1.1,8.6-2.2,17.2-3.4,25.7c-0.6,4.8-1.3,9.6-1.9,14.4
			c-0.1,0.9,0.1,1.4,1.2,1.4c1.3,0,2.6,0.1,3.9,0.1c10,0.6,20,1.1,30,1.7c7.4,0.4,14.8,0.8,22.2,1.3c6.5,0.4,13,0.7,19.4,1.1
			c0.6,0,1.2,0.2,1-0.9c-0.5-3-0.8-5.9-1.2-8.9c0.6-0.2,1,0.2,1.5,0.3c19,4.4,37.9,8.8,56.9,13.3c2.4,0.6,2.4,0.6,2.9-1.9
			c0,0,0.2,0,0.4-0.1c-0.1,1.6,1,1.5,2,1.4c4.4-0.2,8.8-0.5,13.3-0.7c8.5-0.4,17.1-0.8,25.6-1.3c7.5-0.4,15.1-0.7,22.6-1.1
			c0.7,0,1.2,0.1,1.1,0.9c-0.2,1.2,0.6,1.1,1.4,1.1c7.1,0.2,14.3,0.5,21.4,0.8c18.3,0.7,36.6,1.4,54.8,2c2.4,0.1,2.3,0.1,2-2.2
			c-0.5-3.3-0.8-6.7-1.3-10c-0.2-1.3,0.2-1.7,1.5-1.6c3.3,0.2,6.6,0.3,9.9,0.5c8.6,0.4,17.2,0.9,25.8,1.3c1.5,0.1,1.9,0.3,1.7,1.8
			c-0.5,4.3-0.8,8.6-1.4,12.8c-0.2,1.5,0.2,1.9,1.7,1.7c9.4-1.2,18.8-2.4,28.3-3.6c11.8-1.5,23.6-3.1,35.5-4.4
			c7-0.8,13.9-2.1,20.9-2.2c5.5-0.1,11,0,16.5-0.1c11.6-0.1,23.1-0.2,34.7-0.4c0.6,0,1.3,0.3,1.3-0.8c0-2.5,0.2-4.9,0.3-7.4
			c0.2-5.2,0.2-10.4,0.4-15.6c0.4-11.7,0.9-23.4,1.3-35.2c0.1-1.5,0.5-3.4-0.3-4.5c-0.6-0.9-2.6-0.9-4-1.2
			c-19.6-4.9-39.2-9.7-58.8-14.6c-1-0.2-1.5-0.1-1.7,1.2c-0.6,4.1-1.4,8.1-2,12.2c-0.2,1-0.5,1.2-1.4,1.1c-3.7-0.5-7.3-1-11-1.4
			c-8.7-1.2-17.3-2.3-26-3.5c-8.9-1.2-17.8-2.3-26.8-3.5c-0.9-0.1-1.2,0.1-1.1,0.9c0,0.6-0.1,1.2-0.2,1.8c0,1.1-0.5,1.2-1.5,0.9
			c-13.2-3.3-26.4-6.6-39.6-9.9c-7.3-1.8-14.6-3.7-22-5.5c-0.2,2.1-0.4,4-0.5,5.9c0,1.2-0.5,1.6-1.6,1.8c-3.8,0.7-7.6,1.5-11.4,2.3
			c-14.2,2.9-28.4,5.8-42.6,8.7c-0.9,0.2-1,0.1-1.1-0.8c-0.5-4-1.2-7.9-1.7-11.9c-0.1-1.1-0.3-1.3-1.4-1c-16.6,3.3-33.3,6.6-50,9.9
			c-1.1,0.2-1.2-0.2-1-1.1c0.2-1.3,0.4-2.7,0.8-4c0.5-1.5,0.1-1.8-1.4-1.7c-26.1,0.2-52.2,0.3-78.2,0.4c-1.4,0-1.6,0.4-1.6,1.7
			C82.5,34.5,82.5,43,82.5,51.6z"/>
		<path class="st1" d="M82.5,51.6c0-8.6,0.1-17.1,0-25.7c0-1.3,0.2-1.7,1.6-1.7c26.1-0.1,52.2-0.3,78.2-0.4c1.4,0,1.9,0.2,1.4,1.7
			c-0.4,1.3-0.5,2.6-0.8,4c-0.2,0.9-0.1,1.3,1,1.1c16.7-3.3,33.3-6.6,50-9.9c1.1-0.2,1.3-0.1,1.4,1c0.5,4,1.2,7.9,1.7,11.9
			c0.1,0.9,0.3,1,1.1,0.8c14.2-2.9,28.4-5.8,42.6-8.7c3.8-0.8,7.6-1.6,11.4-2.3c1.1-0.2,1.6-0.7,1.6-1.8c0.1-1.9,0.3-3.9,0.5-5.9
			c7.4,1.9,14.7,3.7,22,5.5c13.2,3.3,26.4,6.6,39.6,9.9c1,0.2,1.4,0.1,1.5-0.9c0-0.6,0.2-1.2,0.2-1.8c0-0.9,0.3-1.1,1.1-0.9
			c8.9,1.2,17.8,2.3,26.8,3.5c8.7,1.1,17.3,2.3,26,3.5c3.7,0.5,7.3,0.9,11,1.4c0.9,0.1,1.3-0.1,1.4-1.1c0.6-4.1,1.4-8.1,2-12.2
			c0.2-1.3,0.7-1.4,1.7-1.2c19.6,4.9,39.2,9.7,58.8,14.6c1.4,0.3,3.4,0.3,4,1.2c0.7,1.1,0.3,2.9,0.3,4.5
			c-0.4,11.7-0.9,23.4-1.3,35.2c-0.2,5.2-0.3,10.4-0.4,15.6c-0.1,2.5-0.3,4.9-0.3,7.4c0,1.1-0.7,0.8-1.3,0.8
			c-11.6,0.1-23.1,0.3-34.7,0.4c-5.5,0-11,0-16.5,0.1c-7,0.1-13.9,1.4-20.9,2.2c-11.8,1.4-23.6,3-35.5,4.4
			c-9.4,1.2-18.8,2.3-28.3,3.6c-1.6,0.2-1.9-0.2-1.7-1.7c0.5-4.3,0.8-8.6,1.4-12.8c0.2-1.5-0.3-1.8-1.7-1.8
			c-8.6-0.4-17.2-0.9-25.8-1.3c-3.3-0.2-6.6-0.2-9.9-0.5c-1.4-0.1-1.7,0.3-1.5,1.6c0.5,3.3,0.8,6.6,1.3,10c0.3,2.3,0.4,2.3-2,2.2
			c-18.3-0.7-36.6-1.4-54.8-2c-7.1-0.3-14.3-0.5-21.4-0.8c-0.8,0-1.6,0.1-1.4-1.1c0.1-0.8-0.3-1-1.1-0.9c-7.5,0.4-15.1,0.8-22.6,1.1
			c-8.5,0.4-17.1,0.8-25.6,1.3c-4.4,0.2-8.8,0.4-13.3,0.7c-1.1,0.1-2.1,0.2-2-1.4c-0.2,0.1-0.4,0.1-0.4,0.1
			c-0.5,2.5-0.5,2.4-2.9,1.9c-19-4.4-37.9-8.9-56.9-13.3c-0.5-0.1-1-0.5-1.5-0.3c-0.9-0.2-1.8-0.6-2.7-0.7c-1.8-0.2-2.4-1-2.4-2.9
			C82.6,76.1,82.5,63.8,82.5,51.6z M164.5,52.5c0.4,0.3,0.8,0.7,1.2,1c11.7,11.6,23.4,23.1,35.1,34.7c0.7,0.7,1.4,1.2,2.3,0.8
			c1-0.4,0.5-1.3,0.4-2c-1.8-14.2-3.6-28.3-5.3-42.5c-0.5-4.1,0.9-5.8,4.1-7c0.3-0.1,0.6-0.3,1-0.4c0.8-0.2,1.6-0.5,1.3-1.5
			c-0.3-1.1-1.2-0.6-1.9-0.5c-1.9,0.3-3.7,0.6-5.6,1c-3.4,0.6-6.7,1.2-10.1,1.8c-0.7,0.1-1.3,0.2-1.3,1.1c0.1,0.9,0.7,0.9,1.4,0.9
			c0.3,0,0.6,0,0.9,0c3.6,0.1,5.1,1.5,5.8,5.1c0.8,4.7,1.3,9.5,2,14.2c0.6,4.4,1.1,8.9,1.7,13.4c-0.9-0.2-1.3-0.7-1.7-1.1
			c-9.9-9.6-19.8-19.2-29.7-28.9c-0.7-0.7-1.4-0.9-2.4-0.7c-3,0.6-6,1.1-9.1,1.6c-0.7,0.1-1.5,0.1-1.5,1.1c0,1.1,0.9,0.8,1.6,0.8
			c3.3,0,5.4,1.9,5.7,5.1c1.1,10.2,2.2,20.4,3.3,30.6c0.6,6.1,0.5,6.2-5.1,8.6c-0.6,0.2-0.7,0.5-0.6,1.1c0.1,0.7,0.6,0.7,1.2,0.7
			c4.8-0.4,9.6-0.7,14.5-1.2c0.5,0,1.4,0.4,1.4-0.8c0-1.1-0.7-1.1-1.5-1.1c-3.5-0.3-4.8-1.6-5.7-5c-0.7-2.8-0.9-5.6-1.2-8.4
			c-0.8-7.4-1.6-14.9-2.4-22.3C164.3,52.6,164.4,52.6,164.5,52.5z M117.4,36.9c-8.1-0.3-14.3,2.1-19.1,7.6c-3.5,4-5.1,8.7-5.7,14
			c-1.6,13.8,5.9,26.2,19.1,29.1c8.8,1.9,16.4,0.1,22.6-6.5c3.8-4.1,5.4-9.2,6.1-14.6c0.5-4.1,0.5-8.1-0.7-12.1
			C137,45.3,128.8,37,117.4,36.9z M351.1,66.2c0,0.9-0.1,1.9,0,2.8c1.6,11.6,10,20.4,20.5,22c9,1.4,16.7-0.6,23-7.3
			c1.2-1.2,1.4-2.6,1.7-4.1c0.1-0.4,0.1-0.9-0.4-1c-0.4-0.1-0.6,0.2-0.9,0.5c-0.9,0.9-1.7,1.8-2.6,2.7c-8.1,7.7-22.6,7.8-28.8-5.3
			c-3.7-7.9-3.7-16.1-0.1-23.9c3.6-8,10.2-9.8,17.7-7.7c4.4,1.2,7.3,4.3,9.4,8.3c0.5,1,0.9,2,1.4,3c0.3,0.6,0.8,0.8,1.5,0.7
			c0.5-0.1,0.6-0.5,0.5-0.9c-0.6-4.1-1.1-8.2-1.7-12.3c-0.1-0.5-0.2-0.9-0.8-1.1c-0.5-0.1-0.9,0-1.2,0.4c-0.8,1.3-2,1.3-3.2,0.8
			c-2.6-1-5.2-1.8-7.9-2.3c-6.8-1.3-13.2-0.4-18.9,3.8C353.2,50.6,350.8,57.8,351.1,66.2z M249.8,64.1c-0.6-7.5-1-13.5-1.5-19.5
			c-0.1-1.2,0.2-1.7,1.4-1.8c1.8-0.2,3.6-0.6,5.4-0.8c3.3-0.3,6.4,0,8.1,3.6c0.5,1.2,1.2,2.3,1.6,3.5c0.4,1.2,1.1,1.2,2.1,1
			c1-0.2,0.8-1,0.7-1.7c-0.5-3.4-1-6.8-1.4-10.2c-0.2-1.7-0.9-1.8-2.3-1.5c-4.6,0.8-9.3,1.6-13.9,2.4c-7.8,1.3-15.7,2.7-23.5,4
			c-1.1,0.2-1.5,0.6-1.6,1.8c-0.1,3.1,0.3,6.2,0.3,9.4c0,0.5-0.2,1.1,0.7,1.1c0.6,0,1.1-0.1,1.3-0.9c0.2-1,0.4-2.1,0.7-3.1
			c0.7-2.6,2-4.6,4.7-5.5c2.1-0.7,4.4-0.9,6.5-1.4c1.3-0.3,1.6,0.1,1.7,1.3c0.7,12.1,1.5,24.3,2.3,36.4c0.3,5.3-0.2,5.8-5.3,6.7
			c-0.7,0.1-1,0.4-1,1.1c0,0.8,0.6,0.8,1.1,0.8c6.9-0.1,13.8-0.1,20.7-0.2c0.6,0,1.1-0.1,1-0.9c-0.1-0.6-0.1-1.2-0.9-1.1
			c-0.3,0-0.6,0-0.9,0c-3.9-0.8-5.7-0.5-6.3-5.6C250.5,76.3,250.3,69.4,249.8,64.1z M323,84.5c0.7,0,0.9,0,1.1,0
			c0.5-0.1,1.2,0.5,1.4-0.5c0.2-0.9-0.6-0.8-1.1-1c-1.2-0.5-1.8-1.3-2.1-2.6c-0.7-2.9-1.4-5.8-2.1-8.7c-2.4-11-4.8-22.1-7.2-33.1
			c-0.2-0.7-0.2-1.7-1.3-1.9c-1.1-0.2-1.3,0.7-1.7,1.3c-3.2,5.1-6.3,10.2-9.5,15.3c-4.8,7.7-9.3,15.5-14.5,23
			c-1.2,1.8-2.8,3-4.9,3.3c-0.5,0.1-1.1,0-1.1,0.8c-0.1,1,0.8,0.8,1.2,0.8c4,0.3,8,0.6,12,0.9c0.6,0,1.3,0.2,1.4-0.6
			c0.2-1-0.7-0.7-1.2-0.8c-3.1-0.6-3.8-2-2.3-4.9c1.3-2.4,2.7-4.7,4-7c0.3-0.5,0.6-0.8,1.3-0.7c5.1,0.6,10.3,1.3,15.4,1.9
			c0.6,0.1,1.1,0.3,1.3,1c0.4,2.2,1,4.3,1.4,6.5c0.7,4.1,0,4.7-3.6,4.6c-0.1,0-0.2,0-0.4,0c-0.5,0.1-0.6,0.4-0.6,0.9
			c0,0.5,0.4,0.5,0.7,0.5C314.9,83.8,319.1,84.2,323,84.5z M458.3,48.7c0.1,0,0.2,0,0.2,0c0-1.5,0-2.9,0-4.4c0-0.7-0.2-1.1-1-1.3
			c-3-0.5-5.9-1.2-8.9-1.8c-8.6-1.8-17.2-3.7-25.8-5.6c-1.2-0.3-1.8-0.1-2,1.3c-0.5,3.3-1,6.5-1.6,9.8c-0.1,0.8,0.2,1,0.9,1.2
			c1.8,0.5,1.7-1.2,2.1-2c1.8-4.1,3.4-5.3,7.8-5.2c1,0,2.1,0.4,3.1,0.5c1.3,0.2,3.1,0,3.8,0.9c0.8,0.9,0,2.6-0.1,3.9
			c-1.1,11.1-2.1,22.2-3.3,33.2c-0.4,3.5-1.3,4.3-4.4,4.7c-0.8,0.1-1.6,0.2-2.5,0.2c-0.8,0.1-0.9,0.6-0.9,1.3c0,0.7,0.4,0.7,0.9,0.7
			c6.4,0.2,12.8,0.5,19.3,0.7c0.7,0,1.3,0,1.4-0.9c0-0.9-0.6-0.8-1.2-0.9c-4.2-0.6-4.8-1.3-4.8-5.4c0-0.8,0-1.5,0.1-2.3
			c0.5-6.2,1-12.3,1.5-18.5c0.4-4.8,0.9-9.5,1.3-14.3c0.1-1,0.2-1.3,1.3-1c1.4,0.4,2.9,0.5,4.3,0.9c3.1,0.8,5.4,2.4,6.1,5.8
			c0.2,0.9,0.4,1.7,0.5,2.6c0.1,0.8,0.4,1.3,1.3,1.2c1-0.1,0.6-0.9,0.6-1.4C458.3,51.4,458.3,50.1,458.3,48.7z"/>
		<path class="st2" d="M82.5,51.6c0,12.3,0.1,24.5,0,36.8c0,1.9,0.5,2.7,2.4,2.9c0.9,0.1,1.8,0.5,2.7,0.7c0.4,3,0.8,5.9,1.2,8.9
			c0.2,1-0.4,0.9-1,0.9c-6.5-0.4-13-0.7-19.4-1.1c-7.4-0.4-14.8-0.8-22.2-1.3c-10-0.6-20-1.1-30-1.7c-1.3-0.1-2.6-0.1-3.9-0.1
			c-1.1,0-1.3-0.5-1.2-1.4c0.6-4.8,1.3-9.6,1.9-14.4c1.1-8.6,2.3-17.2,3.4-25.7c0.9-6.7,1.7-13.3,2.5-20c0.1-0.9,0.5-1.1,1.3-1.2
			c6.8-0.7,13.7-1.4,20.5-2.1c7.4-0.8,14.7-1.6,22.1-2.4c5.1-0.5,10.2-1,15.3-1.5c1.1-0.1,1.5,0.3,1.6,1.3c0.6,4.9,1.2,9.8,1.9,14.7
			C81.8,47.1,82.2,49.3,82.5,51.6z M26.6,66.6c0,3.4,1.5,8,4.8,12.1C35,83,39.6,85.2,45,86c9.6,1.5,17.5-1.5,23.8-8.8
			c0.5-0.6,0.5-1.1-0.1-1.7c-0.9-1.1-1.6-0.7-2.4,0.1c-4.2,4.1-9.1,6.5-15.1,6.6c-7,0.1-13-3.8-15.3-10.3
			c-2.6-7.3-1.9-14.4,1.4-21.2c2.9-5.9,9-9.1,15.5-8.4c5.6,0.6,9.1,4,11.3,8.9c0.3,0.8,0.7,1.5,1.8,1.3c1.2-0.2,0.8-1.2,0.7-1.8
			c-0.4-3.7-0.8-7.4-1.2-11.1c-0.1-0.5,0-1.1-0.7-1.3c-0.7-0.1-1.2,0.1-1.6,0.7c-0.8,1.3-2.1,1.5-3.4,1.3c-1.1-0.1-2.2-0.3-3.3-0.5
			c-5.7-0.9-11.3-0.5-16.5,2.2C30.8,47,26.7,54.7,26.6,66.6z"/>
		<path class="st3" d="M164.2,52.7c0.8,7.4,1.6,14.9,2.4,22.3c0.3,2.8,0.6,5.6,1.2,8.4c0.8,3.3,2.2,4.7,5.7,5c0.8,0.1,1.5,0,1.5,1.1
			c0,1.2-0.9,0.7-1.4,0.8c-4.8,0.4-9.6,0.8-14.5,1.2c-0.6,0-1.1,0.1-1.2-0.7c-0.1-0.5,0.1-0.8,0.6-1.1c5.6-2.4,5.7-2.5,5.1-8.6
			c-1.1-10.2-2.2-20.4-3.3-30.6c-0.3-3.2-2.5-5.1-5.7-5.1c-0.7,0-1.5,0.4-1.6-0.8c0-1,0.8-1,1.5-1.1c3-0.5,6.1-1,9.1-1.6
			c1-0.2,1.7,0,2.4,0.7c9.9,9.6,19.8,19.3,29.7,28.9c0.4,0.4,0.9,1,1.7,1.1c-0.6-4.6-1.1-9-1.7-13.4c-0.6-4.7-1.1-9.5-2-14.2
			c-0.6-3.5-2.2-5-5.8-5.1c-0.3,0-0.6,0-0.9,0c-0.7,0-1.3,0-1.4-0.9c-0.1-0.9,0.6-1,1.3-1.1c3.4-0.6,6.7-1.2,10.1-1.8
			c1.9-0.3,3.7-0.7,5.6-1c0.7-0.1,1.6-0.6,1.9,0.5c0.3,1.1-0.5,1.3-1.3,1.5c-0.3,0.1-0.6,0.3-1,0.4c-3.3,1.2-4.6,2.8-4.1,7
			c1.7,14.2,3.5,28.3,5.3,42.5c0.1,0.7,0.6,1.6-0.4,2c-1,0.4-1.6-0.1-2.3-0.8c-11.7-11.6-23.4-23.1-35.1-34.7
			c-0.4-0.4-0.8-0.7-1.2-1c-0.1-0.1-0.3-0.2-0.4,0C164.1,52.5,164.2,52.6,164.2,52.7z"/>
		<path class="st3" d="M117.4,36.9c11.4,0.1,19.6,8.5,22.2,17.5c1.2,4,1.2,8,0.7,12.1c-0.7,5.4-2.3,10.5-6.1,14.6
			c-6.2,6.6-13.8,8.5-22.6,6.5C98.5,84.7,91,72.2,92.6,58.5c0.6-5.2,2.3-10,5.7-14C103.2,39,109.3,36.6,117.4,36.9z M130.8,58.8
			c0.1-2.1-0.3-4.8-1.1-7.5c-1.7-5.8-6.8-10.2-12.3-10.8c-5.7-0.6-11.3,2.2-13.9,7.7c-4.4,9-4.8,18.5-1.3,27.9
			c1.5,4,4.6,6.9,8.8,8.4c6.9,2.4,14-1.2,16.8-8.1C130.1,71,130.8,65.3,130.8,58.8z"/>
		<path class="st3" d="M351.1,66.2c-0.2-8.4,2.2-15.7,9.2-20.9c5.7-4.3,12.1-5.1,18.9-3.8c2.7,0.5,5.4,1.3,7.9,2.3
			c1.3,0.5,2.4,0.5,3.2-0.8c0.3-0.5,0.7-0.6,1.2-0.4c0.5,0.2,0.7,0.6,0.8,1.1c0.6,4.1,1.1,8.2,1.7,12.3c0.1,0.5-0.1,0.8-0.5,0.9
			c-0.6,0.1-1.2-0.1-1.5-0.7c-0.5-1-0.9-2.1-1.4-3c-2.1-3.9-5-7-9.4-8.3c-7.6-2.1-14.1-0.2-17.7,7.7c-3.5,7.9-3.6,16,0.1,23.9
			c6.2,13.1,20.6,13,28.8,5.3c0.9-0.8,1.7-1.8,2.6-2.7c0.2-0.3,0.5-0.6,0.9-0.5c0.5,0.2,0.5,0.6,0.4,1c-0.3,1.5-0.5,2.9-1.7,4.1
			c-6.3,6.7-14,8.7-23,7.3c-10.5-1.6-19-10.4-20.5-22C350.9,68.1,351.1,67.2,351.1,66.2z"/>
		<path class="st3" d="M249.8,64.1c0.5,5.3,0.8,12.1,1.5,19c0.6,5.1,2.4,4.7,6.3,5.6c0.3,0.1,0.6,0,0.9,0c0.9-0.1,0.9,0.6,0.9,1.1
			c0.1,0.8-0.4,0.9-1,0.9c-6.9,0-13.8,0.1-20.7,0.2c-0.5,0-1.1,0-1.1-0.8c0-0.7,0.2-1,1-1.1c5.2-0.9,5.7-1.5,5.3-6.7
			c-0.7-12.1-1.5-24.3-2.3-36.4c-0.1-1.2-0.4-1.6-1.7-1.3c-2.2,0.5-4.4,0.7-6.5,1.4c-2.7,0.9-4,2.9-4.7,5.5c-0.3,1-0.5,2.1-0.7,3.1
			c-0.1,0.8-0.6,0.9-1.3,0.9c-0.9,0-0.7-0.7-0.7-1.1c0-3.1-0.4-6.2-0.3-9.4c0.1-1.2,0.5-1.6,1.6-1.8c7.8-1.3,15.7-2.6,23.5-4
			c4.6-0.8,9.3-1.6,13.9-2.4c1.4-0.2,2.1-0.2,2.3,1.5c0.3,3.4,0.9,6.8,1.4,10.2c0.1,0.7,0.3,1.5-0.7,1.7c-1,0.2-1.7,0.1-2.1-1
			c-0.4-1.2-1-2.4-1.6-3.5c-1.7-3.5-4.8-3.9-8.1-3.6c-1.8,0.2-3.6,0.6-5.4,0.8c-1.2,0.1-1.5,0.7-1.4,1.8
			C248.8,50.6,249.2,56.6,249.8,64.1z"/>
		<path class="st3" d="M323,84.5c-3.8-0.3-8.1-0.7-12.4-1.1c-0.4,0-0.7,0-0.7-0.5c0-0.4,0.1-0.8,0.6-0.9c0.1,0,0.2,0,0.4,0
			c3.7,0,4.3-0.6,3.6-4.6c-0.4-2.2-1-4.4-1.4-6.5c-0.1-0.7-0.6-0.9-1.3-1c-5.1-0.6-10.3-1.2-15.4-1.9c-0.6-0.1-1,0.2-1.3,0.7
			c-1.3,2.3-2.8,4.6-4,7c-1.5,2.9-0.8,4.2,2.3,4.9c0.5,0.1,1.3-0.2,1.2,0.8c-0.1,0.9-0.8,0.7-1.4,0.6c-4-0.3-8-0.6-12-0.9
			c-0.5,0-1.3,0.2-1.2-0.8c0-0.8,0.6-0.7,1.1-0.8c2.2-0.3,3.7-1.6,4.9-3.3c5.2-7.4,9.7-15.3,14.5-23c3.2-5.1,6.3-10.2,9.5-15.3
			c0.4-0.6,0.6-1.4,1.7-1.3c1.1,0.2,1.1,1.1,1.3,1.9c2.4,11,4.8,22.1,7.2,33.1c0.6,2.9,1.4,5.8,2.1,8.7c0.3,1.2,0.9,2.1,2.1,2.6
			c0.5,0.2,1.3,0.1,1.1,1c-0.2,1-0.9,0.4-1.4,0.5C323.9,84.5,323.6,84.5,323,84.5z M308.1,48c-0.2,0.2-0.4,0.2-0.5,0.4
			c-3.2,5.2-6.4,10.4-9.6,15.6c-0.5,0.7-0.3,1,0.6,1.1c3.6,0.4,7.2,0.9,10.8,1.4c2.8,0.3,2.8,0.3,2.2-2.4
			C310.5,58.7,309.3,53.4,308.1,48z"/>
		<path class="st3" d="M458.3,48.7c0,1.4,0,2.7,0,4.1c0,0.5,0.4,1.3-0.6,1.4c-0.9,0.1-1.2-0.5-1.3-1.2c-0.2-0.9-0.4-1.7-0.5-2.6
			c-0.6-3.4-3-5.1-6.1-5.8c-1.4-0.4-2.9-0.4-4.3-0.9c-1.1-0.3-1.3,0-1.3,1c-0.4,4.8-0.9,9.5-1.3,14.3c-0.5,6.2-1,12.3-1.5,18.5
			c-0.1,0.8-0.1,1.5-0.1,2.3c0,4.1,0.6,4.8,4.8,5.4c0.6,0.1,1.2,0.1,1.2,0.9c0,1-0.7,0.9-1.4,0.9c-6.4-0.2-12.8-0.5-19.3-0.7
			c-0.5,0-0.9-0.1-0.9-0.7c0-0.6,0.1-1.2,0.9-1.3c0.8-0.1,1.6-0.1,2.5-0.2c3.1-0.4,4-1.2,4.4-4.7c1.2-11.1,2.2-22.1,3.3-33.2
			c0.1-1.3,0.9-3,0.1-3.9c-0.8-0.9-2.5-0.7-3.8-0.9c-1-0.1-2.1-0.5-3.1-0.5c-4.3-0.1-6,1.1-7.8,5.2c-0.4,0.8-0.3,2.5-2.1,2
			c-0.6-0.2-1-0.4-0.9-1.2c0.6-3.2,1.1-6.5,1.6-9.8c0.2-1.4,0.9-1.6,2-1.3c8.6,1.9,17.2,3.7,25.8,5.6c3,0.6,5.9,1.3,8.9,1.8
			c0.9,0.2,1,0.5,1,1.3c0,1.5,0,2.9,0,4.4C458.4,48.7,458.4,48.7,458.3,48.7z"/>
		<path class="st4" d="M26.6,66.6c0.1-11.9,4.2-19.6,13.3-24.3c5.2-2.7,10.8-3.1,16.5-2.2c1.1,0.2,2.2,0.4,3.3,0.5
			c1.4,0.1,2.6-0.1,3.4-1.3c0.4-0.7,1-0.8,1.6-0.7c0.7,0.1,0.7,0.8,0.7,1.3c0.4,3.7,0.8,7.4,1.2,11.1c0.1,0.7,0.5,1.6-0.7,1.8
			c-1.1,0.2-1.4-0.5-1.8-1.3c-2.2-5-5.7-8.3-11.3-8.9c-6.4-0.7-12.6,2.5-15.5,8.4c-3.3,6.8-4.1,13.9-1.4,21.2
			c2.4,6.6,8.4,10.4,15.3,10.3c6-0.1,10.9-2.5,15.1-6.6c0.9-0.8,1.5-1.2,2.4-0.1c0.5,0.6,0.6,1,0.1,1.7C62.5,84.5,54.6,87.5,45,86
			C39.6,85.2,35,83,31.4,78.6C28.1,74.6,26.6,69.9,26.6,66.6z"/>
		<path class="st1" d="M164.2,52.7c0-0.1-0.2-0.2-0.1-0.3c0.1-0.2,0.3-0.1,0.4,0C164.4,52.6,164.3,52.6,164.2,52.7z"/>
		<path class="st1" d="M130.8,58.8c0,6.5-0.7,12.2-3,17.6c-2.9,6.8-9.9,10.5-16.8,8.1c-4.2-1.5-7.3-4.3-8.8-8.4
			c-3.5-9.4-3.1-18.9,1.3-27.9c2.6-5.5,8.2-8.3,13.9-7.7c5.5,0.6,10.5,5,12.3,10.8C130.4,54,130.9,56.7,130.8,58.8z"/>
		<path class="st1" d="M308.1,48c1.2,5.4,2.4,10.7,3.6,16c0.6,2.7,0.5,2.7-2.2,2.4c-3.6-0.4-7.2-0.9-10.8-1.4
			c-0.8-0.1-1-0.3-0.6-1.1c3.2-5.2,6.4-10.4,9.6-15.6C307.7,48.3,307.9,48.2,308.1,48z"/>
	</g>
</g>
</svg>
