<svg id="Layer_1" data-name="Layer 1" xmlns="http://www.w3.org/2000/svg" viewBox="0 0 1707.04 446.12"><defs><style>.cls-1{fill:#030202;}.cls-2{fill:#fefefe;}.cls-3{fill:#fe0101;}</style></defs><path class="cls-1" d="M803.17,91.34c11.14-1.27,21.85-2.46,32.56-3.71q66.51-7.77,133-15.57c22.5-2.64,45-5.25,67.49-8a46.15,46.15,0,0,0,9.13-2.44Q1133.5,31.4,1221.6,1c3.83-1.33,5.27-1.35,5.87,3.31,2,15,4.53,30,6.67,45,.51,3.56,1.48,4.74,5.53,4.34,40.44-4,80.92-7.78,121.38-11.59,14.93-1.41,30.2-1.3,44.67-4.66,11.16-2.59,22.09-.39,33.06-2.42,11.26-2.09,22.83-2.47,34.28-3.57q16.9-1.62,33.83-3.2L1541.22,25c4.65-.43,9.35-.53,13.92-1.37,3.94-.73,4,.82,3.5,3.89-1.44,8.37-2.51,16.81-4.07,25.15-.59,3.14-.16,4.2,3.26,4.71,29.65,4.42,59.26,9.07,88.89,13.65,18.76,2.9,37.51,5.89,56.29,8.64,3.14.46,4,1.2,3.5,4.58q-22.48,139.32-44.7,278.67c-.54,3.33-1,4.95-5.42,4.37-46.89-6.21-93.82-12.1-140.75-18.08l-.49-.06c-6.79-.86-6.84-.87-7.9,5.9-4.52,29-9.08,57.91-13.45,86.89-.61,4.06-1.27,5.37-5.91,3.75q-125.48-43.84-251.06-87.31a33.71,33.71,0,0,0-11.25-1.91q-91.49-.06-183-.29c-4.39,0-5.55,1-5.55,5.47,0,26.49-.4,53-.42,79.47,0,4.41-1.13,4.69-5,3.45Q895,400.42,758.25,356.39c-5.16-1.67-10.19,0-15.44-1-76.24-14.48-152.57-28.5-228.84-42.81-3.81-.72-4.84.14-5.48,3.69-1.28,7-3.26,13.95-4.54,21-.7,3.87-1.8,5-6.06,4-65.68-15.36-131.41-30.46-197.09-45.79-4.58-1.06-5.56-.38-5.27,4.41.83,13.64,1,27.31,1.6,41,.14,3.06-.81,3.88-3.79,4.16Q185.61,355,77.9,365.17c-24.55,2.31-49.1,4.56-73.63,7.06-3.71.38-4.75-.1-4.64-4.16Q3.55,213.17,7.1,58.27c.08-3.5.91-4.46,4.46-4.14Q81,60.51,150.43,66.64q52,4.65,104,9.33c2.93.26,4.2-.07,3.8-3.52-.68-6-.67-12-1.31-17.93-.38-3.51.65-4.43,4.18-4.49,29.49-.47,59-1.18,88.47-1.78,54-1.1,108-1.7,161.94-3.37,64.61-2,129.2-4.93,193.81-7.46,35-1.37,69.93-2.71,104.89-4.23,3.61-.15,4,.84,3.39,4.09C810.08,55.06,806.72,72.88,803.17,91.34Zm627.59-14.77q-100.86,4.8-201.71,9.51c-4.13.19-6.61.59-6.9,5.71-.76,13.29-2.11,26.56-3.27,39.83-.9,10.33-1.87,20.66-2.8,31a106.58,106.58,0,0,1-3.42-16.24c-4.86-30.85-9.83-61.69-14.55-92.56-1.8-11.83-1.55-11.87-12.71-8.4q-83.14,25.86-166.25,51.81c-4.09,1.29-5.12.48-4.38-3.48a13.27,13.27,0,0,0,.09-2c.26-7.26.27-7.09-7-6.35q-33.54,3.42-67.1,6.59c-26,2.47-52,4.84-78,7.29-27.31,2.58-54.62,5.25-81.94,7.77-3.55.33-5.38,1.33-6.22,5.33q-22.12,105.07-44.74,210.06c-.85,3.95.09,4.94,3.69,6Q867.26,366.52,1001,405c4,1.15,4.94.5,5-3.66.4-21.15,1.18-42.29,1.62-63.44.08-3.68.91-5,4.94-5,17.5-.16,35-.71,52.47-1.2q82.71-2.28,165.4-4.63a22.85,22.85,0,0,1,7.35,1q89.87,27.24,179.75,54.42l34.37,10.37c.77-5,1.46-9.45,2.11-13.89q4.49-30.33,8.93-60.67c13.37,1.66,26.75,3.24,40.1,5q67,8.73,134.1,17.59c2.64.35,3.64-.09,4.08-3.07,2.41-16.25,5.17-32.45,7.72-48.68,4.85-30.82,9.6-61.65,14.45-92.47q7.17-45.49,14.5-90.95c.49-3-.6-4.19-3.54-4.52-4.46-.49-8.88-1.32-13.33-2C1604.7,91,1548.56,81.83,1492.24,73.83q-26.88-3.83-53.68-8.43c-6-1-6-1-6.82,5.26C1431.48,72.64,1431.09,74.6,1430.76,76.57ZM508.24,203.05l1.46.09c.14,1.56.32,3.12.41,4.68q2.19,40.41,4.31,80.84c.15,3,.83,4.79,4.28,5.33q24.82,3.84,49.57,8.1,77.81,13.25,155.59,26.63c2.57.44,3.8.22,4.29-2.9q7.4-47.49,15.13-94.92c8.29-51.32,16.5-102.65,25.09-153.93.9-5.34-.27-5.83-5-5.8-79.6.54-159.16,3.33-238.78,2.42-81.15-.93-162.31-.58-243.47-1-4.34,0-5.49.8-5.24,5.37q5.24,96.3,10.07,192.64c.39,7.7.35,7.69,7.42,9.22q93.95,20.31,187.87,40.74c3.72.82,4.16-1,4.65-3.47q8.13-41.52,16.25-83Q505.14,218.57,508.24,203.05Zm-479.84.12C27.46,255.05,26.72,298,25.82,341c-.07,3.73.47,5.23,4.77,4.86C63.76,343,97,340.4,130.15,337.71q71.94-5.83,143.87-11.64c3.21-.25,4.27-1.08,4.13-4.35-.51-11.14-.76-22.3-1.09-33.45-.73-24.63-1.4-49.26-2.19-73.88-1.22-37.94-2.61-75.87-3.67-113.81-.11-4-1.46-5.07-5-5.32-18.76-1.33-37.51-2.79-56.27-4.19q-36.1-2.68-72.21-5.36c-34-2.58-68.05-5.14-102.07-7.87-3.72-.3-4.82.51-4.88,4.38C30,125.51,29.1,168.8,28.4,203.17Z" transform="translate(0.38 -0.25)"/><path class="cls-2" d="M1462.91,318.22q-4.46,30.33-8.93,60.67c-.65,4.44-1.34,8.86-2.11,13.89l-34.37-10.37q-89.88-27.2-179.75-54.42a22.85,22.85,0,0,0-7.35-1q-82.7,2.36-165.4,4.63c-17.49.49-35,1-52.47,1.2-4,0-4.86,1.34-4.94,5-.44,21.15-1.22,42.29-1.62,63.44-.08,4.16-1,4.81-5,3.66Q867.27,366.5,733.48,328.39c-3.6-1-4.54-2-3.69-6q22.61-105,44.74-210.06c.84-4,2.67-5,6.22-5.33,27.32-2.52,54.63-5.19,81.94-7.77,26-2.45,52-4.82,78-7.29q33.57-3.2,67.1-6.59c7.31-.74,7.3-.91,7,6.35a13.27,13.27,0,0,1-.09,2c-.74,4,.29,4.77,4.38,3.48q83.07-26.06,166.25-51.81c11.16-3.47,10.91-3.43,12.71,8.4,4.72,30.87,9.69,61.71,14.55,92.56a106.58,106.58,0,0,0,3.42,16.24c.93-10.33,1.9-20.66,2.8-31,1.16-13.27,2.51-26.54,3.27-39.83.29-5.12,2.77-5.52,6.9-5.71q100.86-4.64,201.71-9.51c-2.29,18.83-4.53,37.65-6.87,56.47q-10.71,85.92-21.62,171.82c-.57,4.49.57,5.6,4.74,6.1C1425.66,313.22,1444.28,315.77,1462.91,318.22ZM1290.11,126c-6.32,0-18-.06-29.64.07-2,0-4.91-1.54-5.4,2.4s2.61,3.08,4.59,3.48c9.3,1.9,12.15,5.21,12.19,14.62,0,9.68-1.53,19.23-2.44,28.83q-3.09,32.79-6.5,65.55c-1.12,10.92-1.57,21.92-3.94,32.68-1.48,6.77-4,9-11,9.21a22.42,22.42,0,0,1-4.49-.19c-1.73-.29-2.81-.14-3.23,1.91-.48,2.32.78,2.93,2.57,3.36L1299,301.4c1,.24,2.43,1.27,2.84-.53.35-1.5,1.08-3.44-.92-4.44-1.48-.74-3.15-1.08-4.68-1.72-11.36-4.68-14.33-9.83-12.92-22.14.6-5.29,1.06-10.59,1.61-15.89,1.11-10.75,2.17-21.51,3.42-32.26.17-1.41-.46-3.47,1.8-4.17,4.16-1.28,11.81,1.77,13.91,5.53q23.69,42.54,47.33,85.1a8.87,8.87,0,0,0,6.28,4.9c13.13,3,26.21,6.26,39.33,9.32,1.44.34,3.49,2.33,4.39-.86.76-2.7.08-4.31-2.8-5.28a35.65,35.65,0,0,1-19.45-15.6c-16-26.14-31.82-52.36-47.78-78.51-1.57-2.56-1.11-3.39,1.88-3.51a74.32,74.32,0,0,0,24.29-5.19c26.71-10.43,37.29-46.9,19.75-69.21-9.67-12.3-23.66-16.69-38.45-18.93C1324.47,125.84,1309.92,126.94,1290.11,126ZM1009.79,145.9c9-.05,10.9,1.52,13.67,8.91a72.4,72.4,0,0,1,3.06,13.08c5.89,33.37,11.92,66.73,17.5,100.16,2.42,14.49.28,16.57-12.23,19.47-1.52.35-3,.69-2.67,2.82s1.33,2.92,3.4,2.56c.65-.11,1.32-.1,2-.15q56.81-4.29,113.6-8.59c11-.82,11-.75,12.31-11.69,1.24-10.39,2.35-20.79,3.67-31.16.42-3.33-.3-4.31-3.93-3.82s-5,1.75-6.11,5.09c-3.9,11.71-8.81,22.94-21.44,27.91-18,7.08-37,7.4-56,8-5.19.16-7.45-3.07-8.25-7.62-3.23-18.38-6.34-36.77-9.65-55.12-.47-2.61.08-3.61,2.66-4,14-2.12,27.87-5.16,42-6.16,6.75-.48,12.51,1.66,15.77,8.19,1.7,3.41,3.53,6.79,4.93,10.32,1.2,3,3.38,2,5.42,1.85s2.69-1.48,2.35-3.49q-4.59-27.34-9.12-54.7c-.38-2.31-1.39-2.66-3.73-2.54-4.65.23-4.1,3.47-4.27,6.31-.57,9.89-2.08,19.13-13.87,21.94-13.94,3.32-28.15,5.25-42.22,7.93-2.15.41-2.5-.79-2.79-2.45-3-17.4-6-34.78-9-52.19-.66-3.84.86-6.35,4.9-7.31,15.24-3.62,30.37-7.73,45.68-10.94,14.46-3,21.2.94,27.24,14.55a35.78,35.78,0,0,1,1.52,3.69c1,3.31,3.45,2.35,5.73,1.93,2.68-.48,2.81-2.1,2.37-4.42-2-10.46-4-20.93-5.7-31.44-.59-3.6-1.92-3.89-5.26-3-28.76,7.72-57.58,15.21-86.38,22.78-10.45,2.74-20.88,5.57-31.35,8.22-2,.5-3,1.16-2.59,3.32s1.7,2.53,3.67,2.09A17,17,0,0,1,1009.79,145.9ZM856.27,135.1V135c-15.14.7-30.28,1.42-45.43,2.07-2.22.09-4.64-.24-4.59,2.94,0,3,2.62,1.85,4.15,2,8.81.92,11,3.32,10.67,12.09a30.91,30.91,0,0,1-.28,4c-6.55,38.09-13,76.2-19.76,114.25-2.16,12.13-5.68,14.64-18,14.58-2.45,0-4.12.13-4.51,3.07-.48,3.57,2.42,2.63,4,2.95,22.14,4.68,44.31,9.23,66.47,13.79l64.11,13.17c2.23.46,4.26,1.3,5.52-2.08,5.85-15.74,12-31.36,18-47,.39-1,1.06-2.14-.29-3.11-2.19-1.58-7.63-.67-9.28,1.59-3.14,4.3-6,8.79-9.49,12.83-6.7,7.86-14.25,14.76-25.2,15.64-21.05,1.68-41.44-2.43-61.67-7.54-4.36-1.1-6.21-4.2-6-8.56a52.15,52.15,0,0,1,.55-6q9-58.16,18-116.31c2.16-13.91,6-17.46,20.38-19.42.66-.09,1.31-.23,2-.3,2.31-.25,2.52-2,2.35-3.68-.21-2.11-2-1.24-3.15-1.21C861.92,134.75,859.1,135,856.27,135.1Z" transform="translate(0.38 -0.25)"/><path class="cls-2" d="M508.24,203.05q-3.08,15.52-6.15,31.06-8.13,41.52-16.25,83c-.49,2.51-.93,4.29-4.65,3.47q-93.9-20.53-187.87-40.74c-7.07-1.53-7-1.52-7.42-9.22q-5-96.33-10.07-192.64c-.25-4.57.9-5.39,5.24-5.37,81.16.37,162.32,0,243.47,1,79.62.91,159.18-1.88,238.78-2.42,4.78,0,5.95.46,5,5.8-8.59,51.28-16.8,102.61-25.09,153.93q-7.66,47.44-15.13,94.92c-.49,3.12-1.72,3.34-4.29,2.9q-77.77-13.37-155.59-26.63-24.75-4.21-49.57-8.1c-3.45-.54-4.13-2.29-4.28-5.33q-2.05-40.43-4.31-80.84c-.09-1.56-.27-3.12-.41-4.68ZM403.15,265.86c-.67-.05-1.33-.15-2-.14-1.6,0-3.91-1.63-4.36,1.43-.48,3.27,2.24,2.58,4,2.91q24.74,4.63,49.49,9.22c1.43.27,3.33,1.85,4.19-.67.94-2.74-1.12-3.34-3.15-4a17.6,17.6,0,0,1-11.42-11.07c-1.43-3.73-2.9-7.45-4.19-11.23Q412.83,185.26,390,118.15c-.65-1.9-1.05-3.65-3.77-3.83s-3.83,1.23-4.78,3.37c-3.77,8.53-7.54,17.05-11.45,25.51-14.81,32-28.49,64.58-44,96.28-2.67,5.45-5.91,10.15-12.85,10.24-1.07,0-2,.18-2,1.55a2.18,2.18,0,0,0,1.8,2.58c1.29.28,2.62.41,3.92.65,9.62,1.81,19.24,3.68,28.88,5.39,1,.19,2.83,1.09,3.29-.95.38-1.73-.36-2.9-2.27-3.13a10,10,0,0,1-1.94-.46c-8.37-2.77-10.53-7.15-7.23-15.25,2.62-6.48,5.6-12.8,8.25-19.27.84-2,1.8-2.74,4.09-2.4,16.48,2.5,33,4.86,49.47,7.22,1.76.25,3.14.63,3.76,2.61,2.85,9,6.78,17.74,8.81,27C413.83,264.24,412,266.26,403.15,265.86Zm181-147.29v-1.33c-10,0-20,0-30,0-1.77,0-4.26-1-4.46,2.3-.19,3,1.59,3.28,4,3.64,6.73,1,13.37,2.56,15,10.68a50,50,0,0,1,1.21,9.87q.12,52,0,104c0,11.79-2.42,14.1-13.94,14.43-.17,0-.33,0-.5,0-1.57,0-3.55-.71-3.59,2,0,2.44,1.9,2.42,3.48,2.66,7.23,1.07,14.48,2.07,21.72,3.09,29.63,4.21,59.27,8.36,88.88,12.68,2.92.43,4.45.08,5.67-2.92,3.95-9.7,8.32-19.24,12.36-28.91.61-1.46,3.24-3.57.42-4.8-2.31-1-5.36-2.09-7.43,1.44a56.21,56.21,0,0,1-5.78,7.51c-6.84,8.08-15,13.61-26.12,13.5-4.63-.05-9.27-.11-13.89-.32-10.34-.46-20.54-2.13-30.7-3.87-6.73-1.15-8.4-3.27-8.28-9.2.76-37.64,1.49-75.29,2.53-112.93.33-12.06,5.21-16.52,17.34-17.43a16.05,16.05,0,0,1,2.5,0c2.52.17,3.57-.93,3.66-3.49.1-3-1.92-2.62-3.69-2.62C604.47,118.55,594.31,118.57,584.15,118.57Z" transform="translate(0.38 -0.25)"/><path class="cls-3" d="M1462.91,318.22c-18.63-2.45-37.25-5-55.9-7.26-4.17-.5-5.31-1.61-4.74-6.1q11-85.87,21.62-171.82c2.34-18.82,4.58-37.64,6.87-56.47.33-2,.72-3.93,1-5.91.8-6.29.78-6.3,6.82-5.26q26.78,4.62,53.68,8.43c56.32,8,112.46,17.17,168.75,25.31,4.45.64,8.87,1.47,13.33,2,2.94.33,4,1.48,3.54,4.52q-7.32,45.47-14.5,90.95c-4.85,30.82-9.6,61.65-14.45,92.47-2.55,16.23-5.31,32.43-7.72,48.68-.44,3-1.44,3.42-4.08,3.07q-67-8.87-134.1-17.59C1489.66,321.46,1476.28,319.88,1462.91,318.22ZM1501,274.94a20.35,20.35,0,0,0-3.23-.31c-2,.09-4.56-1.1-5,2.34-.51,3.73,2.36,2.88,4.26,3.15q20.77,2.89,41.56,5.69c8.41,1.13,16.84,2.15,25.25,3.28,1.88.25,3.3.08,3.61-2.19.27-1.93-.75-2.76-2.41-3.13-1-.22-2-.43-2.93-.61-14.76-2.7-17.88-6.85-16.37-21.75,0-.49.12-1,.19-1.48,2-14.35,4.15-28.68,6.1-43a11.12,11.12,0,0,1,3.06-6.08c9.16-10.34,18.15-20.84,27.39-31.11,9.67-10.75,18.54-22.31,30-31.29,5.31-4.14,11-7.68,18.07-7.41,2.38.09,3.24-.83,3.51-3.06.35-2.9-1.63-2.7-3.43-3-8.4-1.24-16.8-2.52-25.2-3.76-7.24-1.08-14.49-2.11-21.74-3.2-1.84-.27-3.3-.16-3.69,2.13s.65,3.42,2.87,3.68c1.16.14,2.32.3,3.45.54,9.8,2.11,12.05,7.9,5.6,15.63-13.44,16.1-27.19,31.95-40.73,48-1.75,2.07-2.69,2.51-4-.34-9.08-19.27-18.43-38.42-27.35-57.77-4.55-9.88-.88-14.76,9.79-13.89.83.06,1.66.11,2.49.22,2.14.27,4.45,1,4.83-2.39s-2.42-3-4.32-3.36c-6.24-1-12.52-1.86-18.78-2.79q-21.48-3.18-43-6.34c-1.68-.25-3.83-1.12-4.14,1.89-.17,1.71-.46,3.27,1.92,3.84,7.49,1.82,12.3,7,16,13.34,15.18,25.88,27.3,53.33,41,80a6,6,0,0,1,.75,3.33c-2.44,16-3.52,32.15-7.19,47.88C1516.42,273.29,1513.29,275.15,1501,274.94Z" transform="translate(0.38 -0.25)"/><path class="cls-3" d="M28.4,203.17c.7-34.37,1.64-77.66,2.39-120.95.06-3.87,1.16-4.68,4.88-4.38,34,2.73,68.05,5.29,102.07,7.87q36.1,2.73,72.21,5.36c18.76,1.4,37.51,2.86,56.27,4.19,3.52.25,4.87,1.34,5,5.32,1.06,37.94,2.45,75.87,3.67,113.81.79,24.62,1.46,49.25,2.19,73.88.33,11.15.58,22.31,1.09,33.45.14,3.27-.92,4.1-4.13,4.35q-71.94,5.69-143.87,11.64C97,340.4,63.76,343,30.59,345.83c-4.3.37-4.84-1.13-4.77-4.86C26.72,298,27.46,255.05,28.4,203.17ZM211,200v-.21c-8.5,0-17,0-25.49,0-1.82,0-4.23-.81-4.39,2.48-.13,2.92,1.92,3.1,3.93,3.38,1.65.22,3.33.2,5,.54,8.58,1.75,10.53,3.62,11.67,12.43,2,15.58,1,31.27,1.3,46.92.06,3.56-1.84,6.22-5.19,7.89C165,290,126.69,279.8,112,242.87c-9-22.64-7.58-46-1.64-69.05,5.62-21.82,25.08-38.36,46.43-40.53,24.17-2.46,42.39,7.57,53.87,29.71,1.77,3.39,3.36,6.88,4.95,10.36,1.11,2.42,3.22,2.18,5.15,1.91,2.3-.33,1.39-2.33,1.33-3.64q-1-21.21-2.19-42.41c-.08-1.38.3-3.27-1.88-3.5-1.58-.18-3.66-1-4.59.78-3.89,7.66-9.79,5.81-15.88,3.69-13.27-4.63-26.78-8-41-8s-27.9,2.54-40.33,9.66C80.8,152.19,67.71,190.35,75.38,228.4c6.06,30,25.13,49.59,53.59,59.35,32.7,11.21,63.61,4.13,93.08-12,3.58-1.95,5.14-4.9,4.7-9.08-.37-3.47-.32-7-.38-10.49-.21-12.16-.52-24.32-.53-36.48,0-9.19,2.78-12.37,11.42-13.9,1.83-.33,3.73-.44,3.62-3.11S239,200,237,200Z" transform="translate(0.38 -0.25)"/><path class="cls-1" d="M1290.11,126c19.81,1,34.36-.14,48.76,2,14.79,2.24,28.78,6.63,38.45,18.93,17.54,22.31,7,58.78-19.75,69.21a74.32,74.32,0,0,1-24.29,5.19c-3,.12-3.45.95-1.88,3.51,16,26.15,31.81,52.37,47.78,78.51a35.65,35.65,0,0,0,19.45,15.6c2.88,1,3.56,2.58,2.8,5.28-.9,3.19-3,1.2-4.39.86-13.12-3.06-26.2-6.31-39.33-9.32a8.87,8.87,0,0,1-6.28-4.9q-23.55-42.61-47.33-85.1c-2.1-3.76-9.75-6.81-13.91-5.53-2.26.7-1.63,2.76-1.8,4.17-1.25,10.75-2.31,21.51-3.42,32.26-.55,5.3-1,10.6-1.61,15.89-1.41,12.31,1.56,17.46,12.92,22.14,1.53.64,3.2,1,4.68,1.72,2,1,1.27,2.94.92,4.44-.41,1.8-1.82.77-2.84.53l-56.17-13.5c-1.79-.43-3-1-2.57-3.36.42-2.05,1.5-2.2,3.23-1.91a22.42,22.42,0,0,0,4.49.19c6.9-.25,9.47-2.44,11-9.21,2.37-10.76,2.82-21.76,3.94-32.68q3.38-32.76,6.5-65.55c.91-9.6,2.47-19.15,2.44-28.83,0-9.41-2.89-12.72-12.19-14.62-2-.4-5.09.51-4.59-3.48s3.44-2.38,5.4-2.4C1272.13,125.92,1283.79,126,1290.11,126Zm14.54,85c4.36-.24,9-.4,13.66-.76,19.68-1.53,31.74-12.82,34.68-32.39,3.14-20.9-6.86-35-27.64-39a80.38,80.38,0,0,0-19.4-1.2c-7.26.38-8.42,1.18-9.26,8.32-1.93,16.52-3.6,33.07-5.34,49.61-.49,4.63-2.84,10.73-.77,13.53C1293.05,212.43,1299.62,210.1,1304.65,211Z" transform="translate(0.38 -0.25)"/><path class="cls-1" d="M1009.79,145.9a17,17,0,0,0-3.13.3c-2,.44-3.25.09-3.67-2.09s.63-2.82,2.59-3.32c10.47-2.65,20.9-5.48,31.35-8.22,28.8-7.57,57.62-15.06,86.38-22.78,3.34-.9,4.67-.61,5.26,3,1.74,10.51,3.7,21,5.7,31.44.44,2.32.31,3.94-2.37,4.42-2.28.42-4.68,1.38-5.73-1.93a35.78,35.78,0,0,0-1.52-3.69c-6-13.61-12.78-17.58-27.24-14.55-15.31,3.21-30.44,7.32-45.68,10.94-4,1-5.56,3.47-4.9,7.31,3,17.41,6,34.79,9,52.19.29,1.66.64,2.86,2.79,2.45,14.07-2.68,28.28-4.61,42.22-7.93,11.79-2.81,13.3-12.05,13.87-21.94.17-2.84-.38-6.08,4.27-6.31,2.34-.12,3.35.23,3.73,2.54q4.51,27.36,9.12,54.7c.34,2-.19,3.3-2.35,3.49s-4.22,1.18-5.42-1.85c-1.4-3.53-3.23-6.91-4.93-10.32-3.26-6.53-9-8.67-15.77-8.19-14.14,1-28,4-42,6.16-2.58.39-3.13,1.39-2.66,4,3.31,18.35,6.42,36.74,9.65,55.12.8,4.55,3.06,7.78,8.25,7.62,19-.56,38-.88,56-8,12.63-5,17.54-16.2,21.44-27.91,1.12-3.34,2.63-4.63,6.11-5.09s4.35.49,3.93,3.82c-1.32,10.37-2.43,20.77-3.67,31.16-1.31,10.94-1.34,10.87-12.31,11.69q-56.8,4.26-113.6,8.59c-.67.05-1.34,0-2,.15-2.07.36-3.11-.52-3.4-2.56s1.15-2.47,2.67-2.82c12.51-2.9,14.65-5,12.23-19.47-5.58-33.43-11.61-66.79-17.5-100.16a72.4,72.4,0,0,0-3.06-13.08C1020.69,147.42,1018.79,145.85,1009.79,145.9Z" transform="translate(0.38 -0.25)"/><path class="cls-1" d="M856.27,135.1c2.83-.15,5.65-.35,8.48-.42,1.18,0,2.94-.9,3.15,1.21.17,1.68,0,3.43-2.35,3.68-.67.07-1.32.21-2,.3-14.39,2-18.22,5.51-20.38,19.42q-9.06,58.16-18,116.31a52.15,52.15,0,0,0-.55,6c-.17,4.36,1.68,7.46,6,8.56,20.23,5.11,40.62,9.22,61.67,7.54,10.95-.88,18.5-7.78,25.2-15.64,3.44-4,6.35-8.53,9.49-12.83,1.65-2.26,7.09-3.17,9.28-1.59,1.35,1,.68,2.09.29,3.11-6,15.68-12.19,31.3-18,47-1.26,3.38-3.29,2.54-5.52,2.08L849,306.67c-22.16-4.56-44.33-9.11-66.47-13.79-1.53-.32-4.43.62-4-2.95.39-2.94,2.06-3.09,4.51-3.07,12.3.06,15.82-2.45,18-14.58,6.77-38,13.21-76.16,19.76-114.25a30.91,30.91,0,0,0,.28-4c.32-8.77-1.86-11.17-10.67-12.09-1.53-.16-4.1,1-4.15-2,0-3.18,2.37-2.85,4.59-2.94,15.15-.65,30.29-1.37,45.43-2.07Z" transform="translate(0.38 -0.25)"/><path class="cls-1" d="M403.15,265.86c8.89.4,10.68-1.62,8.74-10.57-2-9.29-6-18-8.81-27-.62-2-2-2.36-3.76-2.61-16.5-2.36-33-4.72-49.47-7.22-2.29-.34-3.25.37-4.09,2.4-2.65,6.47-5.63,12.79-8.25,19.27-3.3,8.1-1.14,12.48,7.23,15.25a10,10,0,0,0,1.94.46c1.91.23,2.65,1.4,2.27,3.13-.46,2-2.24,1.14-3.29.95-9.64-1.71-19.26-3.58-28.88-5.39-1.3-.24-2.63-.37-3.92-.65a2.18,2.18,0,0,1-1.8-2.58c.08-1.37,1-1.54,2-1.55,6.94-.09,10.18-4.79,12.85-10.24,15.54-31.7,29.22-64.24,44-96.28,3.91-8.46,7.68-17,11.45-25.51.95-2.14,2-3.54,4.78-3.37s3.12,1.93,3.77,3.83q22.88,67.1,45.77,134.17c1.29,3.78,2.76,7.5,4.19,11.23a17.6,17.6,0,0,0,11.42,11.07c2,.65,4.09,1.25,3.15,4-.86,2.52-2.76.94-4.19.67q-24.76-4.56-49.49-9.22c-1.8-.33-4.52.36-4-2.91.45-3.06,2.76-1.41,4.36-1.43C401.82,265.71,402.48,265.81,403.15,265.86ZM377.64,151.58c-8.88,19.35-17.1,37.3-25.35,55.23-1,2.17.27,2.59,1.95,2.82,14,1.87,28,3.72,42,5.63,2.54.35,2.91-.51,2.09-2.72-1.17-3.11-2.16-6.28-3.23-9.43C389.47,186.46,383.82,169.81,377.64,151.58Z" transform="translate(0.38 -0.25)"/><path class="cls-1" d="M584.15,118.57c10.16,0,20.32,0,30.48,0,1.77,0,3.79-.4,3.69,2.62-.09,2.56-1.14,3.66-3.66,3.49a16.05,16.05,0,0,0-2.5,0c-12.13.91-17,5.37-17.34,17.43-1,37.64-1.77,75.29-2.53,112.93-.12,5.93,1.55,8.05,8.28,9.2,10.16,1.74,20.36,3.41,30.7,3.87,4.62.21,9.26.27,13.89.32,11.08.11,19.28-5.42,26.12-13.5a56.21,56.21,0,0,0,5.78-7.51c2.07-3.53,5.12-2.43,7.43-1.44,2.82,1.23.19,3.34-.42,4.8-4,9.67-8.41,19.21-12.36,28.91-1.22,3-2.75,3.35-5.67,2.92-29.61-4.32-59.25-8.47-88.88-12.68-7.24-1-14.49-2-21.72-3.09-1.58-.24-3.5-.22-3.48-2.66,0-2.75,2-2,3.59-2,.17,0,.33,0,.5,0,11.52-.33,13.91-2.64,13.94-14.43q.13-52,0-104a50,50,0,0,0-1.21-9.87c-1.67-8.12-8.31-9.68-15-10.68-2.45-.36-4.23-.61-4-3.64.2-3.35,2.69-2.29,4.46-2.3,10-.07,20,0,30,0Z" transform="translate(0.38 -0.25)"/><path class="cls-2" d="M1501,274.94c12.29.21,15.42-1.65,18.16-13.38,3.67-15.73,4.75-31.92,7.19-47.88a6,6,0,0,0-.75-3.33c-13.67-26.65-25.79-54.1-41-80-3.71-6.33-8.52-11.52-16-13.34-2.38-.57-2.09-2.13-1.92-3.84.31-3,2.46-2.14,4.14-1.89q21.5,3.12,43,6.34c6.26.93,12.54,1.76,18.78,2.79,1.9.32,4.71-.21,4.32,3.36s-2.69,2.66-4.83,2.39c-.83-.11-1.66-.16-2.49-.22-10.67-.87-14.34,4-9.79,13.89,8.92,19.35,18.27,38.5,27.35,57.77,1.35,2.85,2.29,2.41,4,.34,13.54-16,27.29-31.86,40.73-48,6.45-7.73,4.2-13.52-5.6-15.63-1.13-.24-2.29-.4-3.45-.54-2.22-.26-3.26-1.33-2.87-3.68s1.85-2.4,3.69-2.13c7.25,1.09,14.5,2.12,21.74,3.2,8.4,1.24,16.8,2.52,25.2,3.76,1.8.27,3.78.07,3.43,3-.27,2.23-1.13,3.15-3.51,3.06-7.1-.27-12.76,3.27-18.07,7.41-11.51,9-20.38,20.54-30,31.29-9.24,10.27-18.23,20.77-27.39,31.11a11.12,11.12,0,0,0-3.06,6.08c-2,14.35-4,28.68-6.1,43-.07.49-.14,1-.19,1.48-1.51,14.9,1.61,19,16.37,21.75,1,.18,2,.39,2.93.61,1.66.37,2.68,1.2,2.41,3.13-.31,2.27-1.73,2.44-3.61,2.19-8.41-1.13-16.84-2.15-25.25-3.28q-20.79-2.79-41.56-5.69c-1.9-.27-4.77.58-4.26-3.15.48-3.44,3.08-2.25,5-2.34A20.35,20.35,0,0,1,1501,274.94Z" transform="translate(0.38 -0.25)"/><path class="cls-2" d="M211,200h26c1.92,0,3.74,0,3.85,2.67s-1.79,2.78-3.62,3.11c-8.64,1.53-11.43,4.71-11.42,13.9,0,12.16.32,24.32.53,36.48.06,3.5,0,7,.38,10.49.44,4.18-1.12,7.13-4.7,9.08-29.47,16.12-60.38,23.2-93.08,12C100.51,278,81.44,258.42,75.38,228.4c-7.67-38.05,5.42-76.21,40.89-96.52,12.43-7.12,26.13-9.6,40.33-9.66s27.7,3.34,41,8c6.09,2.12,12,4,15.88-3.69.93-1.83,3-1,4.59-.78,2.18.23,1.8,2.12,1.88,3.5q1.17,21.19,2.19,42.41c.06,1.31,1,3.31-1.33,3.64-1.93.27-4,.51-5.15-1.91-1.59-3.48-3.18-7-4.95-10.36-11.48-22.14-29.7-32.17-53.87-29.71C135.46,135.46,116,152,110.38,173.82c-5.94,23.07-7.35,46.41,1.64,69.05C126.69,279.8,165,290,197.82,273.49c3.35-1.67,5.25-4.33,5.19-7.89-.25-15.65.72-31.34-1.3-46.92-1.14-8.81-3.09-10.68-11.67-12.43-1.63-.34-3.31-.32-5-.54-2-.28-4.06-.46-3.93-3.38.16-3.29,2.57-2.47,4.39-2.48,8.49-.07,17,0,25.49,0Z" transform="translate(0.38 -0.25)"/><path class="cls-2" d="M1304.65,211c-5-.88-11.6,1.45-14.07-1.9-2.07-2.8.28-8.9.77-13.53,1.74-16.54,3.41-33.09,5.34-49.61.84-7.14,2-7.94,9.26-8.32a80.38,80.38,0,0,1,19.4,1.2c20.78,4,30.78,18.11,27.64,39-2.94,19.57-15,30.86-34.68,32.39C1313.67,210.58,1309,210.74,1304.65,211Z" transform="translate(0.38 -0.25)"/><path class="cls-2" d="M377.64,151.58c6.18,18.23,11.83,34.88,17.47,51.53,1.07,3.15,2.06,6.32,3.23,9.43.82,2.21.45,3.07-2.09,2.72-14-1.91-28-3.76-42-5.63-1.68-.23-2.95-.65-1.95-2.82C360.54,188.88,368.76,170.93,377.64,151.58Z" transform="translate(0.38 -0.25)"/></svg>