<?xml version="1.0" encoding="utf-8"?>
<!-- Generator: Adobe Illustrator 24.0.1, SVG Export Plug-In . SVG Version: 6.00 Build 0)  -->
<svg version="1.2" baseProfile="tiny" id="Layer_1" xmlns="http://www.w3.org/2000/svg" xmlns:xlink="http://www.w3.org/1999/xlink"
	 x="0px" y="0px" viewBox="0 0 593.22 166.53" xml:space="preserve">
<g>
	<path fill="#030101" d="M0.23,150.65c0.3-14.48,0.59-28.97,0.91-43.45c0.29-12.65,0.61-25.3,0.94-37.95
		c0.26-10.07,0.59-20.14,0.84-30.2c0.03-1.35,0.2-2.04,1.86-2.14c12.29-0.75,24.57-1.62,36.85-2.46c9.54-0.66,19.08-1.37,28.63-1.95
		c1.71-0.11,1.64-0.77,1.23-2.02c-1.53-4.75-2.95-9.54-4.53-14.28c-0.53-1.59-0.37-2.1,1.48-2.27c21.04-1.89,42.08-3.9,63.11-5.84
		c15.32-1.41,30.66-2.74,45.98-4.15c13.5-1.24,27-2.54,40.49-3.84c1.85-0.18,3.08-0.36,2.65,2.44c-0.73,4.76-0.83,9.61-1.25,14.41
		c-0.13,1.48,0.17,2.04,1.89,1.88c14.16-1.35,28.33-2.59,42.49-3.89c15.49-1.42,30.98-2.88,46.46-4.32
		c3.98-0.37,7.95-0.74,11.93-1.06c2.96-0.24,3.04-0.15,2.67,2.7c-0.34,2.64-0.57,5.31-1.16,7.89c-0.43,1.89,0.08,2.57,1.92,2.74
		c6.96,0.66,13.91,1.37,20.86,2.09c13.82,1.44,27.63,2.91,41.44,4.34c4.3,0.45,8.61,0.88,12.92,1.2c1.97,0.15,2.84,0.63,2.25,2.89
		c-0.67,2.53-0.16,2.91,2.49,2.52c15.68-2.28,31.35-4.59,47.03-6.86c10.17-1.47,20.35-2.87,30.52-4.36c1.09-0.16,1.5,0.21,1.8,1.15
		c0.54,1.75,1.28,3.45,1.71,5.22c0.4,1.64,1.3,2.1,2.87,1.9c5.68-0.74,11.36-1.41,17.04-2.14c8.56-1.1,17.11-2.24,25.68-3.32
		c7.08-0.89,14.19-1.61,21.25-2.64c1.8-0.26,2.28,0.34,2.8,1.77c5.2,14.32,10.46,28.62,15.7,42.92
		c6.81,18.6,13.63,37.21,20.45,55.81c1.27,3.46,1.25,2.98-2.09,3.59c-13.73,2.49-27.45,5.06-41.17,7.6
		c-7.68,1.42-15.34,2.94-23.03,4.23c-2,0.34-2.03,1.12-1.5,2.67c1.74,5.04,3.42,10.09,5.11,15.14c0.91,2.71,0.91,2.7-1.87,2.76
		c-8.57,0.2-17.15,0.39-25.72,0.63c-17.31,0.48-34.62,0.99-51.93,1.49c-17.23,0.5-34.45,1-51.68,1.49c-11.57,0.33-23.14,0.67-34.7,1
		c-0.08,0-0.17,0.01-0.25,0c-2.13-0.11-4.97,1.37-6.19-0.16c-1.11-1.4,0.33-4.1,0.64-6.22c0.65-4.44,1.37-8.88,2.23-13.28
		c0.32-1.64,0-2.38-1.69-2.81c-15.97-4.05-31.94-8.13-47.88-12.32c-1.87-0.49-2.33,0.07-2.52,1.72c-0.3,2.64-0.88,5.26-1.05,7.91
		c-0.13,1.96-0.94,2.32-2.69,2.08c-6.67-0.93-13.36-1.76-20.04-2.65c-13.36-1.77-26.71-3.56-40.06-5.33
		c-13.93-1.85-27.87-3.69-41.81-5.48c-1.15-0.15-1.64-0.6-1.61-1.72c0.05-1.95-0.85-2.57-2.8-2.29c-15.4,2.15-30.8,4.25-46.21,6.34
		c-14.91,2.03-29.83,4.03-44.74,6.03c-0.63,0.09-1.66,0.4-1.84-0.25c-0.64-2.29-2.24-1.21-3.38-1
		c-29.35,5.43-58.69,10.91-88.03,16.39c-3.76,0.7-7.55,1.28-11.26,2.2c-2.27,0.56-2.87-0.11-2.6-2.23c0.09-0.74,0.02-1.5,0.02-2.25
		C0.13,150.65,0.18,150.65,0.23,150.65z"/>
	<path fill="#FDFDFD" d="M87.82,35.32c-0.32-1.37-0.48-2.81-1-4.1c-0.68-1.67,0.06-1.96,1.47-2.1c10.93-1.03,21.87-2.09,32.8-3.15
		c11.1-1.08,22.19-2.18,33.29-3.28c10.93-1.07,21.86-2.15,32.79-3.21c5.71-0.55,11.44-0.99,17.14-1.66
		c1.64-0.19,1.78,0.39,1.65,1.68c-0.19,1.9-0.23,3.83-0.47,5.72c-0.2,1.57,0.3,1.96,1.88,1.83c9.88-0.82,19.76-1.52,29.64-2.28
		c25.41-1.95,50.83-3.89,76.24-5.87c1.47-0.11,2.34-0.17,1.9,1.84c-0.51,2.34-0.58,4.78-0.84,7.18c-0.71,0.82-1.64,0.68-2.55,0.57
		c-2.97-0.35-5.97-0.55-8.92-1.02c-2.16-0.34-2.98,0.43-3.39,2.46c-1.85,9.13-3.75,18.24-5.63,27.36
		c-3.63,17.67-7.25,35.35-10.93,53.02c-0.15,0.73-0.25,1.48-0.44,2.2c-0.46,1.82,0.18,2.78,2.05,3.21c5.18,1.2,10.34,2.52,15.5,3.85
		c1.09,0.28,2.35,0.33,3.01,1.51c-0.64,4.86-1.34,9.71-1.89,14.58c-0.15,1.33-0.53,1.53-1.81,1.36
		c-12.04-1.54-24.08-3.02-36.13-4.48c-11.46-1.39-22.93-2.73-34.4-4.14c-7.42-0.91-14.82-1.92-22.24-2.81
		c-1.23-0.15-1.61-0.59-1.73-1.8c-0.74-7.2-1.57-14.38-2.54-21.58c-0.8,2.49-0.72,5.05-0.8,7.61c-0.07,2.16,0.39,4.73-0.61,6.36
		c-1.03,1.66-3.82,1.02-5.87,1.28c-10.07,1.31-20.15,2.62-30.21,3.98c-11.95,1.62-23.89,3.3-35.84,4.93
		c-4.83,0.66-9.67,1.26-14.51,1.82c-2.01,0.24-0.96-1.92-1.88-2.57c-0.96-0.72-1.04-1.86-1.32-2.88
		C103.44,94.51,95.71,66.24,88,37.98C87.77,37.11,87.34,36.24,87.82,35.32z"/>
	<path fill="#FDFDFD" d="M391.97,45.88c14.2-1.94,28.4-3.91,42.6-5.83c11.67-1.57,23.35-3.06,35.01-4.63
		c1.93-0.26,4.33-1.4,5.66-0.38c1.22,0.93,1.28,3.45,1.71,5.3c0.34,1.47,0.94,1.91,2.55,1.69c8.47-1.18,16.95-2.2,25.43-3.3
		c8.31-1.07,16.62-2.18,24.93-3.26c5.76-0.75,11.54-1.39,17.27-2.28c1.53-0.24,1.95,0.12,2.4,1.5
		c8.74,26.74,17.52,53.47,26.35,80.19c0.55,1.66,0.07,1.97-1.48,2.24c-23.22,4.05-46.42,8.2-69.65,12.21
		c-2.25,0.39-2.7,1.02-1.91,3.11c0.82,2.16,1.19,4.49,1.94,6.68c0.61,1.79,0.12,2.21-1.7,2.29c-19.39,0.82-38.78,1.73-58.17,2.62
		c-22.8,1.04-45.61,2.06-68.4,3.17c-1.98,0.1-2.66-0.19-2.2-2.33c0.44-2.01,0.43-4.12,0.62-6.19c-0.89-2.75,0.06-5.46,0.39-8.13
		c2.57-20.96,5.02-41.94,7.62-62.9c0.73-5.86,1.44-11.72,2.16-17.58C385.61,45.87,387.72,44.56,391.97,45.88z"/>
	<path fill="#FB0E1C" d="M87.82,35.32c2.81,10.07,5.65,20.14,8.42,30.22c5.33,19.38,10.61,38.77,15.91,58.16
		c0.17,0.63,0.26,1.29,0.39,1.94c-33.85,5.99-67.7,11.96-101.53,18.03c-2.38,0.43-2.75-0.14-2.74-2.36
		c0.14-32.55,0.22-65.1,0.22-97.65c0-2.17,0.52-2.67,2.71-2.81c12.44-0.81,24.87-1.9,37.31-2.81
		C61.61,37.09,74.72,36.23,87.82,35.32z"/>
	<path fill="#FB0E1C" d="M391.97,45.88c-5.82,0.61-5.75,0.62-6.49,6.86c-3.36,28.09-6.77,56.17-10.17,84.25
		c-0.07,0.57-0.25,1.13-0.38,1.7c-23.09-5.68-46.17-11.35-69.26-17.03c-0.89-0.22-1.78-0.38-2.67-0.57
		c-6.53-1.63-13.04-3.36-19.6-4.83c-2.02-0.45-2.23-1.27-1.86-3.05c4.77-22.88,9.48-45.78,14.2-68.67
		c1.11-5.38,2.28-10.74,3.26-16.14c0.32-1.75,1.03-2.05,2.66-1.84c4.2,0.55,8.42,0.92,12.63,1.36c6.93,0.84,13.85,1.73,20.78,2.52
		c14.04,1.61,28.09,3.17,42.13,4.76c4.87,0.55,9.74,1.16,14.62,1.66c1.16,0.12,1.55,0.33,1.27,1.64
		C392.59,40.93,392.34,43.42,391.97,45.88z"/>
	<path fill="#070707" d="M253.7,78.74c0,9.16-0.21,18.32,0.08,27.47c0.19,5.9,0.93,6.37,6.69,7.83c0.32,0.08,0.66,0.12,0.98,0.2
		c0.8,0.2,2.05-0.2,1.94,1.29c-0.13,1.78-1.5,0.93-2.29,0.88c-3.9-0.26-7.8-0.63-11.69-1c-4.56-0.44-9.11-0.91-13.66-1.38
		c-0.81-0.08-1.8,0.04-1.67-1.26c0.11-1.15,1.02-0.86,1.72-0.89c6.24-0.31,7.04-0.99,6.96-7.28c-0.22-17.49-0.58-34.97-0.88-52.46
		c-0.02-0.99-0.01-1.84-1.42-1.73c-3.81,0.28-7.63,0.1-11.42,0.95c-4.03,0.9-6.09,3.47-7.08,7.19c-0.45,1.68-0.82,3.4-1.06,5.13
		c-0.16,1.14-0.65,1.61-1.77,1.6c-1.14-0.02-1.31-0.69-1.36-1.64c-0.25-5.4-0.78-10.79-0.74-16.21c0.01-1.5,0.38-1.99,1.93-2.04
		c20.48-0.75,40.95-1.56,61.43-2.37c1.2-0.05,2.34-0.27,2.25,1.63c-0.3,6.15,0.06,12.32-0.5,18.47c-0.11,1.19-0.23,2.12-1.72,2.2
		c-1.39,0.08-2.17-0.37-2.42-1.85c-0.27-1.63-0.65-3.26-1.17-4.82c-2.37-7.01-4.46-8.04-11.68-8.7c-2.89-0.26-5.83,0.12-8.74,0.01
		c-1.96-0.07-2.58,0.56-2.56,2.56c0.1,8.74,0.04,17.49,0.04,26.23C253.82,78.74,253.76,78.74,253.7,78.74z"/>
	<path fill="#030101" d="M167.07,105.46c0.79,0.61,2.73-1.11,2.86,0.86c0.14,2.09-1.91,1.01-2.89,1.15
		c-7.7,1.09-15.43,2.02-23.14,2.99c-0.72,0.09-1.63,0.41-1.76-0.72c-0.12-1.1,0.94-0.93,1.57-1.19c0.15-0.06,0.33-0.04,0.49-0.07
		c5.61-1.16,6.74-3.04,5.98-8.7c-1.34-9.94-2.34-19.94-3.73-29.88c-0.8-5.74-0.91-11.57-2.65-17.19c-0.88-2.83-2.66-4.08-5.35-4.42
		c-1.48-0.19-2.98-0.32-4.46-0.25c-1.23,0.06-1.59-0.5-1.75-1.53c-0.18-1.19,0.56-1.41,1.47-1.5c10.26-1.04,20.51-2.07,30.77-3.13
		c0.93-0.1,1.6-0.12,1.78,1.07c0.17,1.17-0.27,1.59-1.37,1.87c-8.23,2.14-9.09,3.26-8.39,11.76c1.14,13.77,2.43,27.52,3.66,41.28
		c0.06,0.66,0.17,1.32,0.28,1.98C161.18,104.58,162.08,105.35,167.07,105.46z"/>
	<path fill="#070707" d="M526.09,71.87c2.45,0.62,4.38,1.06,6.28,1.61c7.13,2.07,10.62,7.13,11.21,14.27
		c0.56,6.74-2.81,11.39-8.48,14.61c-4.5,2.56-9.46,3.47-14.49,4.26c-9.86,1.55-19.7,3.26-29.56,4.87c-0.74,0.12-1.88,0.94-2.14-0.68
		c-0.22-1.37,0.72-1.69,1.76-1.91c0.24-0.05,0.49-0.1,0.73-0.16c5.54-1.51,6.99-3.31,6.54-9.11c-0.61-8.04-1.48-16.07-2.25-24.1
		c-0.42-4.47-0.85-8.94-1.28-13.41c-0.06-0.58-0.08-1.16-0.16-1.74c-0.71-5.55-1.55-6.28-7.1-6.28c-0.73,0-1.86,0.7-1.93-0.7
		c-0.06-1.21,1.13-1.05,1.87-1.14c9.66-1.11,19.22-3.13,28.97-3.46c2.75-0.09,5.48,0.14,8.17,0.78c5.23,1.24,8.34,4.59,9.57,9.73
		c1.07,4.5-0.74,8.49-4.9,11.02C528.15,70.8,527.33,71.19,526.09,71.87z"/>
	<path fill="#070707" d="M405.56,81.33c0-6.08,0-12.15,0-18.23c0-3.6-0.91-4.48-4.56-4.71c-1.01-0.07-2.76,0.7-2.9-0.82
		c-0.18-1.88,1.82-1.3,2.86-1.44c7.09-0.96,14.2-1.8,21.31-2.65c0.74-0.09,1.84-0.62,2.05,0.62c0.2,1.17-0.89,1.11-1.67,1.35
		c-2.64,0.82-5.76,1-6.5,4.52c-0.17,0.8-0.22,1.65-0.21,2.47c0.09,11.33,0.19,22.65,0.29,33.98c0.02,2.43,0.53,4.78,1.16,7.11
		c2.03,7.6,8.36,11.38,15.94,11.38c4.33,0,8.62-0.44,12.64-2.35c6.32-3,9.22-8.14,9.47-14.92c0.3-7.89-1.7-15.53-2.68-23.27
		c-0.62-4.87-1.51-9.7-2.28-14.55c-0.78-4.89-2.2-6.2-7.14-6.59c-0.58-0.05-1.16-0.15-1.74-0.18c-0.61-0.02-1.22-0.01-1.3-0.81
		c-0.09-0.89,0.52-1.12,1.24-1.21c6.86-0.86,13.71-1.71,20.57-2.57c0.71-0.09,1.36-0.07,1.47,0.87c0.09,0.76-0.37,0.98-1.01,1.14
		c-8.48,2.23-7.11,5.07-6.32,11.03c1.2,8.99,2.92,17.9,4.37,26.86c0.81,5.02,1.17,10.06-0.07,15.09
		c-1.9,7.74-6.76,12.82-14.13,15.53c-8.49,3.12-17.22,3.68-25.98,1.45c-9.03-2.3-15.01-10.58-15.59-20.37
		C404.51,93.79,405.01,87.57,405.56,81.33z"/>
	<path fill="#FEF7F7" d="M38.26,76.48c0.28,7.46,1.13,14.1,5.09,19.91c5.09,7.45,11.99,11.32,21.19,11.4
		c5.26,0.05,9.69-1.9,14.13-4.2c2-1.04,2.64-2.55,2.17-4.74c-1.17-5.45-2.21-10.93-3.36-16.38c-1.06-5.07-2.24-6-7.46-6.06
		c-0.95-0.01-2.23,0.41-2.28-1.12c-0.05-1.56,1.36-1.17,2.24-1.27c6.61-0.77,13.23-1.48,19.85-2.24c0.95-0.11,1.88-0.4,2.15,0.92
		c0.27,1.35-0.84,1.1-1.58,1.33c-2.91,0.89-3.85,2.51-3.15,6.31c0.84,4.58,1.97,9.11,2.99,13.66c0.36,1.62,0.61,3.29,1.17,4.85
		c0.83,2.32-0.06,3.78-1.9,5.07c-8.15,5.72-17.12,9.05-27.11,9.67c-8.79,0.54-16.79-1.57-24-6.67
		c-8.28-5.85-12.23-14.11-12.91-23.98c-1.09-15.74,8-28.1,20.79-32.71c7.94-2.86,16-2.48,24.12-1.19c2.07,0.33,3.9,0.31,5.13-1.93
		c0.71-1.3,2.31-1.01,2.74,0.47c1.42,4.87,2.7,9.77,4.04,14.66c0.16,0.58,0,1-0.58,1.16c-0.92,0.24-1.8,0.31-2.48-0.6
		c-0.9-1.2-1.82-2.38-2.78-3.53c-6.59-7.87-14.9-9.02-22.74-6.73c-9.36,2.73-14.55,9.73-15.29,19.17
		C38.29,73.51,38.08,75.32,38.26,76.48z"/>
	<path fill="#FEF7F7" d="M338.3,108.52c4.4-0.09,5.58-0.87,6.55-5.53c1.37-6.6,2.39-13.26,3.62-19.89c0.24-1.3-0.23-1.78-1.45-1.99
		c-8.28-1.45-16.56-2.91-24.82-4.44c-1.23-0.23-1.62,0.15-1.83,1.28c-1.23,6.72-2.57,13.41-3.74,20.14
		c-0.64,3.71,0.64,5.4,4.78,6.97c0.67,0.25,1.65,0.19,1.78,1.11c0.13,0.91,0.12,1.91-1.39,1.57c-7.63-1.72-15.26-3.41-22.9-5.12
		c-0.74-0.16-1.55-0.27-1.3-1.38c0.21-0.96,0.84-0.99,1.69-0.98c5.85,0.1,6.51-0.35,7.65-6.08c2.84-14.2,5.62-28.42,8.36-42.64
		c0.86-4.44,0.13-5.53-4.13-7.11c-0.83-0.31-2.29-0.23-1.85-1.76c0.36-1.26,1.53-0.75,2.36-0.64c7.02,0.92,14.03,1.88,21.04,2.84
		c0.77,0.1,1.83-0.14,1.81,1.15c-0.02,1.37-1.12,1.19-2,1.28c-5.91,0.59-6.43,1.02-7.6,6.85c-1.05,5.23-1.97,10.48-3.04,15.7
		c-0.3,1.45-0.03,2.05,1.56,2.3c8.14,1.32,16.26,2.73,24.38,4.21c1.47,0.27,1.88-0.19,2.11-1.52c0.95-5.66,2.03-11.3,2.96-16.97
		c0.91-5.49,0.15-6.66-5.09-8.5c-0.79-0.28-2.02-0.22-1.72-1.62c0.29-1.38,1.42-0.92,2.24-0.82c8.01,1.03,16.02,2.09,24.02,3.18
		c0.74,0.1,1.83-0.03,1.79,1.24c-0.04,1.36-1.08,1.2-2,1.24c-0.83,0.03-1.66,0.1-2.49,0.18c-3.55,0.33-4.58,1.17-5.47,4.72
		c-2.14,8.49-3.23,17.17-4.72,25.78c-1.28,7.38-2.92,14.7-3.56,22.18c-0.46,5.31,0.47,6.66,5.63,8.4c1.11,0.37,2.26,0.64,1.8,2.09
		c-0.48,1.52-1.73,0.6-2.55,0.42c-7.89-1.7-15.77-3.46-23.64-5.27c-0.88-0.2-2.49,0.23-2.2-1.61c0.28-1.76,1.65-0.85,2.6-0.95
		C337.8,108.49,338.05,108.52,338.3,108.52z"/>
	<path fill="#FDFDFD" d="M516.73,75.97c1.98,0.21,3.55,0.32,5.1,0.56c9.43,1.42,11.49,10.87,9.9,17.1
		c-0.97,3.79-4.17,5.64-7.47,7.14c-3.68,1.66-7.69,2.01-11.63,2.52c-1.52,0.2-2.79-0.4-3.31-2.02c-0.28-0.87-0.61-1.74-0.73-2.63
		c-0.87-6.43-1.64-12.87-2.56-19.28c-0.25-1.71,0.2-2.44,1.94-2.57C511.03,76.57,514.08,76.22,516.73,75.97z"/>
	<path fill="#FEF7F7" d="M511.45,52.44c4.62-0.27,8.9,0.24,11.43,4.35c3.21,5.21,2.52,10.55-3.39,13.39
		c-4.11,1.98-8.64,2.28-13.07,2.92c-1.1,0.16-1.25-0.54-1.35-1.32c-0.68-5.28-1.37-10.56-2.04-15.84c-0.23-1.81,0.51-2.78,2.41-3.01
		C507.52,52.68,509.56,52.27,511.45,52.44z"/>
</g>
</svg>
