<?xml version="1.0" encoding="utf-8"?>
<!-- Generator: Adobe Illustrator 22.0.1, SVG Export Plug-In . SVG Version: 6.00 Build 0)  -->
<svg version="1.2" baseProfile="tiny" id="Layer_1" xmlns="http://www.w3.org/2000/svg" xmlns:xlink="http://www.w3.org/1999/xlink"
	 x="0px" y="0px" viewBox="0 0 480.2 134.8" xml:space="preserve">
<g>
	<path fill="#0B0403" d="M0.2,121.8c0.2-12,0.5-24,0.7-36c0.2-10.5,0.5-21,0.8-31.5c0.2-7.5,0.5-15.1,0.7-22.6
		c0-1.2,0.3-1.6,1.6-1.7c7.8-0.5,15.6-1,23.3-1.6c9.8-0.7,19.6-1.4,29.4-2c1.5-0.1,1.4-0.8,1.1-1.9c-1.2-3.8-2.3-7.6-3.6-11.4
		c-0.4-1.3-0.2-1.7,1.2-1.8c11.1-1,22.1-2.1,33.2-3.1c8-0.7,16.1-1.4,24.1-2.1c9.4-0.9,18.9-1.8,28.3-2.7c8-0.7,16.1-1.4,24.1-2.1
		c3.8-0.3,7.5-0.7,11.2-1.1c2.5-0.3,2.5-0.2,2.3,2.2c-0.4,3.8-0.6,7.6-1,11.5c-0.1,1.2,0.2,1.6,1.6,1.4c8.2-0.8,16.5-1.5,24.7-2.2
		c9.6-0.9,19.3-1.8,28.9-2.7c6.6-0.6,13.3-1.1,19.9-1.7c2.6-0.2,5.2-0.6,7.8-0.8c2.7-0.2,2.7-0.1,2.4,2.6c-0.2,2-0.3,4.1-0.9,6
		c-0.5,1.8,0.4,2.1,1.7,2.2c4.3,0.4,8.7,0.9,13.1,1.3c7.4,0.8,14.7,1.6,22.1,2.3c7.2,0.7,14.3,1.4,21.5,2.2c1.5,0.1,2.9,0.3,4.4,0.4
		c1.3,0.1,1.9,0.5,1.5,2.1c-0.6,2.5-0.3,2.6,2.3,2.2c6.1-1,12.2-1.8,18.3-2.7c6.3-0.9,12.6-1.8,18.9-2.7c6.1-0.9,12.2-1.7,18.3-2.6
		c2.3-0.3,4.5-0.5,6.8-1c1.1-0.2,1.5,0.1,1.7,1c0.4,1.4,1,2.7,1.3,4c0.3,1.4,1.1,1.8,2.5,1.6c10.1-1.3,20.2-2.7,30.3-4
		c7.3-0.9,14.6-1.8,21.9-2.8c1.4-0.2,1.4,0.8,1.7,1.5c2.6,7.1,5.2,14.2,7.8,21.3c7.2,19.8,14.5,39.6,21.8,59.4
		c0.6,1.7,0.1,2-1.4,2.3c-13.6,2.5-27.2,5-40.8,7.5c-3.9,0.7-7.8,1.5-11.7,2.1c-1.7,0.3-1.7,1-1.3,2.3c1.4,4.1,2.8,8.3,4.2,12.4
		c0.6,1.6,0.2,1.9-1.4,2c-11.3,0.2-22.5,0.4-33.7,0.8c-13.9,0.5-27.7,0.8-41.6,1.2c-9.6,0.3-19.1,0.6-28.7,0.8
		c-10.8,0.3-21.7,0.7-32.5,1.1c-1.6,0.1-2.2-0.1-1.8-2.1c0.9-4.7,1.4-9.4,2.4-14.1c0.3-1.6-0.2-2-1.5-2.3
		c-11.2-2.8-22.3-5.7-33.4-8.6c-1.8-0.5-3.7-0.9-5.5-1.4c-1-0.3-1.4-0.2-1.5,1c-0.2,2.2-0.8,4.4-0.9,6.6c-0.1,1.9-1,2.1-2.6,1.9
		c-4.5-0.6-8.9-1.2-13.4-1.8c-7.7-1-15.5-2-23.2-3.1c-8.6-1.1-17.2-2.3-25.8-3.4c-6.5-0.9-12.9-1.8-19.4-2.6
		c-1.1-0.1-1.7-0.4-1.7-1.6c0-1.5-0.8-1.8-2.3-1.6c-13,1.8-26,3.5-38.9,5.2c-11.4,1.6-22.9,3.2-34.3,4.7c-0.8,0.1-1.7,0.4-2.2-0.8
		c-0.4-0.8-1.4-0.4-2-0.3c-11.1,2.1-22.2,4.2-33.3,6.3c-14.9,2.8-29.8,5.5-44.8,8.3c-0.9,0.2-1.7,0.2-2.6,0.5
		c-1.9,0.7-2.4-0.1-2.2-1.9c0.1-0.7,0-1.3,0-2C0.1,121.8,0.2,121.8,0.2,121.8z M317.3,37.2c0.2-1.1,0.3-2.3,0.5-3.4
		c0.6-4,0.6-3.9-3.3-4.3c-7.9-0.8-15.7-1.8-23.6-2.6c-7.7-0.9-15.5-1.7-23.2-2.6c-4.4-0.5-8.8-0.8-13.2-1.6c0.2-1.9,0.2-3.8,0.6-5.6
		c0.4-1.8-0.4-1.8-1.7-1.7c-5.5,0.5-11,0.9-16.5,1.3c-13.2,1-26.5,2.1-39.7,3.1c-9.7,0.7-19.5,1.4-29.2,2.2
		c-1.3,0.1-1.6-0.2-1.6-1.5c0-2,0.7-4,0.3-6.1c-6,0.6-12,1.2-17.9,1.8c-12.4,1.2-24.8,2.4-37.2,3.6c-13.1,1.3-26.3,2.5-39.4,3.7
		c-1.6,0.1-2.6,0.4-1.7,2.3c0.4,0.8,0.5,1.8,0.7,2.7C65.1,29.1,59,29.5,52.9,30c-6.4,0.5-12.8,0.8-19.1,1.3
		c-8.4,0.6-16.8,1.3-25.2,1.9c-1.4,0.1-1.6,0.5-1.6,1.8c0,26.6-0.1,53.3-0.2,79.9c0,1.7,0.6,1.8,2,1.5c10.2-1.9,20.4-3.6,30.6-5.4
		c17.2-3.1,34.5-6.1,51.7-9.2c0.7,0.6,0,2.3,1.5,2.1c3.9-0.4,7.8-0.9,11.7-1.5c8.7-1.2,17.3-2.4,26-3.6c9.2-1.2,18.4-2.5,27.6-3.6
		c1.6-0.2,3.9,0.2,4.7-0.9c0.9-1.2,0.5-3.4,0.6-5.1c0.1-2.1-0.1-4.3,0.7-6.9c0.6,5.2,1.1,9.9,1.7,14.6c0.2,1.5-0.1,3.3,0.6,4.3
		c0.8,1.2,2.8,0.7,4.3,0.9c7.1,0.9,14.2,1.9,21.4,2.7c8.2,1,16.4,1.9,24.6,2.9c8.7,1,17.3,2.1,26,3.2c1.2,0.2,1.3-0.2,1.4-1.2
		c0.5-3.9,1-7.9,1.6-11.8c0.8,0.2,1.6,0.3,2.3,0.5c18.6,4.6,37.3,9.2,55.9,13.7c-0.2,1.7-0.2,3.5-0.5,5.2c-0.3,1.5,0.1,1.8,1.6,1.7
		c25.6-1.2,51.2-2.4,76.8-3.5c9.2-0.4,18.3-0.8,27.7-1.3c-0.7-2.6-1.4-5.1-2.1-7.6c-0.4-1.3-0.1-1.7,1.2-2
		c13.2-2.3,26.4-4.6,39.6-6.9c6.3-1.1,12.5-2.2,18.9-3.4c-2.6-7.9-5.1-15.6-7.7-23.4c-4.7-14.3-9.4-28.6-14.1-43
		c-0.3-0.9-0.4-1.5-1.7-1.3c-8.6,1.2-17.3,2.4-25.9,3.5c-9.2,1.2-18.5,2.4-27.7,3.6c-3,0.4-3,0.4-3.8-2.4c-0.3-0.9-0.5-1.8-0.8-2.7
		c-0.1-0.4-0.1-1-0.9-0.8c-0.9,0.2-1.9,0.2-2.8,0.4c-6.4,0.9-12.9,1.8-19.3,2.7c-6.4,0.9-12.9,1.7-19.3,2.5
		C334.3,34.9,325.8,36,317.3,37.2z"/>
	<path fill="#FCFCFB" d="M245.3,98.1c-0.5,3.9-1.1,7.8-1.6,11.8c-0.1,0.9-0.2,1.3-1.4,1.2c-8.7-1.1-17.3-2.2-26-3.2
		c-8.2-1-16.4-1.9-24.6-2.9c-7.1-0.9-14.2-1.8-21.4-2.7c-1.5-0.2-3.5,0.3-4.3-0.9c-0.7-1.1-0.4-2.9-0.6-4.3
		c-0.5-4.7-1.1-9.4-1.7-14.6c-0.8,2.6-0.6,4.8-0.7,6.9c-0.1,1.7,0.3,3.9-0.6,5.1c-0.8,1.1-3,0.7-4.7,0.9c-9.2,1.2-18.4,2.4-27.6,3.6
		c-8.7,1.2-17.3,2.4-26,3.6c-3.9,0.5-7.8,1.1-11.7,1.5c-1.5,0.2-0.7-1.6-1.5-2.1c-1.9-7.1-3.8-14.2-5.7-21.2
		c-4.7-17.3-9.5-34.6-14.3-51.9c-0.2-0.9-0.3-1.9-0.7-2.7c-0.9-1.9,0.2-2.2,1.7-2.3c13.1-1.2,26.3-2.5,39.4-3.7
		c12.4-1.2,24.8-2.4,37.2-3.6c5.9-0.6,11.9-1.2,17.9-1.8c0.4,2.1-0.3,4.1-0.3,6.1c0,1.2,0.3,1.6,1.6,1.5c9.7-0.8,19.5-1.5,29.2-2.2
		c13.2-1,26.5-2,39.7-3.1c5.5-0.4,11-0.8,16.5-1.3c1.4-0.1,2.1-0.1,1.7,1.7c-0.4,1.8-0.4,3.7-0.6,5.6c-3.4-0.1-6.8-0.6-10.2-1.1
		c-1.4-0.2-1.9,0.2-2.1,1.5c-0.8,4.4-1.8,8.8-2.7,13.3c-3.8,18.5-7.6,37.1-11.5,55.6c-0.3,1.2-0.2,1.8,1.3,2.2
		C234.6,95.3,240,96.7,245.3,98.1z M202.4,35.8C202.4,35.8,202.4,35.8,202.4,35.8c-8.3,0.3-16.6,0.7-24.9,1c-1.6,0-1.9,0.5-1.9,2
		c0,4.3,0.4,8.5,0.6,12.7c0,0.7,0,1.4,1,1.4c1,0.1,1.4-0.4,1.6-1.4c0.2-1.4,0.5-2.8,0.9-4.1c0.8-3,2.5-5,5.8-5.7
		c3.1-0.7,6.2-0.5,9.2-0.7c1.2-0.1,1,0.7,1.1,1.5c0.2,14.1,0.5,28.2,0.7,42.3c0.1,5.2-0.5,5.7-5.7,6c-0.6,0-1.3-0.1-1.3,0.8
		c0,0.9,0.6,0.9,1.2,0.9c3.6,0.4,7.2,0.8,10.8,1.1c3.5,0.3,7,0.6,10.5,0.9c0.5,0,1.1,0.3,1.2-0.6c0.1-0.8-0.2-1-1-1.2
		c-1.1-0.2-2.1-0.5-3.1-0.8c-2.8-0.8-3.3-1.6-3.6-4.6c-0.3-3-0.2-5.9-0.2-8.9c0.1-11.9,0.1-23.9,0.2-35.8c0-1-0.2-2.1,1.4-2.1
		c2.8,0,5.5-0.1,8.3,0c4.5,0.1,7.6,2.3,8.8,6.8c0.3,1.4,0.8,2.7,1,4.1c0.2,1.2,0.8,1.6,2,1.5c1.2-0.1,1.3-0.8,1.4-1.8
		c0.5-5,0.2-10,0.4-15c0.1-1.5-0.8-1.4-1.8-1.4C218.8,35.2,210.6,35.5,202.4,35.8z M135.4,85.4c-4.1-0.1-5-0.7-5.4-4.7
		c-0.7-6.9-1.3-13.8-2-20.7c-0.5-5.4-1.1-10.7-1.3-16.1c-0.2-5.2,0.9-6.2,5.9-7.4c0.1,0,0.3,0,0.4,0c0.8-0.2,1.8-0.1,1.6-1.5
		c-0.2-1.3-1-1-1.8-0.9c-8.2,0.8-16.3,1.6-24.5,2.5c-0.7,0.1-1.4,0.2-1.3,1.2c0.1,0.7,0.2,1.4,1.3,1.3c1.2-0.1,2.4,0,3.6,0.2
		c2.2,0.3,3.7,1.2,4.4,3.5c1.9,6.8,2,13.8,3,20.7c0.9,5.8,1.4,11.7,2.2,17.6c0.6,4.4-0.4,6.1-4.7,6.9c-0.2,0-0.4,0-0.6,0.1
		c-0.5,0.3-1.4,0.1-1.2,1c0.1,0.9,0.8,0.6,1.4,0.6c6.3-0.8,12.6-1.6,18.9-2.4c0.8-0.1,2.3,0.7,2.2-0.8
		C137.5,84.5,135.9,86,135.4,85.4z"/>
	<path fill="#FCFCFB" d="M317.3,37.2c8.5-1.2,17-2.3,25.5-3.5c6.4-0.9,12.9-1.7,19.3-2.5c6.4-0.9,12.9-1.8,19.3-2.7
		c0.9-0.1,1.9-0.2,2.8-0.4c0.8-0.2,0.7,0.4,0.9,0.8c0.3,0.9,0.5,1.8,0.8,2.7c0.8,2.8,0.8,2.8,3.8,2.4c9.2-1.2,18.5-2.4,27.7-3.6
		c8.6-1.1,17.3-2.3,25.9-3.5c1.3-0.2,1.4,0.5,1.7,1.3c4.7,14.3,9.4,28.6,14.1,43c2.5,7.7,5.1,15.5,7.7,23.4
		c-6.4,1.1-12.6,2.3-18.9,3.4c-13.2,2.3-26.4,4.7-39.6,6.9c-1.3,0.2-1.6,0.7-1.2,2c0.8,2.5,1.4,5,2.1,7.6
		c-9.4,0.4-18.5,0.9-27.7,1.3c-25.6,1.2-51.2,2.3-76.8,3.5c-1.5,0.1-1.9-0.2-1.6-1.7c0.3-1.7,0.3-3.5,0.5-5.2c0.3-2.3,0.6-4.7,0.9-7
		c2.6-21,5.1-42,7.6-63C312.7,37.7,312.6,37.7,317.3,37.2z M425.8,58.3c1.1-0.6,1.7-0.9,2.3-1.2c3.7-2.2,5.1-5.7,3.8-9.8
		c-1.4-4.7-4.9-7.2-10.5-7.6c-9.3-0.6-18.3,1.8-27.5,2.7c-0.5,0.1-1.2,0.1-1.1,0.9c0.1,1,0.8,0.6,1.4,0.6c4.7-0.1,5.5,0.5,6,5.2
		c1,10.2,2,20.4,2.9,30.6c0.5,5.9-0.1,6.8-6,8.6c-0.9,0.3-1.5,0.7-1.2,1.7c0.3,1.1,1.1,0.5,1.6,0.4c7.2-1.2,14.3-2.4,21.5-3.6
		c4.4-0.7,8.8-1.2,12.9-3.1c5.6-2.6,8.7-7.3,8.2-12.5c-0.6-6.6-3.8-10.3-10.3-12.1C428.6,58.9,427.5,58.6,425.8,58.3z M328.3,63.7
		c-0.3,5.8-0.9,11.6-0.5,17.4c0.4,7.9,5.4,14.6,12.7,16.5c7.1,1.8,14.2,1.4,21-1.2c5.9-2.2,9.8-6.2,11.4-12.4
		c1.3-5,0.5-9.9-0.3-14.8c-1.1-7.4-2.9-14.7-3.5-22.2c-0.3-3.4,0.5-4.5,3.7-5.6c0.4-0.2,0.9-0.3,1.3-0.4c0.5-0.2,1.3-0.1,1.2-1
		c-0.1-1.1-1-0.8-1.6-0.7c-3.8,0.5-7.6,0.9-11.4,1.4c-1.5,0.2-3.1,0.4-4.6,0.6c-0.6,0.1-1.3,0.1-1.2,1c0,0.8,0.7,0.7,1.2,0.7
		c0.4,0,0.8,0.1,1.2,0.1c4.1,0.4,5.2,1.3,5.8,5.5c0.8,4.9,1.6,9.7,2.3,14.6c0.7,5.3,2,10.6,1.7,16c-0.3,5.3-2.5,9.4-7.4,11.8
		c-3.3,1.6-6.8,2-10.4,2c-6.3,0-11.4-3.1-13-9.4c-0.5-1.8-0.9-3.7-0.9-5.6c-0.1-8.8-0.2-17.7-0.2-26.5c0-4.7,0.7-5.5,5.2-6.7
		c0.7-0.2,1.8,0,1.6-1.1c-0.2-1.3-1.3-0.6-2-0.5c-5.6,0.6-11.2,1.3-16.8,2.1c-0.9,0.1-2.5-0.3-2.4,1.1c0,1.6,1.6,0.7,2.4,0.8
		c2.9,0.2,3.6,0.9,3.6,3.9C328.3,55.4,328.3,59.6,328.3,63.7z"/>
	<path fill="#ED2328" d="M71.2,28.6c4.8,17.3,9.5,34.6,14.3,51.9c1.9,7.1,3.8,14.1,5.7,21.2c-17.2,3.1-34.5,6.1-51.7,9.2
		c-10.2,1.8-20.4,3.6-30.6,5.4c-1.4,0.3-2,0.2-2-1.5c0.1-26.6,0.1-53.3,0.2-79.9c0-1.2,0.3-1.7,1.6-1.8c8.4-0.6,16.8-1.3,25.2-1.9
		c6.4-0.5,12.8-0.8,19.1-1.3C59,29.5,65.1,29.1,71.2,28.6z M20.6,64.5c0,8.1,2.2,15.3,8.7,20.7c6.2,5.2,13.4,7.4,21.5,6.8
		c8.1-0.5,15.3-3.3,21.9-8c1.4-1,1.9-2.1,1.4-3.8c-0.9-3.1-1.5-6.3-2.2-9.5c-0.5-2.4-1.3-4.7-1.3-7.1c-0.1-2,0.8-3.2,2.7-3.7
		c0.6-0.2,1.5,0,1.2-1.1c-0.2-1.1-1-0.8-1.7-0.7c-5.3,0.6-10.6,1.2-15.9,1.8c-0.8,0.1-2-0.3-2,1c0,1.4,1.2,0.9,2,0.9
		c4.1,0.1,5.1,0.9,5.9,4.9c0.9,4.4,1.8,8.9,2.7,13.3c0.4,1.8-0.1,3-1.7,3.9c-3.6,1.9-7.2,3.3-11.4,3.4c-8.6,0.2-16.2-5.5-19.1-13
		c-2.1-5.4-2.4-11-2-16.7c0.5-7.3,5.1-13.1,12.5-15.2c6.2-1.7,12.7-0.9,17.9,5.2c0.9,1,1.7,2.1,2.5,3.2c0.6,0.7,1.3,0.7,2,0.5
		c0.5-0.1,0.6-0.5,0.5-0.9c-1.1-4-2.1-8.1-3.4-12c-0.4-1.4-1.6-1.2-2.2-0.1c-0.9,1.5-2.2,1.6-3.6,1.5c-0.8-0.1-1.6-0.2-2.4-0.4
		c-5.2-0.8-10.4-0.8-15.6,0.6C28.1,43.2,20.5,53.7,20.6,64.5z"/>
	<path fill="#ED2328" d="M317.3,37.2c-4.7,0.5-4.7,0.5-5.2,5.1c-2.5,21-5.1,42-7.6,63c-0.3,2.3-0.6,4.7-0.9,7
		c-18.6-4.6-37.3-9.2-55.9-13.7c-0.8-0.2-1.6-0.4-2.3-0.5c-5.3-1.3-10.7-2.8-16.1-4c-1.5-0.3-1.6-0.9-1.3-2.2
		c3.8-18.5,7.7-37.1,11.5-55.6c0.9-4.4,1.9-8.8,2.7-13.3c0.3-1.3,0.8-1.7,2.1-1.5c3.4,0.5,6.8,1,10.2,1.1c4.3,0.9,8.8,1.1,13.2,1.6
		c7.7,0.9,15.5,1.7,23.2,2.6c7.9,0.9,15.7,1.8,23.6,2.6c4,0.4,4,0.3,3.3,4.3C317.6,34.9,317.5,36.1,317.3,37.2z M273.9,87.9
		c-0.4,0-0.8,0-1.2-0.1c-0.7-0.1-1.3-0.2-1.5,0.8c-0.2,1,0.5,1.1,1.2,1.2c0.9,0.2,1.7,0.4,2.6,0.6c5.7,1.3,11.4,2.6,17.2,3.8
		c0.7,0.1,1.8,1,2.2-0.4c0.3-1.2-0.7-1.3-1.5-1.6c-4.1-1.4-5-2.5-4.5-6.8c1.6-12.4,3.9-24.8,6.3-37.1c1-5.3,1.4-5.3,6.9-5.7
		c0.7,0,1.4,0.1,1.5-0.9c0.1-1.2-0.8-1.1-1.5-1.2c-6.5-0.9-13-1.7-19.4-2.6c-0.7-0.1-1.6-0.5-1.8,0.7c-0.2,1.1,0.7,1.1,1.4,1.3
		c4.2,1.5,4.9,2.4,4.1,6.9c-0.8,4.6-1.6,9.2-2.4,13.7c-0.2,1.1-0.5,1.5-1.7,1.2c-6.6-1.2-13.1-2.3-19.7-3.4
		c-1.3-0.2-1.5-0.7-1.2-1.9c0.8-3.8,1.5-7.7,2.2-11.5c1.1-5.7,1.1-5.8,6.8-6.7c0.7-0.1,1.2-0.2,1.2-1c0-0.9-0.7-0.8-1.3-0.9
		c-1.4-0.2-2.8-0.4-4.2-0.6c-4.5-0.6-8.9-1.2-13.4-1.8c-0.6-0.1-1.4-0.3-1.6,0.7c-0.2,0.9,0.6,0.9,1.1,1.2c0.2,0.1,0.4,0.1,0.6,0.2
		c3.2,1.2,3.9,2.1,3.3,5.4c-2.3,11.8-4.6,23.7-7,35.5c-0.8,3.7-1.8,4.4-5.5,4.3c-0.2,0-0.4-0.1-0.6-0.1c-0.8-0.2-1.1,0.2-1.3,0.9
		c-0.1,0.8,0.4,0.9,1,1c6.2,1.4,12.5,2.8,18.7,4.2c0.5,0.1,0.9,0.1,1.1-0.6c0.1-0.5,0.2-1-0.3-1.2c-0.4-0.2-0.9-0.3-1.3-0.5
		c-3-1.1-4.2-2.5-3.7-5.2c0.9-5.7,2.1-11.3,3.1-16.9c0.1-0.7,0.4-1,1.2-0.8c6.8,1.2,13.5,2.4,20.3,3.6c1,0.2,1.3,0.6,1.1,1.6
		c-1,5.3-1.7,10.7-2.9,15.9C278.3,87,278.1,88,273.9,87.9z"/>
	<path fill="#111212" d="M202.4,35.8c8.2-0.3,16.4-0.6,24.7-1c1,0,1.8-0.1,1.8,1.4c-0.3,5,0.1,10-0.4,15c-0.1,1-0.2,1.7-1.4,1.8
		c-1.1,0.1-1.8-0.3-2-1.5c-0.2-1.4-0.7-2.7-1-4.1c-1.1-4.6-4.2-6.7-8.8-6.8c-2.8-0.1-5.5,0.1-8.3,0c-1.6,0-1.4,1-1.4,2.1
		c-0.1,11.9-0.2,23.9-0.2,35.8c0,3-0.2,5.9,0.2,8.9c0.3,3,0.8,3.7,3.6,4.6c1,0.3,2.1,0.6,3.1,0.8c0.8,0.1,1.1,0.4,1,1.2
		c-0.1,0.9-0.7,0.6-1.2,0.6c-3.5-0.3-7-0.6-10.5-0.9c-3.6-0.3-7.2-0.7-10.8-1.1c-0.6-0.1-1.3,0-1.2-0.9c0-0.9,0.7-0.8,1.3-0.8
		c5.3-0.3,5.8-0.8,5.7-6c-0.2-14.1-0.5-28.2-0.7-42.3c0-0.7,0.2-1.6-1.1-1.5c-3.1,0.2-6.2,0.1-9.2,0.7c-3.3,0.7-5,2.7-5.8,5.7
		c-0.4,1.4-0.7,2.8-0.9,4.1c-0.1,1-0.6,1.4-1.6,1.4c-1-0.1-0.9-0.7-1-1.4c-0.2-4.2-0.6-8.5-0.6-12.7c0-1.5,0.3-1.9,1.9-2
		C185.8,36.5,194.1,36.1,202.4,35.8C202.4,35.8,202.4,35.8,202.4,35.8z"/>
	<path fill="#0B0403" d="M135.4,85.4c0.6,0.5,2.2-1,2.2,0.8c0.1,1.6-1.4,0.7-2.2,0.8c-6.3,0.9-12.6,1.6-18.9,2.4
		c-0.6,0.1-1.3,0.3-1.4-0.6c-0.1-0.9,0.8-0.7,1.2-1c0.2-0.1,0.4,0,0.6-0.1c4.3-0.9,5.3-2.6,4.7-6.9c-0.9-5.8-1.3-11.7-2.2-17.6
		c-1-6.9-1.2-13.9-3-20.7c-0.6-2.3-2.2-3.2-4.4-3.5c-1.2-0.1-2.4-0.3-3.6-0.2c-1.1,0.1-1.2-0.6-1.3-1.3c-0.1-1,0.6-1.1,1.3-1.2
		c8.2-0.8,16.3-1.6,24.5-2.5c0.8-0.1,1.6-0.4,1.8,0.9c0.2,1.4-0.8,1.3-1.6,1.5c-0.1,0-0.3,0-0.4,0c-5.1,1.2-6.1,2.2-5.9,7.4
		c0.2,5.4,0.8,10.8,1.3,16.1c0.6,6.9,1.2,13.8,2,20.7C130.4,84.8,131.2,85.4,135.4,85.4z"/>
	<path fill="#111212" d="M425.8,58.3c1.6,0.4,2.8,0.6,4,0.9c6.5,1.7,9.7,5.4,10.3,12.1c0.5,5.2-2.7,9.8-8.2,12.5
		c-4.1,1.9-8.5,2.4-12.9,3.1c-7.2,1.2-14.3,2.4-21.5,3.6c-0.6,0.1-1.4,0.7-1.6-0.4c-0.2-1,0.3-1.4,1.2-1.7c5.9-1.8,6.5-2.6,6-8.6
		c-0.9-10.2-1.9-20.4-2.9-30.6c-0.5-4.7-1.3-5.3-6-5.2c-0.6,0-1.3,0.4-1.4-0.6c-0.1-0.7,0.6-0.8,1.1-0.9c9.2-1,18.2-3.3,27.5-2.7
		c5.6,0.4,9.1,2.9,10.5,7.6c1.3,4.1-0.1,7.6-3.8,9.8C427.5,57.4,426.9,57.7,425.8,58.3z M430.8,72.6c-0.5-6.5-3.2-9.7-8.7-10.6
		c-3.6-0.6-7.2,0-10.8,0.3c-1.5,0.1-1.8,0.8-1.6,2.2c0.7,5.1,1.3,10.1,2,15.2c0.1,0.8,0.4,1.6,0.6,2.3c0.4,1.3,1.4,1.9,2.6,1.7
		c3.2-0.4,6.4-0.8,9.4-2C428.9,79.9,431.1,76.7,430.8,72.6z M414.1,42.5c-1.5-0.1-3.2,0.2-4.8,0.4c-1.5,0.2-2.2,0.9-2,2.4
		c0.5,4.3,1.1,8.5,1.6,12.8c0.1,0.6,0.2,1.2,1.1,1.1c3.7-0.5,7.5-0.8,10.9-2.5c4.5-2.3,4.9-6.5,2.4-10.6
		C421.3,42.7,417.8,42.3,414.1,42.5z"/>
	<path fill="#111212" d="M328.3,63.7c0-4.2,0-8.4,0-12.5c0-3-0.7-3.7-3.6-3.9c-0.8-0.1-2.4,0.8-2.4-0.8c0-1.4,1.6-1,2.4-1.1
		c5.6-0.8,11.2-1.4,16.8-2.1c0.7-0.1,1.8-0.7,2,0.5c0.1,1-0.9,0.9-1.6,1.1c-4.5,1.1-5.2,2-5.2,6.7c0.1,8.8,0.2,17.7,0.2,26.5
		c0,1.9,0.4,3.7,0.9,5.6c1.6,6.2,6.7,9.4,13,9.4c3.6,0,7.1-0.4,10.4-2c4.9-2.4,7.1-6.5,7.4-11.8c0.3-5.4-1-10.7-1.7-16
		c-0.6-4.9-1.5-9.7-2.3-14.6c-0.7-4.2-1.7-5.1-5.8-5.5c-0.4,0-0.8-0.1-1.2-0.1c-0.5,0-1.2,0.1-1.2-0.7c0-0.9,0.6-0.9,1.2-1
		c1.5-0.2,3.1-0.4,4.6-0.6c3.8-0.5,7.6-1,11.4-1.4c0.6-0.1,1.4-0.4,1.6,0.7c0.1,0.9-0.7,0.8-1.2,1c-0.4,0.2-0.9,0.3-1.3,0.4
		c-3.2,1.1-3.9,2.2-3.7,5.6c0.6,7.5,2.3,14.8,3.5,22.2c0.8,4.9,1.5,9.8,0.3,14.8c-1.6,6.2-5.5,10.2-11.4,12.4
		c-6.9,2.5-13.9,3-21,1.2c-7.3-1.8-12.2-8.6-12.7-16.5C327.5,75.3,328,69.5,328.3,63.7z"/>
	<path fill="#FEF5F4" d="M20.6,64.5c-0.1-10.9,7.5-21.4,18.9-24.4c5.2-1.4,10.4-1.3,15.6-0.6c0.8,0.1,1.6,0.3,2.4,0.4
		c1.4,0.1,2.8,0,3.6-1.5c0.6-1.1,1.8-1.3,2.2,0.1c1.2,4,2.3,8,3.4,12c0.1,0.5,0,0.8-0.5,0.9c-0.7,0.2-1.5,0.2-2-0.5
		c-0.8-1.1-1.6-2.1-2.5-3.2c-5.3-6.1-11.7-6.9-17.9-5.2c-7.4,2-12,7.9-12.5,15.2c-0.4,5.7-0.1,11.3,2,16.7
		c2.9,7.4,10.5,13.2,19.1,13c4.2-0.1,7.8-1.6,11.4-3.4c1.6-0.8,2.1-2.1,1.7-3.9c-0.9-4.4-1.8-8.8-2.7-13.3c-0.8-4-1.8-4.8-5.9-4.9
		c-0.8,0-2,0.4-2-0.9c0-1.3,1.3-0.9,2-1c5.3-0.6,10.6-1.2,15.9-1.8c0.8-0.1,1.5-0.3,1.7,0.7c0.2,1.1-0.6,0.9-1.2,1.1
		c-1.9,0.5-2.8,1.7-2.7,3.7c0.1,2.5,0.8,4.8,1.3,7.1c0.7,3.2,1.3,6.3,2.2,9.5c0.5,1.7,0,2.8-1.4,3.8c-6.6,4.7-13.8,7.4-21.9,8
		c-8.1,0.5-15.3-1.6-21.5-6.8C22.9,79.8,20.6,72.6,20.6,64.5z"/>
	<path fill="#FEF5F4" d="M273.9,87.9c4.3,0,4.4-0.9,5.3-4.7c1.3-5.2,2-10.6,2.9-15.9c0.2-1-0.1-1.5-1.1-1.6
		c-6.8-1.2-13.5-2.4-20.3-3.6c-0.8-0.1-1.1,0.1-1.2,0.8c-1,5.6-2.2,11.3-3.1,16.9c-0.4,2.6,0.7,4,3.7,5.2c0.4,0.2,0.9,0.3,1.3,0.5
		c0.5,0.3,0.4,0.8,0.3,1.2c-0.1,0.6-0.5,0.7-1.1,0.6c-6.2-1.4-12.5-2.8-18.7-4.2c-0.5-0.1-1.1-0.2-1-1c0.1-0.7,0.5-1.1,1.3-0.9
		c0.2,0,0.4,0.1,0.6,0.1c3.8,0.1,4.8-0.5,5.5-4.3c2.4-11.8,4.7-23.7,7-35.5c0.6-3.3,0-4.3-3.3-5.4c-0.2-0.1-0.4-0.1-0.6-0.2
		c-0.5-0.2-1.3-0.3-1.1-1.2c0.2-1,1-0.8,1.6-0.7c4.5,0.6,9,1.2,13.4,1.8c1.4,0.2,2.8,0.4,4.2,0.6c0.6,0.1,1.3,0,1.3,0.9
		c0,0.8-0.5,0.9-1.2,1c-5.7,1-5.7,1-6.8,6.7c-0.8,3.8-1.5,7.7-2.2,11.5c-0.2,1.2-0.1,1.7,1.2,1.9c6.6,1.1,13.2,2.2,19.7,3.4
		c1.2,0.2,1.5-0.2,1.7-1.2c0.8-4.6,1.6-9.1,2.4-13.7c0.7-4.4,0.1-5.4-4.1-6.9c-0.6-0.2-1.6-0.2-1.4-1.3c0.2-1.1,1.1-0.8,1.8-0.7
		c6.5,0.8,13,1.7,19.4,2.6c0.7,0.1,1.6,0,1.5,1.2c-0.1,1-0.9,0.8-1.5,0.9c-5.5,0.4-5.8,0.3-6.9,5.7c-2.4,12.3-4.7,24.6-6.3,37.1
		c-0.6,4.3,0.4,5.4,4.5,6.8c0.9,0.3,1.9,0.4,1.5,1.6c-0.4,1.4-1.5,0.5-2.2,0.4c-5.7-1.2-11.4-2.5-17.2-3.8c-0.9-0.2-1.7-0.4-2.6-0.6
		c-0.7-0.1-1.3-0.2-1.2-1.2c0.2-1,0.8-0.9,1.5-0.8C273,87.9,273.5,87.9,273.9,87.9z"/>
	<path fill="#FCFCFB" d="M430.8,72.6c0.3,4.1-1.9,7.3-6.4,9.1c-3,1.2-6.2,1.6-9.4,2c-1.2,0.2-2.2-0.4-2.6-1.7
		c-0.2-0.8-0.5-1.5-0.6-2.3c-0.7-5.1-1.3-10.2-2-15.2c-0.2-1.4,0.1-2.1,1.6-2.2c3.6-0.3,7.2-0.9,10.8-0.3
		C427.6,62.8,430.3,66.1,430.8,72.6z"/>
	<path fill="#FCFCFB" d="M414.1,42.5c3.7-0.2,7.2,0.2,9.2,3.5c2.5,4.1,2.1,8.3-2.4,10.6c-3.4,1.8-7.2,2-10.9,2.5
		c-0.9,0.1-1-0.5-1.1-1.1c-0.6-4.3-1.1-8.5-1.6-12.8c-0.2-1.5,0.5-2.2,2-2.4C410.9,42.7,412.6,42.4,414.1,42.5z"/>
</g>
</svg>
