<svg xmlns="http://www.w3.org/2000/svg" baseProfile="tiny" viewBox="0 0 593.22 166.53"><path fill="#030101" d="M.23 150.65l.9-43.45.94-37.95.84-30.2c.03-1.35.2-2.04 1.86-2.14l65.48-4.4c1.7-.1 1.64-.77 1.23-2.02L66.96 16.2c-.53-1.6-.37-2.1 1.48-2.27l63.1-5.84 45.98-4.15L218.02.1c1.85-.18 3.08-.36 2.65 2.44-.73 4.76-.83 9.6-1.25 14.4-.13 1.48.17 2.04 1.9 1.88l42.5-3.9 46.46-4.32 11.93-1.06c2.96-.24 3.04-.15 2.67 2.7-.34 2.64-.57 5.3-1.16 7.9-.43 1.9.08 2.57 1.92 2.74l20.86 2.1 41.44 4.34 12.92 1.2c1.97.15 2.84.63 2.25 2.9-.67 2.53-.16 2.9 2.5 2.52l47.03-6.86 30.52-4.36c1.1-.16 1.5.2 1.8 1.15.54 1.75 1.28 3.45 1.7 5.22.4 1.64 1.3 2.1 2.87 1.9l17.04-2.14 25.68-3.32 21.25-2.64c1.8-.26 2.28.34 2.8 1.77l36.15 98.73c1.27 3.46 1.25 2.98-2.1 3.6l-64.2 11.83c-2 .34-2.03 1.12-1.5 2.67l5.1 15.14c.9 2.7.9 2.7-1.87 2.76l-25.72.63-138.3 3.98c-.08 0-.17.01-.25 0-2.13-.1-4.97 1.37-6.2-.16-1.1-1.4.33-4.1.64-6.22.65-4.44 1.37-8.88 2.23-13.28.32-1.64 0-2.38-1.7-2.8L310.7 131.2c-1.87-.5-2.33.07-2.52 1.72-.3 2.64-.88 5.26-1.05 7.9-.13 1.96-.94 2.32-2.7 2.08l-101.9-13.46c-1.15-.15-1.64-.6-1.6-1.72.05-1.95-.85-2.57-2.8-2.3l-46.2 6.34-44.74 6.03c-.63.1-1.66.4-1.84-.25-.64-2.3-2.24-1.2-3.38-1l-88.03 16.4c-3.76.7-7.55 1.28-11.26 2.2-2.27.56-2.87-.1-2.6-2.23.1-.74.02-1.5.02-2.25.04-.01.1-.01.14-.01z"/><path d="M87.82 35.32c-.32-1.37-.48-2.8-1-4.1-.68-1.67.06-1.96 1.47-2.1l32.8-3.15 83.22-8.15c1.64-.2 1.78.4 1.65 1.68l-.47 5.72c-.2 1.57.3 1.96 1.88 1.83l105.88-8.15c1.47-.1 2.34-.17 1.9 1.84-.5 2.34-.58 4.78-.84 7.18-.7.82-1.64.68-2.55.57l-8.92-1.02c-2.16-.34-2.98.43-3.4 2.46l-17 82.58c-.46 1.82.18 2.78 2.05 3.2l15.5 3.85c1.1.28 2.35.33 3 1.5l-1.9 14.58c-.15 1.33-.53 1.53-1.8 1.36l-36.13-4.48-34.4-4.14-22.24-2.8c-1.23-.15-1.6-.6-1.73-1.8l-2.54-21.58c-.8 2.5-.72 5.05-.8 7.6-.07 2.16.4 4.73-.6 6.36-1.03 1.66-3.82 1.02-5.87 1.28l-30.2 3.98-35.84 4.93-14.5 1.82c-2 .24-.96-1.92-1.88-2.57-.96-.72-1.04-1.86-1.32-2.88L88 37.98c-.23-.87-.66-1.74-.18-2.66zm304.15 10.56l42.6-5.83 35-4.63c1.93-.26 4.33-1.4 5.66-.38 1.22.93 1.28 3.45 1.7 5.3.34 1.47.94 1.9 2.55 1.7l25.43-3.3 24.93-3.26 17.27-2.28c1.53-.24 1.95.12 2.4 1.5l26.35 80.2c.55 1.66.07 1.97-1.48 2.24l-69.65 12.2c-2.25.4-2.7 1.02-1.9 3.1.82 2.16 1.2 4.5 1.94 6.68.6 1.8.12 2.2-1.7 2.3l-58.17 2.62-68.4 3.17c-1.98.1-2.66-.2-2.2-2.33.44-2 .43-4.12.62-6.2-.9-2.75.06-5.46.4-8.13l9.78-80.48c.5-4.2 2.62-5.5 6.87-4.2z" fill="#fdfdfd"/><path d="M87.82 35.32l8.42 30.22 15.9 58.16c.17.63.26 1.3.4 1.94L11 143.67c-2.38.43-2.75-.14-2.74-2.36l.22-97.65c0-2.17.52-2.67 2.7-2.8l37.3-2.8 39.3-2.72zm304.15 10.56c-5.82.6-5.75.62-6.5 6.86L375.3 137c-.07.57-.25 1.13-.38 1.7l-69.26-17.03-2.67-.57-19.6-4.83c-2.02-.45-2.23-1.27-1.86-3.05l14.2-68.67L299 28.4c.32-1.75 1.03-2.05 2.66-1.84 4.2.55 8.42.92 12.63 1.36l20.78 2.52 56.75 6.42c1.16.12 1.55.33 1.27 1.64-.5 2.43-.75 4.92-1.12 7.38z" fill="#fb0e1c"/><path fill="#070707" d="M253.7 78.74l.08 27.47c.2 5.9.93 6.37 6.7 7.83.32.08.66.12.98.2.8.2 2.05-.2 1.94 1.3-.13 1.78-1.5.93-2.3.88-3.9-.26-7.8-.63-11.7-1l-13.66-1.38c-.8-.08-1.8.04-1.67-1.26.1-1.15 1.02-.86 1.72-.9 6.24-.3 7.04-1 6.96-7.28l-.88-52.46c-.02-1-.01-1.84-1.42-1.73-3.8.28-7.63.1-11.42.95-4.03.9-6.1 3.47-7.08 7.2-.45 1.68-.82 3.4-1.06 5.13-.16 1.14-.65 1.6-1.77 1.6-1.14-.02-1.3-.7-1.36-1.64-.25-5.4-.78-10.8-.74-16.2.01-1.5.38-2 1.93-2.04l61.43-2.37c1.2-.05 2.34-.27 2.25 1.63-.3 6.15.06 12.32-.5 18.47-.1 1.2-.23 2.12-1.72 2.2-1.4.08-2.17-.37-2.42-1.85-.27-1.63-.65-3.26-1.17-4.82-2.37-7-4.46-8.04-11.68-8.7-2.9-.26-5.83.12-8.74.01-1.96-.07-2.58.56-2.56 2.56l.04 26.23c-.07-.01-.13-.01-.2-.01z"/><path fill="#030101" d="M167.07 105.46c.8.6 2.73-1.1 2.86.86.14 2.1-1.9 1-2.9 1.15l-23.14 3c-.72.1-1.63.4-1.76-.72-.12-1.1.94-.93 1.57-1.2.15-.06.33-.04.5-.07 5.6-1.16 6.74-3.04 5.98-8.7l-3.73-29.88c-.8-5.74-.9-11.57-2.65-17.2-.88-2.83-2.66-4.08-5.35-4.42-1.48-.2-2.98-.32-4.46-.25-1.23.06-1.6-.5-1.75-1.53-.18-1.2.56-1.4 1.47-1.5l30.77-3.13c.93-.1 1.6-.12 1.78 1.07.17 1.17-.27 1.6-1.37 1.87-8.23 2.14-9.1 3.26-8.4 11.76l3.66 41.28c.06.66.17 1.32.28 1.98.74 4.74 1.64 5.5 6.63 5.62z"/><path d="M526.1 71.87l6.28 1.6c7.13 2.07 10.62 7.13 11.2 14.27.56 6.74-2.8 11.4-8.48 14.6-4.5 2.56-9.46 3.47-14.5 4.26l-29.56 4.87c-.74.12-1.88.94-2.14-.68-.22-1.37.72-1.7 1.76-1.9l.73-.16c5.54-1.5 7-3.3 6.54-9.1-.6-8.04-1.48-16.07-2.25-24.1l-1.28-13.4c-.06-.58-.08-1.16-.16-1.74-.7-5.55-1.55-6.28-7.1-6.28-.73 0-1.86.7-1.93-.7-.06-1.2 1.13-1.05 1.87-1.14 9.66-1.1 19.22-3.13 28.97-3.46 2.75-.1 5.48.14 8.17.78 5.23 1.24 8.34 4.6 9.57 9.73 1.07 4.5-.74 8.5-4.9 11.02-.75.47-1.57.86-2.8 1.54zm-120.54 9.46V63.1c0-3.6-.9-4.48-4.56-4.7-1-.07-2.76.7-2.9-.82-.18-1.88 1.82-1.3 2.86-1.44l21.3-2.65c.74-.1 1.84-.62 2.05.62.2 1.17-.9 1.1-1.67 1.35-2.64.82-5.76 1-6.5 4.52-.17.8-.22 1.65-.2 2.47l.3 33.98c.02 2.43.53 4.78 1.16 7.1 2.03 7.6 8.36 11.38 15.94 11.38 4.33 0 8.62-.44 12.64-2.35 6.32-3 9.22-8.14 9.47-14.92.3-7.9-1.7-15.53-2.68-23.27-.62-4.87-1.5-9.7-2.28-14.55-.78-4.9-2.2-6.2-7.14-6.6-.58-.05-1.16-.15-1.74-.18-.6-.02-1.22-.01-1.3-.8-.1-.9.52-1.12 1.24-1.2l20.57-2.57c.7-.1 1.36-.07 1.47.87.1.76-.37.98-1 1.14-8.48 2.23-7.1 5.07-6.32 11.03 1.2 9 2.92 17.9 4.37 26.86.8 5.02 1.17 10.06-.07 15.1-1.9 7.74-6.76 12.82-14.13 15.53-8.5 3.12-17.22 3.68-25.98 1.45-9.03-2.3-15-10.58-15.6-20.37-.34-6.27.16-12.5.7-18.73z" fill="#070707"/><path d="M38.26 76.48c.28 7.46 1.13 14.1 5.1 19.9 5.1 7.45 12 11.32 21.2 11.4 5.26.05 9.7-1.9 14.13-4.2 2-1.04 2.64-2.55 2.17-4.74L77.5 82.46c-1.06-5.07-2.24-6-7.46-6.06-.95-.01-2.23.4-2.28-1.12C67.7 73.72 69.12 74.1 70 74l19.85-2.24c.95-.1 1.88-.4 2.15.92.27 1.35-.84 1.1-1.58 1.33-2.9.9-3.85 2.5-3.15 6.3.84 4.58 1.97 9.1 3 13.66.36 1.62.6 3.3 1.17 4.85.83 2.32-.06 3.78-1.9 5.07-8.15 5.72-17.12 9.05-27.1 9.67-8.8.54-16.8-1.57-24-6.67-8.28-5.85-12.23-14.1-12.9-23.98-1.1-15.74 8-28.1 20.8-32.7 7.94-2.86 16-2.48 24.12-1.2 2.07.33 3.9.3 5.13-1.93.7-1.3 2.3-1 2.74.47 1.42 4.87 2.7 9.77 4.04 14.66.16.58 0 1-.58 1.16-.92.24-1.8.3-2.48-.6-.9-1.2-1.82-2.38-2.78-3.53-6.6-7.87-14.9-9.02-22.74-6.73-9.36 2.73-14.55 9.73-15.3 19.17-.15 1.8-.36 3.6-.18 4.77zm300.04 32.04c4.4-.1 5.58-.87 6.55-5.53 1.37-6.6 2.4-13.26 3.62-19.9.24-1.3-.23-1.78-1.45-2l-24.82-4.44c-1.23-.23-1.62.15-1.83 1.28l-3.74 20.14c-.64 3.7.64 5.4 4.78 6.97.67.25 1.65.2 1.78 1.1s.12 1.9-1.4 1.57l-22.9-5.12c-.74-.16-1.55-.27-1.3-1.38.2-.96.84-1 1.7-.98 5.85.1 6.5-.35 7.65-6.08l8.36-42.64c.86-4.44.13-5.53-4.13-7.1-.83-.3-2.3-.23-1.85-1.76.36-1.26 1.53-.75 2.36-.64l21.04 2.84c.77.1 1.83-.14 1.8 1.15-.02 1.37-1.12 1.2-2 1.28-5.9.6-6.43 1.02-7.6 6.85l-3.04 15.7c-.3 1.45-.03 2.05 1.56 2.3l24.38 4.2c1.47.27 1.88-.2 2.1-1.52l2.96-16.97c.9-5.5.15-6.66-5.1-8.5-.8-.28-2.02-.22-1.72-1.62.3-1.38 1.42-.92 2.24-.82l24.02 3.18c.74.1 1.83-.03 1.8 1.24-.04 1.36-1.08 1.2-2 1.24-.83.03-1.66.1-2.5.18-3.55.33-4.58 1.17-5.47 4.72-2.14 8.5-3.23 17.17-4.72 25.78-1.28 7.38-2.92 14.7-3.56 22.18-.46 5.3.47 6.66 5.63 8.4 1.1.37 2.26.64 1.8 2.1-.48 1.52-1.73.6-2.55.42l-23.64-5.27c-.88-.2-2.5.23-2.2-1.6.28-1.76 1.65-.85 2.6-.95.26-.04.5-.01.76-.01z" fill="#fef7f7"/><path fill="#fdfdfd" d="M516.73 75.97l5.1.56c9.43 1.42 11.5 10.87 9.9 17.1-.97 3.8-4.17 5.64-7.47 7.14-3.68 1.66-7.7 2-11.63 2.52-1.52.2-2.8-.4-3.3-2.02-.28-.87-.6-1.74-.73-2.63l-2.56-19.28c-.25-1.7.2-2.44 1.94-2.57 3.06-.22 6.1-.57 8.76-.82z"/><path fill="#fef7f7" d="M511.45 52.44c4.62-.27 8.9.24 11.43 4.35 3.2 5.2 2.52 10.55-3.4 13.4-4.1 1.98-8.64 2.28-13.07 2.92-1.1.16-1.25-.54-1.35-1.32l-2.04-15.84c-.23-1.8.5-2.78 2.4-3 2.08-.25 4.12-.66 6-.5z"/></svg>