<?xml version="1.0" encoding="utf-8"?>
<!-- Generator: Adobe Illustrator 22.0.1, SVG Export Plug-In . SVG Version: 6.00 Build 0)  -->
<svg version="1.2" baseProfile="tiny" id="Layer_1" xmlns="http://www.w3.org/2000/svg" xmlns:xlink="http://www.w3.org/1999/xlink"
	 x="0px" y="0px" viewBox="0 0 974.2 267.7" xml:space="preserve">
<g id="EHgkYx.tif">
	<g>
		<path fill="#070302" d="M244.7,86.5c0.9-2,0.9-3.9,1.2-5.7c0.2-1.5,0.7-2.1,2.3-1.9c6.5,0.7,13.1,1.4,19.6,2
			c7.7,0.8,15.5,1.7,23.2,2.5c8,0.9,15.9,1.7,23.9,2.6c7.6,0.8,15.2,1.6,22.8,2.4c7.9,0.8,15.8,1.7,23.7,2.6c2.9,0.3,5.9,0.6,8.8,1
			c1.4,0.2,1.4-0.8,1.7-1.6c2.9-10.5,5.7-21,8.6-31.5c5.2-19.1,10.4-38.2,15.5-57.3c0.4-1.6,1-1.8,2.5-1.2
			c53.1,19.1,106.2,38.1,159.3,57.2c6.2,2.2,12.4,4.5,18.6,6.6c1.7,0.6,2.6,1.4,2.4,3.4c-0.2,1.8,0,3.6-0.1,5.5
			c-0.1,1.4,0.2,2,1.9,1.7c16.9-3.6,33.7-7,50.6-10.5c11.9-2.5,23.8-4.9,35.7-7.4c1.6-0.3,2.3,0.2,2.9,1.7
			c2.7,6.6,5.6,13.2,8.3,19.8c0.6,1.4,1.2,1.7,2.7,1.4c21.1-3.8,42.3-7.4,63.4-11.2c16.7-2.9,33.3-5.9,50-8.9
			c6.1-1.1,12.2-2.1,18.3-3.3c1.6-0.3,2,0.3,2.3,1.8c3,17.3,6,34.5,9.5,51.9c1.1-3.9,2.2-7.8,3.2-11.8c1.9-7.1,3.8-14.2,5.6-21.3
			c0.5-1.9,1.3-2,3-1.6c34.1,9.2,68.2,18.3,102.3,27.5c11.2,3,22.3,6,33.5,8.9c1.9,0.5,2.5,1.1,1.9,3.2
			c-10.9,40.3-21.7,80.6-32.5,120.9c-1.3,5-2.7,9.9-3.9,14.9c-0.4,1.8-1.1,2.4-3,1.8c-24.4-6.6-48.9-13.2-73.4-19.8
			c-20-5.4-40-10.7-60-16.1c-3.6-1-6.9,0-10.3,0.6c-23.1,4-46.1,8.1-69.2,12.2c-7.1,1.3-14.3,2.5-21.4,3.9c-1.7,0.3-2.4,0.1-2.7-1.8
			c-1.9-11.4-4-22.7-6-34.5c-4.5,2.7-8.7,5.3-13,7.9c-28.3,17.2-56.6,34.4-84.8,51.7c-1.7,1-2.3,1.1-3.1-1
			c-3.4-9.2-7.1-18.3-10.6-27.5c-0.2-0.6-0.5-1.2-1-2.5c-0.1,1.2-0.2,1.8-0.2,2.4c0,6.4-0.1,12.7,0,19.1c0,1.7-0.3,2.4-2.2,2.4
			c-12.3,0.4-24.5,0.9-36.8,1.3c-12.2,0.5-24.4,0.9-36.5,1.4c-12.1,0.5-24.2,0.9-36.3,1.4c-12.3,0.5-24.5,0.9-36.8,1.4
			c-12.1,0.5-24.2,0.9-36.3,1.4c-12.3,0.5-24.5,0.9-36.8,1.4c-9.4,0.4-18.8,0.8-28.1,1.2c-2.8,0.1-2.8,0.1-2.1-2.7
			c1.3-4.7,2.5-9.5,3.9-14.2c0.4-1.5,0.3-2.2-1.3-2.6c-17.6-4.4-35.2-8.8-52.8-13.2c-2.3-0.6-4,0.9-6.1,1.2
			c-11.9,1.6-23.8,3.4-35.7,5.2c-12.6,1.9-25.2,3.9-37.9,5.7c-12.7,1.9-25.4,3.7-38.1,5.6c-12.6,1.9-25.2,3.9-37.9,5.7
			c-13.8,2.1-27.5,4-41.3,6.1c-13.6,2-27.2,4.1-40.8,6.2c-12.3,1.9-24.7,3.7-37,5.5c-1.6,0.2-2.1,0-1.7-1.9c7.2-31,14.3-62,21.4-93
			C31,131.4,40.5,90.1,49.9,48.9c3.3-14.3,6.6-28.6,9.9-42.9c0.3-1.3,0.5-1.7,2-1.3c16.4,4,32.9,7.9,49.3,11.8
			c37.1,8.8,74.3,17.7,111.4,26.5c3.9,0.9,7.8,1.9,11.7,2.7c1.5,0.3,2.2,1.1,2.6,2.6C239.3,61,242,73.6,244.7,86.5z M243.8,143.4
			c-0.2-1.1-0.4-2.2-0.6-3.3c-1.9-10.1-3.8-20.2-5.7-30.3c-2-10.9-4.1-21.8-6.1-32.8c-1.3-7-2.7-14-4-21c-0.2-1.1-0.6-1.4-1.7-1.7
			c-6.7-1.4-13.3-2.9-19.9-4.3c-17-3.7-33.9-7.4-50.9-11.1c-16.5-3.6-33.1-7.2-49.6-10.7c-8.8-1.9-17.6-3.7-26.4-5.7
			c-1.1-0.2-1.6-0.2-1.7,1.1c-0.3,2.5-0.9,4.9-1.3,7.4c-3.5,20.3-7.1,40.5-10.6,60.8c-3.7,21.1-7.5,42.1-11.2,63.2
			c-4.2,23.9-8.4,47.8-12.6,71.7c-0.4,2.4-0.4,2.6,2.2,2.3c16.7-1.7,33.3-3.4,49.9-5.1c17.1-1.8,34.2-3.6,51.3-5.3
			c15.7-1.6,31.3-3.1,47-4.7c16.6-1.7,33.3-3.4,49.9-5.1c8.9,2.1,17.7,4.2,26.6,6.3c28.3,6.8,56.6,13.7,84.8,20.5
			c1.3,0.3,1.8,0.2,2-1.4c1.2-7,2.6-13.9,3.9-20.9c2.3-12.6,4.6-25.3,7-38c2.2-11.8,4.4-23.7,6.6-35.5c2.2-11.8,4.4-23.5,6.6-35.3
			c0.2-1.3-0.1-1.9-1.5-2.1c-4.4-0.4-8.9-1-13.3-1.5c-9.8-1.1-19.5-2.3-29.3-3.4c-9.8-1.1-19.5-2.3-29.3-3.4
			c-9.8-1.1-19.5-2.3-29.3-3.4c-7.3-0.8-14.6-1.7-21.9-2.5c-1.1-0.1-1.7-0.2-2,1.3c-1.6,10.1-3.3,20.2-4.9,30.2
			C246.4,127.8,245.1,135.6,243.8,143.4z M566.1,143.7c0.3,0.6,0.6,1.2,0.9,1.8c11.4,29,22.7,57.9,34.1,86.9c0.6,1.6,1,1.7,2.5,0.9
			c21.7-12.4,43.4-24.7,65.1-37c9.9-5.6,19.7-11.1,29.7-16.8c0.2,0.8,0.4,1.4,0.5,2c1.8,10.3,3.6,20.6,5.4,30.8
			c0.2,1,0.2,1.7,1.6,1.5c4.4-0.8,8.7-1.6,13.1-2.4c11.7-2.1,23.4-4.1,35.1-6.2c10.7-1.9,21.5-3.8,32.2-5.7
			c6.9-1.2,13.8-2.3,20.7-3.5c0.1,0.1,0.2,0.2,0.3,0.3c-0.4,1.7-0.7,3.4-1.3,5c-0.6,1.7-0.2,2.1,1.5,2.5
			c39.4,10.5,78.7,21.1,118.1,31.7c2.8,0.7,2.8,0.7,3.6-2.2c0.3-1.2,0.6-2.3,0.9-3.5c10.2-38.3,20.5-76.6,30.7-114.8
			c0.4-1.5,0.2-1.9-1.3-2.3c-39.7-10.6-79.5-21.2-119.2-31.9c-1.7-0.5-2.1-0.1-2.6,1.5c-3.9,14.7-7.8,29.4-11.8,44.1
			c-1.5,5.7-3.1,11.3-4.7,17.5c-1.5-8.2-2.9-15.9-4.3-23.6c-3.1-17.5-6.1-35.1-9.1-52.6c-0.2-1.1-0.6-1.4-1.7-1.2
			c-2.5,0.5-5,0.9-7.6,1.3c-18.5,3.3-36.9,6.6-55.4,9.9c-19.9,3.5-39.7,7-59.6,10.4c-1.3,0.2-1.4,0.6-1.2,1.7
			c1.5,8,2.9,15.9,4.3,23.9c0.7,4.2,1.4,8.3,2.1,12.5c-0.6-0.4-0.9-0.9-1.1-1.4c-7.4-17.7-14.9-35.3-22.2-53.1
			c-0.6-1.6-1.2-1.9-2.9-1.4C630.9,78.2,599,85.8,567,93.3c0-5.5-0.2-11.1,0.1-16.6c0.1-2.4-0.6-3.3-2.8-4
			c-49.5-16.4-99-32.8-148.4-49.3c-1.9-0.6-2.6-0.4-3.1,1.7c-3.4,14.8-7,29.6-10.5,44.4C389.6,122.2,377,175,364.3,227.7
			c-0.4,1.8,0,2.3,1.8,2.3c22.5,0,45,0.2,67.5,0.2c35.6,0.1,71.2,0.1,106.9,0.2c7.4,0,14.9,0,22.3,0.1c1.2,0,1.9,0,2-1.6
			c0.1-6.9,0.3-13.8,0.4-20.7c0.2-15.4,0.3-30.8,0.5-46.1C565.8,155.9,566,149.8,566.1,143.7z"/>
		<path fill="#FDFDFD" d="M567,93.3c31.9-7.5,63.9-15.1,95.8-22.7c1.8-0.4,2.3-0.1,2.9,1.4c7.4,17.7,14.8,35.4,22.2,53.1
			c0.2,0.5,0.5,1,1.1,1.4c-0.7-4.2-1.4-8.3-2.1-12.5c-1.4-8-2.8-15.9-4.3-23.9c-0.2-1.1-0.1-1.5,1.2-1.7
			c19.9-3.4,39.7-6.9,59.6-10.4c18.5-3.3,36.9-6.6,55.4-9.9c2.5-0.4,5.1-0.8,7.6-1.3c1.1-0.2,1.5,0,1.7,1.2
			c3,17.5,6.1,35.1,9.1,52.6c1.3,7.7,2.8,15.4,4.3,23.6c1.7-6.1,3.2-11.8,4.7-17.5c3.9-14.7,7.9-29.4,11.8-44.1
			c0.4-1.6,0.8-2,2.6-1.5c39.7,10.7,79.4,21.3,119.2,31.9c1.5,0.4,1.7,0.8,1.3,2.3c-10.3,38.3-20.5,76.6-30.7,114.8
			c-0.3,1.2-0.6,2.3-0.9,3.5c-0.8,2.9-0.8,2.9-3.6,2.2c-39.3-10.6-78.7-21.2-118.1-31.7c-1.7-0.4-2.1-0.9-1.5-2.5
			c0.6-1.6,0.9-3.4,1.3-5c0-0.2,0-0.4,0-0.5c-0.1,0.1-0.2,0.1-0.3,0.2c-6.9,1.2-13.8,2.3-20.7,3.5c-10.8,1.9-21.5,3.8-32.2,5.7
			c-11.7,2.1-23.4,4.1-35.1,6.2c-4.4,0.8-8.7,1.5-13.1,2.4c-1.4,0.3-1.4-0.5-1.6-1.5c-1.8-10.3-3.6-20.6-5.4-30.8
			c-0.1-0.7-0.3-1.3-0.5-2c-10,5.6-19.8,11.2-29.7,16.8c-21.7,12.3-43.4,24.6-65.1,37c-1.4,0.8-1.9,0.7-2.5-0.9
			c-11.3-29-22.7-58-34.1-86.9c-0.2-0.6-0.6-1.2-0.9-1.8c-2.7-7-5.3-13.9-8-20.9c-3.2-8.3-6.5-16.6-9.8-25
			C554.6,96.2,560.8,94.8,567,93.3z M641.4,140.2c2.3-1.4,4.2-2.7,5.9-4.3c3.9-3.7,7.1-7.9,6.8-13.5c-0.6-10.4-7.2-20.9-21.2-21.6
			c-6.2-0.3-12.1,1-18,2.7c-10.2,3-20.5,5.8-30.7,8.8c-0.5,0.2-2-0.2-1.6,1.3c0.3,1.1,0.9,1.7,2.1,1.4c0.4-0.1,0.9-0.1,1.3-0.2
			c6-1.2,8.6-0.1,11.5,5.3c0.7,1.2,1.2,2.4,1.7,3.7c4.5,11.3,9.1,22.5,13.6,33.8c3.2,8.3,7.1,16.3,9.6,24.9
			c1.8,6.1,0.8,8.3-4.5,11.8c-0.4,0.3-0.8,0.5-1.2,0.7c-1.2,0.6-1.4,1.3-0.8,2.5c0.8,1.6,1.6,0.2,2.1-0.1
			c9.7-4.8,19.4-9.7,29.1-14.6c0.3-0.2,0.7-0.4,1-0.5c0.8-0.3,0.6-0.9,0.4-1.5c-0.2-0.6-0.6-1.1-1.3-0.8c-0.6,0.2-1.3,0.4-1.9,0.7
			c-5.9,1.9-8.2,0.9-10.7-4.7c-0.1-0.3-0.3-0.5-0.4-0.8c-3.1-7.6-6.2-15.1-9.2-22.7c-1.3-3.2-1.2-3.1,1.9-4.6c2.3-1.1,4-0.9,6.2,0.5
			c11.9,7.5,23.8,14.9,35.8,22.3c0.7,0.5,1.4,0.7,2.3,0.3c4.3-2.3,8.7-4.5,13.1-6.7c0.5-0.3,1.2-0.3,0.8-1.2
			c-0.3-0.8-0.7-1.4-1.6-1.1c-3.7,1.3-6.8-0.2-9.8-2c-8.3-5-16.5-10-24.8-15C646.4,143.3,644,141.8,641.4,140.2z M904.2,182.7
			c-1.1-0.5-1.1-1.4-1.4-2.2c-9.8-22.2-19.5-44.4-29.2-66.6c-0.5-1.2-0.9-2.4-2.6-2.8c-6-1.5-11.9-3.1-17.8-4.7
			c-0.7-0.2-1.5-0.9-2,0.5c-0.5,1.3,0.4,1.7,1.3,1.9c3.8,0.9,5.7,3.7,7.4,6.9c0.8,1.6,1,3,0.5,4.7c-4.6,17-9.2,34.1-13.7,51.1
			c-0.9,3.5-1.9,7-3.7,10.2c-1.6,2.9-4,3.9-7.1,3.9c-1.4,0-2.9-0.2-4.3-0.4c-1.1-0.2-1.5,0.4-1.7,1.3c-0.3,1.1,0.6,1,1.2,1.1
			c2.9,0.8,5.8,1.6,8.7,2.4c5.7,1.5,11.3,3,17,4.5c0.8,0.2,1.6,0.7,2-0.5c0.5-1.2-0.3-1.6-1.2-2c-0.6-0.2-1.1-0.4-1.7-0.7
			c-4.6-2.2-5.8-4.2-5.5-9.3c0.2-3,0.8-5.8,1.6-8.7c3.8-14.2,7.6-28.3,11.4-42.4c0.4-1.4,0.5-2.9,1.3-4.2c0.7,0.3,0.8,0.9,1,1.3
			c3.1,7,6.2,13.9,9.2,20.9c8.5,19.2,17,38.4,25.5,57.6c0.4,1,1,1.8,2.1,1.8c1.2,0,1-1.2,1.2-1.9c4.7-17.3,9.3-34.6,14-52
			c1.7-6.2,3.1-12.5,5.6-18.4c1.6-3.8,4.5-5.5,8.6-5.3c1.1,0,2.3,0.2,3.4,0.3c0.9,0.1,1.5-0.1,1.7-1.1c0.2-1-0.4-1.3-1.2-1.5
			c-8.7-2.3-17.4-4.6-26.1-7c-0.9-0.2-1.3-0.2-1.7,0.8c-0.4,1.1,0.1,1.4,0.9,1.7c1,0.5,2.1,0.9,3.1,1.4c3.4,1.6,4.9,4.4,4.7,8
			c-0.1,1.7-0.2,3.5-0.7,5.2c-2.2,8.6-4.5,17.1-6.7,25.6C907.6,170.3,905.9,176.5,904.2,182.7z M741.6,182.6
			c-5.3,0.2-7.2-1.9-6.6-7.1c0-0.4,0.1-0.7,0.2-1.1c1-5,2-9.9,2.8-14.9c0.2-1.3,0.9-1.7,2.1-1.9c9.8-1.7,19.6-3.4,29.5-5.2
			c1.2-0.2,1.8,0.1,2.4,1c2.3,3.6,4.7,7,7,10.6c1.2,1.9,2.2,4,3,6.1c1.1,2.9,0.2,4.6-2.7,5.6c-1.2,0.4-2.4,0.8-3.7,1.1
			c-0.9,0.3-1.1,0.7-0.9,1.7c0.2,1,0.8,0.9,1.5,0.8c9.6-1.7,19.1-3.4,28.7-5.1c0.6-0.1,1.8,0.2,1.7-1.2c-0.1-1.4-1.1-1.4-2.1-1.4
			c-3,0.1-5.4-1.1-7.3-3.5c-1-1.3-2.1-2.6-3-4c-14.6-21.9-29.2-43.8-43.8-65.7c-0.6-0.8-1-1.5-2.3-1.4c-1.5,0.1-1.5,1.2-1.7,2
			c-3.4,14.7-6.8,29.4-10.2,44.2c-2.7,11.6-5,23.3-8.5,34.8c-1.1,3.8-2.8,7.2-7,8.5c-0.9,0.3-1.1,1-0.9,1.8c0.2,1,1,0.8,1.6,0.7
			c1.6-0.2,3.3-0.6,4.9-0.9c5.8-1,11.6-2.1,17.4-3.1c0.6-0.1,1.3,0,1.1-1c-0.2-0.7-0.3-1.5-1.4-1.4
			C742.8,182.7,742.2,182.6,741.6,182.6z"/>
		<path fill="#ED2225" d="M567,93.3c-6.2,1.5-12.4,2.9-18.7,4.4c3.3,8.4,6.6,16.7,9.8,25c2.7,7,5.4,13.9,8,20.9
			c-0.2,6.1-0.4,12.3-0.5,18.4c-0.2,15.4-0.3,30.8-0.5,46.1c-0.1,6.9-0.4,13.8-0.4,20.7c0,1.6-0.8,1.6-2,1.6
			c-7.4-0.1-14.9-0.1-22.3-0.1c-35.6-0.1-71.2-0.1-106.9-0.2c-22.5-0.1-45-0.2-67.5-0.2c-1.9,0-2.3-0.4-1.8-2.3
			C377,175,389.6,122.2,402.2,69.5c3.5-14.8,7.1-29.5,10.5-44.4c0.5-2.2,1.2-2.4,3.1-1.7c49.5,16.5,98.9,32.9,148.4,49.3
			c2.2,0.7,2.9,1.7,2.8,4C566.9,82.2,567,87.8,567,93.3z M538.9,112c0-8,0-15.9,0-23.8c0-1.3-0.5-1.7-1.6-2
			c-28.7-8.2-57.4-16.4-86-24.7c-1.8-0.5-1.8,0.4-2.1,1.5c-1.8,8-3.5,16.1-5.4,24.1c-0.5,1.9,0,2.6,2,3.1c2,0.5,2.8,0,3.4-1.9
			c0.9-2.6,2.5-5,4-7.4c2.9-4.7,7-7,12.7-6.9c7.7,0.2,14.9,2.8,22.3,4.6c1.1,0.3,0.9,0.9,0.8,1.7c-0.7,5.5-1.3,11-2,16.4
			c-1.3,10.7-2.5,21.5-3.8,32.2c-1.3,10.8-2.6,21.6-3.9,32.4c-0.6,5.3-1.2,10.7-2.7,15.9c-1.2,4.2-3.7,6.8-8.1,7.5
			c-3.2,0.5-6.5,0.8-9.7,0.9c-2.4,0.1-1.3,2-1.6,3.1c-0.4,1.3,0.9,0.8,1.5,0.9c16.9,1.2,33.8,2.5,50.8,3.7c1,0.1,2,0.5,2-1.2
			c0.1-1.3,0-2.3-1.7-2.5c-3-0.4-5.9-1.3-8.7-2.5c-2.7-1.1-4.1-3.1-4.6-6c-0.8-4.5-0.2-8.9,0.2-13.4c0.9-10,2-20,3-30
			c0.8-8.5,1.6-17,2.4-25.5c0.9-9,1.8-18,2.6-27.1c0.1-1.5,0.5-2,2-1.6c4.4,1.4,9,2.4,13.4,4c6.1,2.2,11,5.7,12.6,12.4
			c0.6,2.7,1.6,5.4,1.8,8.2C534.7,111.1,535.8,112.1,538.9,112z"/>
		<path fill="#ED2225" d="M241.7,208.8c-16.6,1.7-33.3,3.4-49.9,5.1c-15.7,1.6-31.3,3.1-47,4.7c-17.1,1.7-34.2,3.5-51.3,5.3
			c-16.6,1.7-33.3,3.4-49.9,5.1c-2.5,0.3-2.6,0.1-2.2-2.3c4.2-23.9,8.4-47.8,12.6-71.7c3.7-21.1,7.5-42.1,11.2-63.2
			c3.6-20.3,7.1-40.5,10.6-60.8c0.4-2.5,1-4.9,1.3-7.4c0.2-1.3,0.6-1.3,1.7-1.1c8.8,1.9,17.6,3.8,26.4,5.7
			c16.5,3.6,33.1,7.2,49.6,10.7c17,3.7,33.9,7.4,50.9,11.1c6.6,1.4,13.3,3,19.9,4.3c1.1,0.2,1.5,0.6,1.7,1.7c1.3,7,2.7,14,4,21
			c2.1,10.9,4.1,21.8,6.1,32.8c1.9,10.1,3.8,20.2,5.7,30.3c0.2,1.1,0.4,2.2,0.6,3.3c-0.3,1.9-0.5,3.7-0.8,5.6
			c-3.1,18.7-6.1,37.5-9.2,56.2c-0.2,1.3,0.2,1.7,1.4,2C237.3,207.6,239.5,208.3,241.7,208.8z M113.9,176.2c0-0.3,0-0.7,0-1
			c7.1,0,14.2,0,21.4,0c1.4,0,2-0.4,2-1.9c-0.1-1.3,0.2-2.5-1.9-2.5c-2.3,0.1-4.5-0.4-6.7-1c-4-1.1-6.1-3.9-6-8
			c0.1-3.2,1.2-6.1,2.4-8.9c2.9-7,6.1-13.9,8.9-20.9c0.8-1.9,1.7-2.4,3.7-2.3c14.5,0.8,29,1.6,43.6,2.3c1.1,0.1,1.8,0.4,2.2,1.5
			c3,6.6,6.1,13.1,9,19.8c1.4,3.2,2.8,6.6,2.9,10.2c0.1,3.3-0.8,4.6-4,5.3c-1.8,0.4-3.7,0.8-5.6,1c-1.5,0.2-2,0.6-1.9,2.2
			c0.1,1.7,0.7,1.9,2.1,1.9c12.9-0.4,25.8-0.6,38.6-1c0.6,0,1.8,0.4,1.7-0.8c-0.1-1.1,0.4-2.7-1.4-2.9c-5.9-0.7-9-4.7-11.5-9.5
			c-7.7-14.5-14.6-29.3-22-44c-9.1-18.2-18.1-36.5-27-54.8c-0.7-1.5-1.9-1.5-3.1-1.7c-1.2-0.2-1.2,1-1.5,1.7
			c-11.4,22.7-22.7,45.5-34.1,68.2c-5.6,11.1-10.9,22.3-17.6,32.8c-1.8,2.8-4.1,5.2-7,7c-2.6,1.5-5.4,2.3-8.3,2.8
			c-2.5,0.4-1.5,2.5-1.6,3.8c-0.2,1.7,1.3,0.8,2,0.8C100.1,176.3,107,176.2,113.9,176.2z"/>
		<path fill="#FDFDFD" d="M241.7,208.8c-2.2-0.6-4.3-1.2-6.5-1.7c-1.2-0.3-1.6-0.7-1.4-2c3.1-18.7,6.2-37.5,9.2-56.2
			c0.3-1.9,0.5-3.7,0.8-5.6c1.3-7.8,2.7-15.6,4-23.4c1.7-10.1,3.4-20.1,4.9-30.2c0.2-1.5,0.9-1.4,2-1.3c7.3,0.8,14.6,1.7,21.9,2.5
			c9.8,1.1,19.5,2.3,29.3,3.4c9.8,1.1,19.5,2.3,29.3,3.4c9.8,1.1,19.5,2.3,29.3,3.4c4.4,0.5,8.9,1,13.3,1.5c1.4,0.1,1.7,0.8,1.5,2.1
			c-2.2,11.8-4.4,23.5-6.6,35.3c-2.2,11.8-4.4,23.7-6.6,35.5c-2.3,12.6-4.6,25.3-7,38c-1.3,7-2.7,13.9-3.9,20.9
			c-0.3,1.5-0.8,1.7-2,1.4c-28.3-6.9-56.6-13.7-84.8-20.5C259.4,213,250.5,210.9,241.7,208.8z M324.1,179.6
			c-1.1-0.6-1.4-1.5-1.8-2.2c-10.7-19.7-21.6-39.4-32.1-59.2c-2.1-3.9-4.3-6.5-9-6.2c-0.3,0-0.6-0.1-0.9-0.1
			c-4.1-0.5-8.1-1.1-12.2-1.6c-1.1-0.2-1.9,0-2.2,1.3c-0.3,1.3,0.5,1.5,1.5,1.7c1.2,0.3,2.3,0.8,3.4,1.3c2.2,1,5.3,6.1,5,8.1
			c-3.1,18.7-6.1,37.3-9.6,55.9c-1.5,7.8-2.8,9.6-11.2,9.1c-1.1-0.1-1.7,0.2-1.9,1.4c-0.2,1.3,0.7,1.5,1.6,1.7
			c8,1.7,15.9,3.5,23.9,5.2c0.9,0.2,2,0.9,2.3-0.7c0.3-1.4-0.4-1.8-1.6-2.4c-4.9-2.1-6.7-2.9-7-8.3c-0.2-3.3,0.1-6.6,0.6-9.9
			c1.9-11.2,3.8-22.5,5.7-33.7c0.6-3.7,1.3-7.3,2-11.6c1.6,3,2.9,5.4,4.2,7.7c9.7,18,19.4,35.9,29.1,53.9c2.7,5.1,5.5,10.1,8.2,15.2
			c0.7,1.3,1.7,1.6,3,1.6c1.2-0.1,1.1-1.1,1.2-1.9c1.9-10.3,3.6-20.6,5.5-30.8c2.5-13.8,4.6-27.6,7.7-41.3c0.8-3.7,2.6-6.9,6.9-7.9
			c1.8-0.4,3.6-0.4,5.4-0.5c1.3-0.1,2.2-0.3,2.3-1.9c0.1-1.6-1.1-1.6-2.1-1.7c-5.4-0.8-10.8-1.5-16.2-2.2c-3.9-0.5-7.8-1-11.7-1.6
			c-1-0.1-1.7,0.1-2,1.3c-0.3,1.2,0.2,1.7,1.2,1.9c0.7,0.2,1.3,0.5,1.9,0.7c6,2.3,7.5,5,6.7,11.5c-1.3,10.7-3.7,21.3-5.4,32
			C325.9,170,325,174.7,324.1,179.6z"/>
		<path fill="#070302" d="M641.4,140.2c2.6,1.6,5,3.1,7.4,4.5c8.3,5,16.5,10,24.8,15c3,1.8,6.1,3.3,9.8,2c0.9-0.3,1.3,0.3,1.6,1.1
			c0.4,0.9-0.3,1-0.8,1.2c-4.4,2.2-8.7,4.4-13.1,6.7c-0.9,0.5-1.5,0.2-2.3-0.3c-11.9-7.4-23.9-14.8-35.8-22.3
			c-2.2-1.4-3.9-1.6-6.2-0.5c-3.1,1.5-3.2,1.4-1.9,4.6c3.1,7.6,6.2,15.1,9.2,22.7c0.1,0.3,0.3,0.5,0.4,0.8c2.6,5.6,4.8,6.6,10.7,4.7
			c0.6-0.2,1.3-0.5,1.9-0.7c0.7-0.2,1.1,0.2,1.3,0.8c0.2,0.6,0.4,1.2-0.4,1.5c-0.3,0.1-0.7,0.3-1,0.5c-9.7,4.9-19.4,9.8-29.1,14.6
			c-0.6,0.3-1.3,1.7-2.1,0.1c-0.7-1.2-0.4-2,0.8-2.5c0.4-0.2,0.8-0.5,1.2-0.7c5.3-3.5,6.2-5.8,4.5-11.8c-2.5-8.5-6.4-16.6-9.6-24.9
			c-4.4-11.3-9-22.5-13.6-33.8c-0.5-1.3-1-2.5-1.7-3.7c-3-5.4-5.5-6.5-11.5-5.3c-0.4,0.1-0.9,0.1-1.3,0.2c-1.2,0.3-1.8-0.3-2.1-1.4
			c-0.4-1.5,1.1-1.1,1.6-1.3c10.2-3,20.5-5.8,30.7-8.8c5.9-1.7,11.8-3,18-2.7c14.1,0.6,20.6,11.1,21.2,21.6
			c0.3,5.6-2.9,9.8-6.8,13.5C645.6,137.5,643.7,138.8,641.4,140.2z M642.5,125.2c0.1-2.5-0.5-4.8-1.4-7c-3.3-8.2-9.5-12.2-18.2-11.4
			c-3.7,0.3-7.3,1.3-10.7,2.6c-3.1,1.2-3.6,2.1-2.3,5.2c3.8,9.6,7.7,19.1,11.5,28.6c0.4,1,0.7,1.4,1.9,0.9c4.7-2.1,9.4-4.2,13.4-7.4
			C640.3,133.7,642.7,130.1,642.5,125.2z"/>
		<path fill="#0E0E0E" d="M904.2,182.7c1.7-6.3,3.3-12.4,5-18.6c2.3-8.5,4.5-17.1,6.7-25.6c0.4-1.7,0.6-3.4,0.7-5.2
			c0.2-3.7-1.3-6.5-4.7-8c-1-0.5-2.1-0.9-3.1-1.4c-0.7-0.3-1.3-0.6-0.9-1.7c0.4-1,0.8-1,1.7-0.8c8.7,2.4,17.4,4.7,26.1,7
			c0.8,0.2,1.4,0.5,1.2,1.5c-0.2,1-0.8,1.2-1.7,1.1c-1.1-0.1-2.2-0.3-3.4-0.3c-4.1-0.2-6.9,1.5-8.6,5.3c-2.5,5.9-3.9,12.2-5.6,18.4
			c-4.7,17.3-9.3,34.6-14,52c-0.2,0.7,0.1,1.9-1.2,1.9c-1.1,0-1.7-0.8-2.1-1.8c-8.5-19.2-17-38.4-25.5-57.6c-3.1-7-6.1-14-9.2-20.9
			c-0.2-0.4-0.3-1-1-1.3c-0.8,1.3-1,2.8-1.3,4.2c-3.8,14.1-7.6,28.3-11.4,42.4c-0.8,2.8-1.4,5.7-1.6,8.7c-0.3,5.1,1,7.1,5.5,9.3
			c0.5,0.3,1.1,0.5,1.7,0.7c0.9,0.4,1.7,0.7,1.2,2c-0.5,1.2-1.3,0.7-2,0.5c-5.7-1.5-11.3-3-17-4.5c-2.9-0.8-5.8-1.6-8.7-2.4
			c-0.6-0.2-1.5,0-1.2-1.1c0.2-0.9,0.6-1.5,1.7-1.3c1.4,0.2,2.9,0.3,4.3,0.4c3.1,0.1,5.6-1,7.1-3.9c1.8-3.2,2.7-6.7,3.7-10.2
			c4.6-17,9.1-34.1,13.7-51.1c0.5-1.8,0.3-3.2-0.5-4.7c-1.7-3.2-3.6-5.9-7.4-6.9c-0.9-0.2-1.7-0.5-1.3-1.9c0.5-1.4,1.3-0.7,2-0.5
			c5.9,1.6,11.8,3.2,17.8,4.7c1.6,0.4,2,1.6,2.6,2.8c9.7,22.2,19.5,44.4,29.2,66.6C903.1,181.3,903.2,182.2,904.2,182.7z"/>
		<path fill="#0E0E0E" d="M741.6,182.6c0.6,0,1.2,0.1,1.8,0c1.1-0.2,1.2,0.6,1.4,1.4c0.2,1-0.6,0.9-1.1,1c-5.8,1-11.6,2.1-17.4,3.1
			c-1.6,0.3-3.3,0.6-4.9,0.9c-0.6,0.1-1.4,0.3-1.6-0.7c-0.2-0.8,0-1.5,0.9-1.8c4.3-1.2,5.9-4.6,7-8.5c3.4-11.4,5.7-23.2,8.5-34.8
			c3.4-14.7,6.8-29.4,10.2-44.2c0.2-0.9,0.2-1.9,1.7-2c1.3-0.1,1.7,0.6,2.3,1.4c14.6,21.9,29.2,43.8,43.8,65.7c0.9,1.4,2,2.7,3,4
			c1.8,2.4,4.2,3.6,7.3,3.5c1,0,1.9-0.1,2.1,1.4c0.1,1.5-1.1,1.1-1.7,1.2c-9.6,1.8-19.1,3.4-28.7,5.1c-0.7,0.1-1.3,0.2-1.5-0.8
			c-0.2-0.9,0-1.4,0.9-1.7c1.2-0.3,2.5-0.7,3.7-1.1c2.9-1,3.8-2.7,2.7-5.6c-0.8-2.1-1.8-4.2-3-6.1c-2.2-3.6-4.7-7.1-7-10.6
			c-0.6-1-1.2-1.2-2.4-1c-9.8,1.8-19.6,3.5-29.5,5.2c-1.2,0.2-1.9,0.6-2.1,1.9c-0.9,5-1.9,9.9-2.8,14.9c-0.1,0.4-0.1,0.7-0.2,1.1
			C734.4,180.8,736.3,182.8,741.6,182.6z M747.9,115.6c-2.7,12.2-5.3,23.7-7.9,35.2c-0.4,1.8,0.5,1.6,1.7,1.4
			c8.3-1.5,16.5-3,24.8-4.4c2-0.3,1.7-0.9,0.9-2.3c-4.5-6.9-8.9-13.9-13.4-20.8C752,121.9,750.1,119,747.9,115.6z"/>
		<path fill="#070302" d="M807,196.1c0.1-0.1,0.2-0.1,0.3-0.2c0,0.2,0,0.4,0,0.5C807.3,196.4,807.1,196.3,807,196.1z"/>
		<path fill="#FFF9F9" d="M538.9,112c-3.1,0.1-4.1-0.9-4.3-3.4c-0.2-2.8-1.1-5.5-1.8-8.2c-1.6-6.8-6.5-10.2-12.6-12.4
			c-4.4-1.6-8.9-2.6-13.4-4c-1.5-0.5-1.9,0.1-2,1.6c-0.8,9-1.8,18-2.6,27.1c-0.8,8.5-1.5,17-2.4,25.5c-1,10-2.1,20-3,30
			c-0.4,4.4-1,8.9-0.2,13.4c0.5,2.9,2,4.8,4.6,6c2.8,1.2,5.7,2,8.7,2.5c1.7,0.2,1.7,1.2,1.7,2.5c-0.1,1.6-1.1,1.3-2,1.2
			c-16.9-1.2-33.8-2.4-50.8-3.7c-0.6,0-1.9,0.4-1.5-0.9c0.4-1.1-0.8-3,1.6-3.1c3.3-0.1,6.5-0.4,9.7-0.9c4.4-0.7,6.9-3.3,8.1-7.5
			c1.5-5.2,2-10.5,2.7-15.9c1.3-10.8,2.6-21.6,3.9-32.4c1.3-10.7,2.6-21.5,3.8-32.2c0.7-5.5,1.3-11,2-16.4c0.1-0.8,0.3-1.4-0.8-1.7
			c-7.4-1.9-14.6-4.4-22.3-4.6c-5.6-0.2-9.7,2.2-12.7,6.9c-1.5,2.4-3,4.8-4,7.4c-0.7,1.8-1.4,2.4-3.4,1.9c-1.9-0.5-2.4-1.2-2-3.1
			c1.9-8,3.6-16.1,5.4-24.1c0.2-1.1,0.3-2.1,2.1-1.5c28.7,8.3,57.3,16.5,86,24.7c1,0.3,1.6,0.7,1.6,2
			C538.8,96.1,538.9,104,538.9,112z"/>
		<path fill="#FFF9F9" d="M113.9,176.2c-6.9,0-13.8,0-20.7-0.1c-0.6,0-2.2,0.9-2-0.8c0.1-1.4-0.8-3.4,1.6-3.8
			c2.9-0.5,5.8-1.3,8.3-2.8c2.9-1.8,5.2-4.1,7-7c6.8-10.4,12.1-21.7,17.6-32.8c11.4-22.7,22.7-45.4,34.1-68.2
			c0.3-0.7,0.3-1.9,1.5-1.7c1.2,0.2,2.3,0.2,3.1,1.7c8.9,18.3,17.9,36.6,27,54.8c7.3,14.7,14.3,29.5,22,44c2.5,4.8,5.6,8.8,11.5,9.5
			c1.8,0.2,1.3,1.8,1.4,2.9c0.1,1.3-1,0.8-1.7,0.8c-12.9,0.3-25.8,0.6-38.6,1c-1.5,0-2-0.2-2.1-1.9c-0.1-1.7,0.4-2.1,1.9-2.2
			c1.9-0.2,3.7-0.6,5.6-1c3.2-0.8,4.1-2,4-5.3c-0.1-3.6-1.5-6.9-2.9-10.2c-2.9-6.6-6-13.2-9-19.8c-0.5-1-1.1-1.4-2.2-1.5
			c-14.5-0.7-29-1.5-43.6-2.3c-1.9-0.1-2.9,0.4-3.7,2.3c-2.9,7-6,13.9-8.9,20.9c-1.2,2.9-2.3,5.8-2.4,8.9c-0.1,4.1,2,6.9,6,8
			c2.2,0.6,4.4,1.1,6.7,1c2,0,1.8,1.2,1.9,2.5c0.1,1.5-0.5,1.9-2,1.9c-7.1-0.1-14.2,0-21.4,0C113.9,175.6,113.9,175.9,113.9,176.2z
			 M179.9,124.9c-7.1-15.6-14-30.7-21.1-46.2c-1.3,2.8-2.3,5.1-3.4,7.4c-5.3,11.4-10.5,22.7-15.9,34.1c-0.7,1.4-0.7,2,1.2,2.1
			c5.1,0.2,10.1,0.7,15.2,1C163.7,123.9,171.6,124.4,179.9,124.9z"/>
		<path fill="#0E0E0E" d="M324.1,179.6c0.9-4.9,1.8-9.6,2.6-14.3c1.7-10.7,4.1-21.3,5.4-32c0.8-6.4-0.7-9.2-6.7-11.5
			c-0.6-0.2-1.3-0.5-1.9-0.7c-1-0.3-1.5-0.7-1.2-1.9c0.3-1.2,0.9-1.4,2-1.3c3.9,0.5,7.8,1,11.7,1.6c5.4,0.7,10.8,1.5,16.2,2.2
			c1,0.1,2.2,0.1,2.1,1.7c-0.1,1.5-1,1.8-2.3,1.9c-1.8,0.2-3.6,0.2-5.4,0.5c-4.3,0.9-6.1,4.1-6.9,7.9c-3.1,13.7-5.1,27.5-7.7,41.3
			c-1.9,10.3-3.7,20.6-5.5,30.8c-0.1,0.7,0,1.8-1.2,1.9c-1.3,0.1-2.3-0.3-3-1.6c-2.7-5.1-5.5-10.1-8.2-15.2
			c-9.7-18-19.4-35.9-29.1-53.9c-1.3-2.4-2.6-4.7-4.2-7.7c-0.7,4.3-1.4,7.9-2,11.6c-1.9,11.2-3.8,22.5-5.7,33.7
			c-0.6,3.3-0.8,6.6-0.6,9.9c0.3,5.5,2.1,6.2,7,8.3c1.3,0.6,2,1,1.6,2.4c-0.4,1.6-1.4,0.9-2.3,0.7c-8-1.7-15.9-3.5-23.9-5.2
			c-0.9-0.2-1.8-0.4-1.6-1.7c0.2-1.2,0.8-1.4,1.9-1.4c8.4,0.5,9.7-1.3,11.2-9.1c3.5-18.6,6.4-37.3,9.6-55.9c0.3-2-2.7-7.1-5-8.1
			c-1.1-0.5-2.2-1-3.4-1.3c-1-0.2-1.8-0.4-1.5-1.7c0.3-1.3,1.1-1.5,2.2-1.3c4.1,0.6,8.1,1.1,12.2,1.6c0.3,0,0.6,0.2,0.9,0.1
			c4.7-0.4,6.9,2.3,9,6.2c10.5,19.8,21.4,39.5,32.1,59.2C322.7,178.1,322.9,178.9,324.1,179.6z"/>
		<path fill="#FDFDFD" d="M642.5,125.2c0.2,4.9-2.2,8.5-5.9,11.4c-4,3.3-8.7,5.3-13.4,7.4c-1.2,0.6-1.5,0.1-1.9-0.9
			c-3.8-9.5-7.7-19.1-11.5-28.6c-1.2-3-0.7-3.9,2.3-5.2c3.5-1.4,7.1-2.3,10.7-2.6c8.8-0.8,15,3.2,18.2,11.4
			C642,120.4,642.7,122.7,642.5,125.2z"/>
		<path fill="#FDFDFD" d="M747.9,115.6c2.2,3.4,4.1,6.3,6,9.2c4.5,6.9,8.9,13.9,13.4,20.8c0.9,1.4,1.1,1.9-0.9,2.3
			c-8.3,1.4-16.5,2.9-24.8,4.4c-1.2,0.2-2.1,0.4-1.7-1.4C742.6,139.3,745.1,127.8,747.9,115.6z"/>
		<path fill="#ED2225" d="M179.9,124.9c-8.3-0.6-16.2-1.1-24-1.6c-5.1-0.3-10.1-0.8-15.2-1c-1.9-0.1-1.9-0.7-1.2-2.1
			c5.3-11.4,10.6-22.7,15.9-34.1c1.1-2.3,2.1-4.6,3.4-7.4C165.9,94.2,172.8,109.4,179.9,124.9z"/>
	</g>
</g>
</svg>
