<?xml version="1.0" encoding="utf-8"?>
<!-- Generator: Adobe Illustrator 24.0.1, SVG Export Plug-In . SVG Version: 6.00 Build 0)  -->
<svg version="1.2" baseProfile="tiny" id="Layer_1" xmlns="http://www.w3.org/2000/svg" xmlns:xlink="http://www.w3.org/1999/xlink"
	 x="0px" y="0px" viewBox="0 0 974.19 267.67" xml:space="preserve">
<g>
	<path fill="#0E0807" d="M396.79-0.06c0.8,0,1.6,0,2.4,0c14.6,4.23,28.65,10.01,42.97,15.03c17.66,6.2,35.24,12.61,52.84,18.95
		c17.83,6.42,35.69,12.77,53.51,19.21c9.17,3.32,18.37,6.58,27.55,9.89c3.4,1.23,3.8,1.78,3.84,5.41c0.06,5.55,0.07,5.58,5.54,4.44
		c26.23-5.46,52.47-10.86,78.7-16.31c5.6-1.16,5.94-0.98,8.1,4.23c2.12,5.1,4.27,10.18,6.42,15.26c1.15,2.74,1.39,2.91,4.34,2.39
		c16.93-2.98,33.87-5.96,50.8-8.93c25.68-4.51,51.34-9.1,77.01-13.69c4.08-0.73,4.93-0.2,5.63,3.94c2.61,15.43,5.43,30.83,8.4,46.33
		c2.59-9.27,4.93-18.47,7.43-27.63c1.04-3.8,2.29-4.52,6.13-3.48c25.94,7.01,51.9,13.93,77.85,20.9
		c18.07,4.85,36.13,9.75,54.24,14.46c1.36,0.35,2.91,0.43,3.71,1.9c0,1.44,0,2.88,0,4.32c-1.78,11.81-5.65,23.1-8.67,34.6
		c-4.87,18.57-9.93,37.09-14.9,55.63c-3.85,14.37-7.78,28.72-11.53,43.11c-0.93,3.55-2.33,4.27-6.33,3.21
		c-10.51-2.79-21-5.67-31.51-8.49c-21.48-5.75-42.95-11.54-64.43-17.27c-11.36-3.03-22.72-6.06-34.05-9.2
		c-2.84-0.79-5.6-0.92-8.51-0.4c-30.71,5.48-61.45,10.76-92.15,16.33c-3.91,0.71-4.85,0.07-5.5-3.89
		c-1.57-9.47-3.31-18.91-4.98-28.36c-0.15-0.84-0.1-1.77-0.82-2.46c-0.99-0.13-1.62,0.58-2.35,1.01
		c-30.18,18.26-60.31,36.61-90.41,55c-1.16,0.71-2.3,1.46-3.52,2.06c-2.24,1.12-3.53,0.84-4.47-1.42
		c-3.65-8.86-6.91-17.88-10.22-26.09c0.05,5.34,0.1,11.42-0.04,17.51c-0.04,1.77-1.09,2.76-2.79,3.11
		c-0.55,0.12-1.11,0.17-1.67,0.15c-7.2-0.29-14.39,0.3-21.57,0.6c-10.05,0.42-20.12,0.52-30.17,1.25
		c-4.62,0.34-9.27,0.31-13.89,0.44c-6.71,0.19-13.43,0.43-20.12,0.72c-10.13,0.43-20.28,0.49-30.41,1.25
		c-4.38,0.33-8.79,0.33-13.17,0.43c-6.71,0.16-13.42,0.44-20.13,0.71c-10.13,0.41-20.28,0.51-30.41,1.25
		c-4.62,0.34-9.27,0.31-13.89,0.44c-6.63,0.17-13.26,0.45-19.88,0.71c-9.01,0.36-18.05,0.48-27.05,1.26
		c-1.84,0.16-3.68,0.12-5.52,0.06c-2.81-0.1-3.58-1.01-2.91-3.84c0.83-3.5,1.78-6.97,2.77-10.44c1.39-4.89,1.39-4.89-3.64-6.16
		c-15.13-3.8-30.27-7.54-45.39-11.37c-2.63-0.67-5.08-0.66-7.77-0.04c-6,1.38-12.17,1.87-18.25,2.8
		c-30.91,4.73-61.85,9.32-92.77,13.97c-42.55,6.4-85.13,12.64-127.66,19.16c-9.46,1.45-18.91,3.04-28.46,3.83c-1.76,0-3.52,0-5.28,0
		c0-0.96,0-1.92,0-2.88c0.87-1.67,0.72-3.56,1.13-5.34c7.63-33.04,15.25-66.08,22.83-99.12c7.31-31.88,14.57-63.77,21.92-95.64
		c4.35-18.86,8.69-37.72,13-56.58c0.92-4.04,1.75-4.7,5.82-3.79c9.13,2.04,18.21,4.33,27.31,6.49
		c37.11,8.83,74.21,17.69,111.32,26.51c10.11,2.41,20.21,4.87,30.34,7.22c2.38,0.55,4.09,1.72,4.62,4.26
		c2.31,11.2,4.75,22.37,7.07,33.7c0.22-1.44,0.13-2.91,1.33-3.89c1.29-1.04,2.74-0.55,4.16-0.4c19,1.93,37.98,4.08,56.98,6.14
		c20.1,2.17,40.21,4.29,60.32,6.45c2.99,0.32,3.17,0.16,3.96-2.77c6.68-24.7,13.49-49.37,20.1-74.09c1.03-3.86,2.15-7.7,3.16-11.57
		C395.44,1.46,395.75,0.46,396.79-0.06z"/>
	<path fill="#FBFBFA" d="M567.67,93.19c7.52-1.77,15.04-3.53,22.56-5.3c14.42-3.39,28.84-6.79,43.26-10.19
		c9.62-2.27,19.23-4.53,28.85-6.8c2.95-0.7,3.06-0.67,4.16,1.94c2.3,5.51,4.55,11.05,6.86,16.56c4.83,11.53,9.69,23.06,14.54,34.58
		c0.24,0.56,0.55,1.09,0.82,1.64c0.16-0.05,0.32-0.09,0.49-0.14c-2.13-12.07-4.26-24.14-6.44-36.48c0.89-0.27,1.67-0.61,2.49-0.76
		c11.52-2.05,23.04-4.07,34.57-6.09c14.82-2.61,29.64-5.2,44.45-7.83c11.21-1.99,22.41-4.03,33.61-6.04
		c2.74-0.49,5.49-0.95,8.24-1.4c1.85-0.3,2.18-0.02,2.52,1.88c2.51,14.43,5.02,28.86,7.54,43.28c1.8,10.27,3.63,20.54,5.52,31.21
		c0.36-0.74,0.64-1.12,0.75-1.55c5.05-18.86,10.08-37.72,15.12-56.58c0.21-0.77,0.44-1.53,0.68-2.29c0.61-1.92,0.93-2.16,2.92-1.67
		c2.86,0.7,5.7,1.5,8.54,2.26c15.92,4.29,31.84,8.6,47.77,12.87c20.62,5.52,41.25,11,61.88,16.5c2.36,0.63,2.5,0.82,1.82,3.37
		c-2.8,10.46-5.64,20.91-8.44,31.37c-4.39,16.39-8.74,32.8-13.13,49.19c-3.3,12.31-6.63,24.6-9.94,36.91
		c-0.1,0.38-0.16,0.78-0.3,1.16c-0.56,1.55-0.84,1.74-2.46,1.33c-3.55-0.91-7.08-1.89-10.62-2.84
		c-16.24-4.34-32.47-8.68-48.71-13.03c-19.77-5.29-39.54-10.59-59.31-15.9c-0.68-0.18-1.32-0.49-2.23-0.84
		c0.58-2.47,1.13-4.83,1.73-7.37c-34.32,6.05-68.44,12.06-102.85,18.13c-2.07-11.63-4.09-22.95-6.16-34.56
		c-32.23,18.28-64.11,36.36-96.3,54.61c-0.51-0.93-1.03-1.67-1.36-2.5c-4.27-10.82-8.52-21.64-12.76-32.47
		c-5.35-13.65-10.68-27.31-16.02-40.96c-1.63-4.15-3.27-8.3-4.92-12.44c-0.17-0.43-0.46-0.81-0.69-1.21
		c-1.34-1.2-1.48-2.97-2.08-4.5c-4.99-12.72-9.82-25.49-14.88-38.18c-1.8-4.52-1.7-4.62,2.99-5.73c3.81-0.9,7.62-1.8,11.42-2.72
		C565.29,93.33,566.44,92.89,567.67,93.19z"/>
	<path fill="#ED2325" d="M567.67,93.19c-2.12,0.61-4.22,1.28-6.35,1.81c-4.08,1.02-8.18,1.96-12.42,2.97
		c1.83,4.68,3.59,9.2,5.35,13.72c3.92,10.09,7.85,20.19,11.75,30.29c0.34,0.88,0.47,1.84,0.69,2.76c-0.2,5.66-0.5,11.33-0.57,16.99
		c-0.22,17.34-0.32,34.69-0.52,52.03c-0.06,4.95-0.29,9.89-0.47,14.83c-0.07,1.86-0.26,2.02-2.1,2.09c-0.56,0.02-1.12,0-1.68,0
		c-18.72,0-37.43,0.04-56.15-0.01c-32.54-0.08-65.09-0.2-97.63-0.31c-13.19-0.05-26.39-0.1-39.58-0.17
		c-1.02-0.01-2.04-0.12-3.36-0.21c0.07-1.2-0.01-2.22,0.21-3.18c2.01-8.54,4.08-17.07,6.13-25.6c5.03-20.94,10.07-41.89,15.08-62.84
		c3.49-14.59,6.97-29.18,10.44-43.77c5.41-22.74,10.8-45.49,16.22-68.23c0.89-3.72,1.32-3.64,4.49-2.58
		c29.85,9.97,59.71,19.89,89.58,29.8c18.93,6.28,37.87,12.52,56.81,18.78c0.3,0.1,0.61,0.19,0.91,0.3c2.5,0.89,3.02,1.57,3.03,4.21
		c0.02,4.56,0,9.12,0.01,13.68C567.54,91.45,567.63,92.32,567.67,93.19z"/>
	<path fill="#ED2325" d="M241.02,208.92c-2.83,0.37-5.65,0.82-8.49,1.11c-10.3,1.05-20.61,2.05-30.91,3.06
		c-9.75,0.96-19.51,1.92-29.26,2.9c-7.92,0.79-15.85,1.57-23.77,2.39c-9.98,1.04-19.95,2.14-29.93,3.17
		c-7.13,0.74-14.27,1.39-21.41,2.12c-10.38,1.06-20.75,2.16-31.13,3.24c-7.45,0.77-14.9,1.53-22.35,2.28
		c-0.62,0.06-1.24,0.01-2.04,0.01c0-1.19-0.15-2.21,0.02-3.18c2.81-16.1,5.64-32.2,8.49-48.29c2.51-14.13,5.07-28.24,7.57-42.37
		c2.98-16.88,5.89-33.78,8.85-50.66c2.64-15,5.32-29.99,7.96-44.98c0.91-5.18,1.77-10.38,2.66-15.56c0.08-0.47,0.25-0.92,0.45-1.64
		c0.72,0.04,1.51-0.01,2.25,0.15c12.01,2.59,24,5.2,36.01,7.81c15.74,3.41,31.49,6.82,47.23,10.23c12.24,2.66,24.47,5.32,36.7,7.99
		c8.26,1.8,16.5,3.69,24.78,5.38c2.01,0.41,2.97,1.16,3.35,3.25c2.22,12.24,4.59,24.45,6.89,36.67c2.06,10.89,4.11,21.78,6.16,32.68
		c0.85,4.55,1.68,9.1,2.54,13.64c0.1,0.53,0.33,1.04,0.49,1.56c0.93,0.98,0.49,2.12,0.33,3.19c-2.73,18.39-5.91,36.71-8.92,55.06
		c-0.06,0.39-0.13,0.79-0.2,1.18c-0.8,4.8-0.95,5.35,3.8,6.31C239.91,207.77,240.71,208.05,241.02,208.92z"/>
	<path fill="#FBFBFA" d="M241.02,208.92c-1.54-0.41-3.06-0.85-4.61-1.22c-2.47-0.59-2.66-0.83-2.29-3.47c0.32-2.2,0.67-4.4,1.04-6.6
		c1.57-9.49,3.15-18.98,4.72-28.47c1.2-7.29,2.41-14.59,3.58-21.89c0.29-1.8,0.46-3.61,0.69-5.41c0.47-2.33,0.99-4.66,1.39-7.01
		c2.23-13.26,4.42-26.52,6.62-39.79c0.26-1.57,0.46-3.15,0.71-4.72c0.27-1.71,0.75-2.12,2.32-1.94c8.6,1.03,17.19,2.1,25.79,3.11
		c7.35,0.86,14.7,1.63,22.05,2.49c9.16,1.07,18.31,2.21,27.46,3.29c7.58,0.89,15.17,1.72,22.75,2.6c7.58,0.88,15.16,1.78,22.73,2.66
		c1.09,0.13,2.18,0.22,3.41,0.35c0,1.15,0.14,2.1-0.02,3c-2.27,12.29-4.61,24.57-6.89,36.86c-2.5,13.46-4.94,26.94-7.43,40.4
		c-2.48,13.38-5,26.76-7.5,40.14c-0.67,3.6-1.3,7.21-2,10.8c-0.38,1.95-0.6,2.11-2.53,1.65c-7.28-1.75-14.54-3.57-21.82-5.33
		c-18.74-4.52-37.48-9.03-56.23-13.53c-10.84-2.6-21.69-5.18-32.54-7.76C241.97,209.03,241.49,208.99,241.02,208.92z"/>
	<path fill="#0E0807" d="M642.29,140.35c3.73,2.3,7.31,4.54,10.92,6.72c7.09,4.3,14.2,8.57,21.31,12.84
		c2.79,1.68,5.65,2.9,9.04,1.82c1.26-0.4,1.4-0.16,2.12,2.04c-0.71,0.4-1.44,0.85-2.2,1.24c-3.64,1.83-7.34,3.53-10.9,5.49
		c-1.57,0.86-2.73,0.75-4.17-0.16c-10.4-6.53-20.84-13.01-31.26-19.5c-1.15-0.72-2.29-1.45-3.44-2.17
		c-3.42-2.12-5.69-1.86-8.97,1.12c0.36,1.02,0.7,2.15,1.14,3.24c2.75,6.8,5.51,13.6,8.32,20.37c0.7,1.69,1.49,3.37,2.43,4.93
		c1.56,2.6,3.54,3.42,6.49,2.79c1.4-0.3,2.74-0.82,4.12-1.21c0.73-0.21,1.43-0.24,1.86,0.58c0.42,0.8,0.51,1.53-0.43,2.03
		c-0.49,0.27-0.99,0.51-1.49,0.76c-8.64,4.32-17.28,8.63-25.91,12.96c-1.06,0.53-2.07,1.19-3.12,1.75
		c-0.66,0.35-1.44,0.62-1.89-0.18c-0.41-0.73-0.92-1.6-0.05-2.4c0.35-0.32,0.77-0.57,1.16-0.84c0.97-0.69,1.95-1.39,2.92-2.08
		c2.83-2,3.71-4.72,2.78-7.99c-0.81-2.84-1.6-5.69-2.69-8.43c-5.55-14.01-11.19-27.98-16.81-41.96c-1.63-4.06-3.31-8.11-5.01-12.14
		c-0.43-1.02-0.98-2-1.53-2.97c-2.06-3.65-5.17-5.03-9.27-4.27c-0.94,0.17-1.89,0.31-2.83,0.48c-1.16,0.2-1.78-0.34-2.13-1.41
		c-0.3-0.91-0.01-1.28,0.88-1.53c4.84-1.33,9.67-2.71,14.51-4.06c7.43-2.08,14.84-4.26,22.31-6.2c5.27-1.37,10.64-1.85,16.1-0.97
		c9.31,1.49,15.38,8.19,17.52,17.07c1.87,7.75-1.14,13.54-6.71,18.45C645.86,137.92,644.09,139.02,642.29,140.35z"/>
	<path fill="#0E0807" d="M903.9,208.48c-2.18,0.2-2.51,0.11-3.34-1.66c-1.45-3.1-2.79-6.25-4.18-9.38
		c-6.64-15-13.29-30.01-19.92-45.01c-3.45-7.79-6.87-15.6-10.31-23.39c-0.22-0.5-0.49-0.97-0.9-1.79c-0.38,0.78-0.72,1.26-0.86,1.79
		c-4.09,15.4-8.2,30.79-12.21,46.21c-0.64,2.45-0.99,5-1.25,7.52c-0.36,3.57,0.87,6.42,4.32,8.01c0.94,0.43,1.88,0.86,2.82,1.29
		c1.7,0.79,1.78,1.17,0.54,3.3c-9.43-2.53-18.93-5.08-28.57-7.67c0.15-0.89,0.26-1.56,0.41-2.45c1.23,0.07,2.32,0.17,3.41,0.18
		c1.42,0.01,2.85,0.01,4.26-0.11c2.25-0.19,3.98-1.44,4.88-3.41c1.32-2.88,2.57-5.84,3.4-8.89c4.3-15.67,8.45-31.38,12.66-47.08
		c0.51-1.92,1.14-3.83,1.48-5.78c0.2-1.12,0.25-2.48-0.21-3.46c-1.57-3.36-3.52-6.42-7.48-7.54c-2.02-0.57-2.1-1.27-0.64-3.13
		c6.33,1.7,12.7,3.44,19.09,5.08c1.44,0.37,2.11,1.28,2.64,2.49c2.58,5.91,5.17,11.82,7.76,17.73
		c6.86,15.61,13.72,31.21,20.58,46.82c0.6,1.36,1.22,2.72,2.07,4.61c1.07-3.92,2.01-7.24,2.89-10.57
		c2.86-10.86,5.75-21.71,8.51-32.59c0.58-2.29,0.75-4.71,0.88-7.08c0.19-3.25-1.57-5.4-4.36-6.81c-0.99-0.5-2.03-0.91-3.06-1.33
		c-0.89-0.37-1.56-0.83-1.2-1.96c0.36-1.14,1.24-1.15,2.13-0.92c2.47,0.63,4.93,1.31,7.39,1.98c5.69,1.53,11.37,3.07,17.06,4.6
		c0.54,0.15,1.07,0.31,1.61,0.44c0.81,0.19,1.28,0.64,1.15,1.52c-0.14,0.93-0.67,1.42-1.64,1.36c-0.71-0.05-1.43-0.1-2.13-0.19
		c-4.23-0.57-8.24,0.74-9.92,5.52c-1.67,4.73-3.2,9.51-4.53,14.35c-3.52,12.83-6.9,25.69-10.34,38.54
		c-1.49,5.54-3.01,11.07-4.5,16.61C904.11,206.92,904.04,207.63,903.9,208.48z"/>
	<path fill="#0E0807" d="M775.26,179.6c-0.84-2-0.7-2.39,0.99-2.96c1.13-0.38,2.31-0.62,3.41-1.06c2.69-1.07,3.5-2.64,2.35-5.24
		c-1.19-2.69-2.59-5.3-4.11-7.83c-1.68-2.8-3.64-5.43-5.4-8.19c-0.83-1.3-1.7-1.78-3.35-1.48c-9.31,1.73-18.64,3.32-27.96,4.96
		c-2.26,0.4-2.3,0.4-2.73,2.59c-1.06,5.3-2.12,10.61-3.07,15.93c-0.58,3.26,1.11,5.54,4.4,6.06c1.64,0.26,3.31,0.32,5.18,0.48
		c0.12,0.61,0.25,1.27,0.38,1.93c-0.37,0.17-0.57,0.31-0.79,0.35c-6.96,1.28-13.93,2.57-20.89,3.82c-0.78,0.14-1.6,0.24-2.38,0.17
		c-0.47-0.04-1.23-0.38-1.29-0.69c-0.1-0.54,0.2-1.17,0.42-1.73c0.06-0.16,0.39-0.25,0.61-0.33c3.74-1.21,5.58-4.04,6.55-7.62
		c1.4-5.15,2.93-10.27,4.15-15.46c3.93-16.74,7.73-33.51,11.59-50.27c1.09-4.73,2.21-9.46,3.29-14.19c0.2-0.9,0.4-1.74,1.48-1.91
		c1.04-0.16,1.89,0.21,2.49,1.08c0.5,0.72,0.98,1.46,1.47,2.19c14.05,21.06,28.09,42.13,42.16,63.18c1.19,1.78,2.58,3.44,3.92,5.12
		c1.71,2.16,4.06,2.97,6.72,3.12c0.24,0.01,0.48,0.01,0.72,0.01c1.01-0.02,1.45,0.62,1.54,1.48c0.11,0.96-0.6,1.12-1.37,1.26
		c-3.99,0.71-7.98,1.47-11.97,2.2c-5.09,0.93-10.17,1.87-15.26,2.76C777.42,179.54,776.3,179.52,775.26,179.6z"/>
	<path fill="#FBFBFA" d="M539.06,111.94c-2.79,0.42-3.82-0.29-4.36-2.93c-0.54-2.65-1.1-5.29-1.65-7.94
		c-1.03-4.94-3.95-8.43-8.31-10.83c-4.24-2.33-8.9-3.43-13.48-4.79c-1.67-0.5-3.36-0.95-5.33-1.5c-0.25,0.63-0.64,1.22-0.72,1.86
		c-0.33,2.6-0.57,5.21-0.83,7.82c-0.96,9.65-1.93,19.31-2.85,28.96c-0.55,5.78-0.98,11.57-1.55,17.35
		c-0.76,7.76-1.64,15.5-2.38,23.26c-0.44,4.67-0.77,9.36-1.03,14.05c-0.08,1.41,0.26,2.84,0.43,4.26c0.37,3.11,2.18,5.11,5.04,6.09
		c2.63,0.9,5.33,1.59,8.02,2.31c1.64,0.44,2.48,1.92,1.66,3.34c-0.2,0.35-0.91,0.62-1.37,0.59c-3.26-0.15-6.52-0.37-9.78-0.6
		c-4.05-0.29-8.09-0.6-12.14-0.92c-5.15-0.41-10.3-0.85-15.46-1.23c-3.57-0.27-7.15-0.45-10.73-0.69c-1.57-0.11-3.14-0.28-4.91-0.45
		c0-0.79,0-1.49,0-2.19c0-1.04,0.4-1.6,1.54-1.69c2.85-0.22,5.7-0.49,8.54-0.83c5.47-0.65,8.23-2.88,9.5-8.26
		c1.02-4.33,1.72-8.74,2.31-13.15c1.22-9.14,2.28-18.31,3.38-27.46c1.04-8.77,2.03-17.54,3.06-26.31
		c1.14-9.71,2.26-19.43,3.47-29.14c0.14-1.13-0.06-1.58-1.13-1.87c-6.83-1.91-13.62-4-20.72-4.59c-5.16-0.43-9.71,1.15-12.7,5.63
		c-1.85,2.77-3.38,5.77-4.91,8.74c-1.01,1.95-3.48,2.6-5.11,1.12c-0.89-0.81-0.71-1.83-0.47-2.89c1.48-6.44,2.93-12.89,4.38-19.34
		c0.45-2.01,0.87-4.02,1.28-5.89c1.33-0.77,2.38-0.19,3.42,0.11c13.94,4,27.87,8.02,41.81,12.03c13.78,3.96,27.57,7.92,41.36,11.87
		c0.46,0.13,0.91,0.29,1.37,0.41c1.15,0.3,1.73,0.98,1.72,2.22c-0.1,7.75-0.17,15.5-0.26,23.25
		C539.17,111.8,539.1,111.87,539.06,111.94z"/>
	<path fill="#FBFBFA" d="M91.62,176.5c-0.08-0.43-0.18-0.73-0.18-1.03c-0.03-3.81-0.22-3.48,3.27-4.21
		c5.84-1.21,10.48-4.26,13.61-9.34c2.97-4.82,6-9.64,8.55-14.68c14.26-28.22,28.39-56.51,42.56-84.78c0.25-0.5,0.48-1.01,0.73-1.51
		c0.37-0.74,0.35-1.99,1.53-1.82c1.2,0.18,2.59,0.25,3.26,1.64c0.73,1.51,1.51,2.99,2.25,4.5c4.04,8.24,8.07,16.49,12.13,24.72
		c4.63,9.38,9.29,18.74,13.93,28.12c6.05,12.24,12.06,24.49,18.16,36.71c1.46,2.92,3.05,5.79,4.81,8.54
		c1.81,2.83,4.38,4.82,7.75,5.6c3.06,0.71,3.07,0.74,2.57,4.08c-0.19,0.07-0.41,0.22-0.63,0.23c-5.11,0.12-10.21,0.25-15.32,0.34
		c-4.07,0.07-8.15,0.07-12.22,0.18c-3.66,0.1-7.33,0.31-10.99,0.46c-0.4,0.02-0.8,0.03-1.2,0c-1.56-0.12-1.88-0.42-1.97-1.81
		c-0.11-1.79,0.2-2.24,1.75-2.52c1.8-0.32,3.62-0.58,5.4-0.98c3.37-0.75,4.28-1.9,4.2-5.3c-0.07-3-1-5.8-2.21-8.5
		c-3.1-6.91-6.25-13.8-9.35-20.72c-0.62-1.38-1.5-2.06-3.1-2.11c-6.69-0.24-13.37-0.59-20.05-0.93c-5.81-0.3-11.61-0.63-17.41-0.96
		c-1.67-0.09-3.33-0.24-5-0.32c-2.59-0.12-3.14,0.2-4.18,2.62c-2.77,6.45-5.54,12.89-8.23,19.37c-0.98,2.35-1.85,4.76-2.52,7.21
		c-0.36,1.34-0.36,2.85-0.23,4.25c0.26,2.77,1.82,4.72,4.39,5.78c2.53,1.04,5.19,1.5,7.92,1.59c1.79,0.06,2.07,0.43,2.06,2.42
		c-0.01,1.74-0.33,2.18-2.06,2.19c-6.16,0.04-12.32,0-18.47,0.03c-1.05,0.01-2.18-0.38-3.07,0.75c-0.26,0.34-1.2,0.18-1.83,0.18
		c-4.88,0.01-9.76,0.01-14.64,0.01C95.68,176.5,93.77,176.5,91.62,176.5z"/>
	<path fill="#0E0807" d="M266.3,113.03c-0.12-2.5,0.19-2.98,2.2-2.79c3.25,0.3,6.47,0.79,9.71,1.19c1.26,0.15,2.53,0.35,3.8,0.38
		c3.29,0.08,5.86,1.41,7.51,4.29c1.74,3.05,3.39,6.14,5.06,9.22c6.53,12.06,13.05,24.12,19.58,36.17c2.85,5.26,5.71,10.5,8.58,15.75
		c0.33,0.61,0.73,1.2,1.39,2.29c0.41-1.73,0.76-2.97,0.98-4.22c2.25-12.77,4.49-25.55,6.7-38.33c0.31-1.8,0.51-3.63,0.65-5.45
		c0.3-3.8-1.1-6.7-4.65-8.37c-1.3-0.61-2.6-1.23-3.95-1.67c-1.07-0.35-1.68-0.83-1.49-2.03c0.2-1.24,0.65-1.66,2.22-1.54
		c2.06,0.15,4.12,0.43,6.17,0.71c6.7,0.92,13.39,1.86,20.08,2.79c0.71,0.1,1.41,0.25,2.12,0.31c0.99,0.08,1.68,0.39,1.72,1.55
		c0.05,1.32-0.25,1.85-1.68,2.14c-1.24,0.25-2.52,0.28-3.79,0.4c-5.18,0.49-7.8,2.61-8.95,7.73c-1.26,5.59-2.35,11.22-3.39,16.85
		c-2.26,12.29-4.44,24.6-6.63,36.9c-1.2,6.74-2.36,13.48-3.53,20.17c-2.61,0.84-3.4,0.56-4.56-1.59
		c-6.94-12.83-13.88-25.67-20.82-38.5c-6.44-11.92-12.88-23.85-19.32-35.77c-0.18-0.34-0.44-0.64-0.85-1.21
		c-0.33,1.59-0.64,2.89-0.86,4.2c-1.84,10.91-3.65,21.82-5.49,32.73c-0.37,2.2-0.74,4.39-1.19,6.57c-0.78,3.78-0.84,7.61-0.7,11.44
		c0.11,2.83,1.27,5.06,4.07,6.2c1.11,0.45,2.2,0.95,3.25,1.52c1.71,0.93,1.77,1.94,0.27,3.55c-7.91-1.73-15.84-3.46-23.76-5.19
		c-0.7-0.15-1.41-0.29-2.1-0.45c-1.03-0.24-1.45-0.93-1.33-1.95c0.11-0.96,0.72-1.37,1.65-1.36c1.12,0,2.24,0.02,3.36,0
		c4.35-0.09,6.28-1.49,7.34-5.72c0.79-3.16,1.36-6.38,1.91-9.6c2.73-15.92,5.42-31.85,8.12-47.78c0.7-4.12-1.81-8.7-5.69-10.29
		C268.83,113.79,267.6,113.46,266.3,113.03z"/>
	<path fill="#FBFBFA" d="M625.17,106.63c6.72,0.19,11.99,2.82,15.06,8.87c1.18,2.31,2.12,4.85,2.58,7.4
		c1.02,5.69-1.16,10.26-5.62,13.85c-3.58,2.88-7.66,4.85-11.8,6.71c-3.16,1.42-3.16,1.37-4.48-1.91c-3.44-8.57-6.9-17.13-10.36-25.7
		c-1.78-4.42-1.37-5.32,3.05-6.88C617.38,107.63,621.26,106.82,625.17,106.63z"/>
	<path fill="#FBFBFA" d="M748.34,115.72c6.97,10.45,13.53,20.94,20.47,31.64c-1.22,0.35-1.94,0.64-2.68,0.77
		c-7.91,1.4-15.82,2.78-23.73,4.16c-2.21,0.39-2.49,0.1-1.98-2.2c2.45-11.02,4.92-22.05,7.39-33.06
		C747.89,116.65,748.1,116.3,748.34,115.72z"/>
	<path fill="#ED2325" d="M159.15,78.51c7.2,15.74,14.17,30.98,21.35,46.67c-13.85-0.92-27.34-1.82-40.83-2.72
		c-0.57-1.49,0.18-2.52,0.66-3.56c2.6-5.65,5.22-11.28,7.85-16.91C151.75,94.35,155.33,86.7,159.15,78.51z"/>
</g>
</svg>
