<svg xmlns="http://www.w3.org/2000/svg" baseProfile="tiny" viewBox="0 0 974.19 267.67"><path fill="#0e0807" d="M396.8-.06h2.4c14.6 4.23 28.65 10 42.97 15.03L495 33.92l81.06 29.1c3.4 1.23 3.8 1.78 3.84 5.4.06 5.55.07 5.58 5.54 4.44l78.7-16.3c5.6-1.16 5.94-.98 8.1 4.23l6.42 15.26c1.15 2.74 1.4 2.9 4.34 2.4l50.8-8.93 77-13.7c4.08-.73 4.93-.2 5.63 3.94l8.4 46.33 7.43-27.63c1.04-3.8 2.3-4.52 6.13-3.48l132.1 35.36c1.36.35 2.9.43 3.7 1.9v4.32c-1.78 11.8-5.65 23.1-8.67 34.6L939.1 249.9c-.93 3.55-2.33 4.27-6.33 3.2l-31.5-8.5-64.43-17.27-34.05-9.2c-2.84-.8-5.6-.92-8.5-.4l-92.15 16.33c-3.9.7-4.85.07-5.5-3.9l-4.98-28.36c-.15-.84-.1-1.77-.82-2.46-1-.13-1.62.58-2.35 1l-90.4 55c-1.16.7-2.3 1.46-3.52 2.06-2.24 1.12-3.53.84-4.47-1.42-3.65-8.86-6.9-17.88-10.22-26.1l-.04 17.5c-.04 1.77-1.1 2.76-2.8 3.1-.55.12-1.1.17-1.67.15-7.2-.3-14.4.3-21.57.6-10.05.42-20.12.52-30.17 1.25-4.62.34-9.27.3-13.9.44l-20.12.72c-10.13.43-20.28.5-30.4 1.25-4.38.33-8.8.33-13.17.43l-20.13.7c-10.13.4-20.28.5-30.4 1.25-4.62.34-9.27.3-13.9.44l-19.88.7c-9 .36-18.05.48-27.05 1.26-1.84.16-3.68.12-5.52.06-2.8-.1-3.58-1-2.9-3.84.83-3.5 1.78-6.97 2.77-10.44 1.4-4.9 1.4-4.9-3.64-6.16L279.97 228c-2.63-.67-5.08-.66-7.77-.04-6 1.38-12.17 1.87-18.25 2.8L33.52 263.9c-9.46 1.45-18.9 3.04-28.46 3.83H-.22v-2.88c.87-1.67.72-3.56 1.13-5.34l22.83-99.12L58.66 8.17c.92-4.04 1.75-4.7 5.82-3.8l27.3 6.5L233.45 44.6c2.38.55 4.1 1.72 4.62 4.26l7.07 33.7c.22-1.44.13-2.9 1.33-3.9 1.3-1.04 2.74-.55 4.16-.4l117.3 12.6c3 .32 3.17.16 3.96-2.77l23.26-85.66c.3-.97.6-1.97 1.64-2.5z"/><path fill="#fbfbfa" d="M567.67 93.2l94.67-22.3c2.95-.7 3.06-.67 4.16 1.94l6.86 16.56 14.54 34.58c.24.56.55 1.1.82 1.64l.5-.14L682.77 89c.9-.27 1.67-.6 2.5-.76l79.02-13.92 33.6-6.04 8.24-1.4c1.85-.3 2.18-.02 2.52 1.88l7.54 43.28 5.52 31.2c.36-.74.64-1.12.75-1.55l15.12-56.58a60.19 60.19 0 0 1 .68-2.29c.6-1.92.93-2.16 2.92-1.67l8.54 2.26L897.5 96.3l61.88 16.5c2.36.63 2.5.82 1.82 3.37l-8.44 31.37-13.13 49.2-9.94 36.9c-.1.38-.16.78-.3 1.16-.56 1.55-.84 1.74-2.46 1.33l-118.64-31.77c-.68-.18-1.32-.5-2.23-.84l1.73-7.37-102.85 18.13-6.16-34.56-96.3 54.6c-.5-.93-1.03-1.67-1.36-2.5l-12.76-32.47-16.02-40.96-4.92-12.44c-.17-.43-.46-.8-.7-1.2-1.34-1.2-1.48-2.97-2.08-4.5l-14.88-38.18c-1.8-4.52-1.7-4.62 3-5.73l11.42-2.72c1.12-.28 2.27-.72 3.5-.42z"/><path d="M567.67 93.2l-6.35 1.8-12.42 2.97 5.35 13.72L566 142c.34.88.47 1.84.7 2.76l-.57 17-.52 52.03c-.06 4.95-.3 9.9-.47 14.83-.07 1.86-.26 2.02-2.1 2.1-.56.02-1.12 0-1.68 0-18.72 0-37.43.04-56.15-.01l-137.2-.5c-1.02-.01-2.04-.12-3.36-.2.07-1.2-.01-2.22.2-3.18l6.13-25.6 15.08-62.84 26.66-112c.9-3.72 1.32-3.64 4.5-2.58l89.58 29.8 57.7 19.08c2.5.9 3.02 1.57 3.03 4.2l.01 13.68c0 .9.1 1.77.13 2.64zM241.02 208.92l-8.5 1.1-60.17 5.96-23.77 2.4-29.93 3.17-21.4 2.12-31.13 3.24-22.35 2.28c-.62.06-1.24.01-2.04.01 0-1.2-.15-2.2.02-3.18l8.5-48.3 7.57-42.37 8.85-50.66 7.96-44.98 2.66-15.56c.08-.47.25-.92.45-1.64.72.04 1.5-.01 2.25.15l83.23 18.03 61.48 13.37c2 .4 2.97 1.16 3.35 3.25l15.6 83c.1.53.33 1.04.5 1.56.93.98.5 2.12.33 3.2l-8.92 55.06a48.43 48.43 0 0 1-.2 1.18c-.8 4.8-.95 5.35 3.8 6.3.77.15 1.57.43 1.88 1.3z" fill="#ed2325"/><path fill="#fbfbfa" d="M241.02 208.92l-4.6-1.22c-2.47-.6-2.66-.83-2.3-3.47l1.04-6.6 8.3-50.36.7-5.4 1.4-7 6.62-39.8.7-4.72c.27-1.7.75-2.12 2.32-1.94l25.8 3.1 22.05 2.5 27.46 3.3 22.75 2.6 22.73 2.66 3.4.35c0 1.15.14 2.1-.02 3l-6.9 36.86-7.43 40.4-7.5 40.14-2 10.8c-.38 1.95-.6 2.1-2.53 1.65l-21.82-5.33-56.23-13.53-32.54-7.76c-.45-.1-.93-.14-1.4-.2z"/><path d="M642.3 140.35l10.92 6.72 21.3 12.84c2.8 1.68 5.65 2.9 9.04 1.82 1.26-.4 1.4-.16 2.12 2.04l-2.2 1.24c-3.64 1.83-7.34 3.53-10.9 5.5-1.57.86-2.73.75-4.17-.16l-31.26-19.5-3.44-2.17c-3.42-2.12-5.7-1.86-8.97 1.12.36 1.02.7 2.15 1.14 3.24l8.32 20.37c.7 1.7 1.5 3.37 2.43 4.93 1.56 2.6 3.54 3.42 6.5 2.8 1.4-.3 2.74-.82 4.12-1.2.73-.2 1.43-.24 1.86.58.42.8.5 1.53-.43 2.03-.5.27-1 .5-1.5.76l-25.9 12.96c-1.06.53-2.07 1.2-3.12 1.75-.66.35-1.44.62-1.9-.18-.4-.73-.92-1.6-.05-2.4.35-.32.77-.57 1.16-.84l2.92-2.08c2.83-2 3.7-4.72 2.78-8-.8-2.84-1.6-5.7-2.7-8.43l-16.8-41.96-5-12.14c-.43-1.02-.98-2-1.53-2.97-2.06-3.65-5.17-5.03-9.27-4.27l-2.83.48c-1.16.2-1.78-.34-2.13-1.4-.3-.9-.01-1.28.88-1.53l14.5-4.06 22.3-6.2c5.27-1.37 10.64-1.85 16.1-.97 9.3 1.5 15.38 8.2 17.52 17.07 1.87 7.75-1.14 13.54-6.7 18.45-1.55 1.36-3.32 2.46-5.12 3.8zm261.6 68.13c-2.18.2-2.5.1-3.34-1.66-1.45-3.1-2.8-6.25-4.18-9.38l-30.23-68.4c-.22-.5-.5-.97-.9-1.8-.38.78-.72 1.26-.86 1.8l-12.2 46.2c-.64 2.45-1 5-1.25 7.52-.36 3.57.87 6.42 4.32 8l2.82 1.3c1.7.8 1.78 1.17.54 3.3l-28.57-7.67.4-2.45c1.23.07 2.32.17 3.4.18 1.42.01 2.85.01 4.26-.1 2.25-.2 3.98-1.44 4.88-3.4 1.32-2.88 2.57-5.84 3.4-8.9l12.66-47.08c.5-1.92 1.14-3.83 1.48-5.78.2-1.12.25-2.48-.2-3.46-1.57-3.36-3.52-6.42-7.48-7.54-2.02-.57-2.1-1.27-.64-3.13l19.1 5.08c1.44.37 2.1 1.28 2.64 2.5l7.76 17.73 20.58 46.82 2.07 4.6 2.9-10.57 8.5-32.6c.58-2.3.75-4.7.88-7.08.2-3.25-1.57-5.4-4.36-6.8-1-.5-2.03-.9-3.06-1.33-.9-.37-1.56-.83-1.2-1.96.36-1.14 1.24-1.15 2.13-.92l7.4 1.98 17.06 4.6 1.6.44c.8.2 1.28.64 1.15 1.52-.14.93-.67 1.42-1.64 1.36-.7-.05-1.43-.1-2.13-.2-4.23-.57-8.24.74-9.92 5.52-1.67 4.73-3.2 9.5-4.53 14.35L908.8 189.6l-4.5 16.6c-.18.7-.25 1.4-.4 2.25zM775.26 179.6c-.84-2-.7-2.4 1-2.96l3.4-1.06c2.7-1.07 3.5-2.64 2.35-5.24-1.2-2.7-2.6-5.3-4.1-7.83l-5.4-8.2c-.83-1.3-1.7-1.78-3.35-1.48l-27.96 4.96c-2.26.4-2.3.4-2.73 2.6l-3.07 15.93c-.58 3.26 1.1 5.54 4.4 6.06 1.64.26 3.3.32 5.18.48l.38 1.93c-.37.17-.57.3-.8.35l-20.9 3.82c-.78.14-1.6.24-2.38.17-.47-.04-1.23-.38-1.3-.7-.1-.54.2-1.17.42-1.73.06-.16.4-.25.6-.33 3.74-1.2 5.58-4.04 6.55-7.62 1.4-5.15 2.93-10.27 4.15-15.46l14.88-64.46c.2-.9.4-1.74 1.48-1.9 1.04-.16 1.9.2 2.5 1.08.5.72.98 1.46 1.47 2.2l42.16 63.18c1.2 1.78 2.58 3.44 3.92 5.12 1.7 2.16 4.06 2.97 6.72 3.12.24.01.48.01.72.01 1-.02 1.45.62 1.54 1.48.1.96-.6 1.12-1.37 1.26l-11.97 2.2-15.26 2.76c-1.1.2-2.2.2-3.25.27z" fill="#0e0807"/><path d="M539.06 111.94c-2.8.42-3.82-.3-4.36-2.93l-1.65-7.94c-1.03-4.94-3.95-8.43-8.3-10.83-4.24-2.33-8.9-3.43-13.48-4.8-1.67-.5-3.36-.95-5.33-1.5-.25.63-.64 1.22-.72 1.86-.33 2.6-.57 5.2-.83 7.82l-2.85 28.96-1.55 17.35-2.38 23.26c-.44 4.67-.77 9.36-1.03 14.05-.08 1.4.26 2.84.43 4.26.37 3.1 2.18 5.1 5.04 6.1 2.63.9 5.33 1.6 8.02 2.3 1.64.44 2.48 1.92 1.66 3.34-.2.35-.9.62-1.37.6-3.26-.15-6.52-.37-9.78-.6l-12.14-.92-15.46-1.23-10.73-.7c-1.57-.1-3.14-.28-4.9-.45v-2.2c0-1.04.4-1.6 1.54-1.7a222.2 222.2 0 0 0 8.54-.83c5.47-.65 8.23-2.88 9.5-8.26 1.02-4.33 1.72-8.74 2.3-13.15l3.38-27.46 3.06-26.3 3.47-29.14c.14-1.13-.06-1.58-1.13-1.87-6.83-1.9-13.62-4-20.72-4.6-5.16-.43-9.7 1.15-12.7 5.63-1.85 2.77-3.38 5.77-4.9 8.74-1 1.95-3.48 2.6-5.1 1.12-.9-.8-.7-1.83-.47-2.9l4.38-19.34 1.28-5.9c1.33-.77 2.38-.2 3.42.1l83.17 23.9c.46.13.9.3 1.37.4 1.15.3 1.73.98 1.72 2.22l-.26 23.25c0 .08-.07.15-.1.22zM91.62 176.5c-.08-.43-.18-.73-.18-1.03-.03-3.8-.22-3.48 3.27-4.2 5.84-1.2 10.48-4.26 13.6-9.34 2.97-4.82 6-9.64 8.55-14.68l43.3-86.3c.37-.74.35-2 1.53-1.82 1.2.18 2.6.25 3.26 1.64l2.25 4.5L179.33 90l32.1 64.83c1.46 2.92 3.05 5.8 4.8 8.54 1.8 2.83 4.38 4.82 7.75 5.6 3.06.7 3.07.74 2.57 4.08-.2.07-.4.22-.63.23l-15.32.34-12.22.18-11 .46a9.61 9.61 0 0 1-1.2 0c-1.56-.12-1.88-.42-1.97-1.8-.1-1.8.2-2.24 1.75-2.52 1.8-.32 3.62-.58 5.4-.98 3.37-.75 4.28-1.9 4.2-5.3-.07-3-1-5.8-2.2-8.5L184 134.42c-.62-1.38-1.5-2.06-3.1-2.1l-20.05-.93-17.4-.96-5-.32c-2.6-.12-3.14.2-4.18 2.62l-8.23 19.37c-.98 2.35-1.85 4.76-2.52 7.2-.36 1.34-.36 2.85-.23 4.25.26 2.77 1.82 4.72 4.4 5.78 2.53 1.04 5.2 1.5 7.92 1.6 1.8.06 2.07.43 2.06 2.42-.01 1.74-.33 2.18-2.06 2.2l-18.47.03c-1.05.01-2.18-.38-3.07.75-.26.34-1.2.18-1.83.18h-20.6z" fill="#fbfbfa"/><path fill="#0e0807" d="M266.3 113.03c-.12-2.5.2-2.98 2.2-2.8l9.7 1.2 3.8.38c3.3.08 5.86 1.4 7.5 4.3 1.74 3.05 3.4 6.14 5.06 9.22l19.58 36.17 8.58 15.75c.33.6.73 1.2 1.4 2.3.4-1.73.76-2.97.98-4.22l6.7-38.33c.3-1.8.5-3.63.65-5.45.3-3.8-1.1-6.7-4.65-8.37-1.3-.6-2.6-1.23-3.95-1.67-1.07-.35-1.68-.83-1.5-2.03.2-1.24.65-1.66 2.22-1.54 2.06.15 4.12.43 6.17.7l20.08 2.8c.7.1 1.4.25 2.12.3 1 .08 1.68.4 1.72 1.55.05 1.32-.25 1.85-1.68 2.14-1.24.25-2.52.28-3.8.4-5.18.5-7.8 2.6-8.95 7.73-1.26 5.6-2.35 11.22-3.4 16.85l-6.63 36.9-3.53 20.17c-2.6.84-3.4.56-4.56-1.6l-20.82-38.5L282 131.6c-.18-.34-.44-.64-.85-1.2-.33 1.6-.64 2.9-.86 4.2l-5.5 32.73-1.2 6.57c-.78 3.78-.84 7.6-.7 11.44.1 2.83 1.27 5.06 4.07 6.2a32.02 32.02 0 0 1 3.25 1.52c1.7.93 1.77 1.94.27 3.55l-25.86-5.64c-1.03-.24-1.45-.93-1.33-1.95.1-.96.72-1.37 1.65-1.36h3.36c4.35-.1 6.28-1.5 7.34-5.72.8-3.16 1.36-6.38 1.9-9.6l8.12-47.78c.7-4.12-1.8-8.7-5.7-10.3-1.18-.48-2.4-.8-3.7-1.24z"/><path d="M625.17 106.63c6.72.2 12 2.82 15.06 8.87 1.18 2.3 2.12 4.85 2.58 7.4 1.02 5.7-1.16 10.26-5.62 13.85-3.58 2.88-7.66 4.85-11.8 6.7-3.16 1.42-3.16 1.37-4.48-1.9l-10.36-25.7c-1.78-4.42-1.37-5.32 3.05-6.88 3.78-1.34 7.66-2.15 11.57-2.34zm123.17 9.1l20.47 31.64-2.68.77-23.73 4.16c-2.2.4-2.5.1-1.98-2.2l7.4-33.06c.08-.38.3-.73.53-1.3z" fill="#fbfbfa"/><path fill="#ed2325" d="M159.15 78.5l21.35 46.67-40.83-2.72c-.57-1.5.18-2.52.66-3.56l7.85-16.9 10.97-23.48z"/></svg>