<?xml version="1.0" encoding="utf-8"?>
<!-- Generator: Adobe Illustrator 22.0.1, SVG Export Plug-In . SVG Version: 6.00 Build 0)  -->
<svg version="1.2" baseProfile="tiny" id="Layer_1" xmlns="http://www.w3.org/2000/svg" xmlns:xlink="http://www.w3.org/1999/xlink"
	 x="0px" y="0px" viewBox="0 0 481.7 141.7" xml:space="preserve">
<g>
	<path fill="#080403" d="M223.3,22.9c0-4.7,0-9.3,0-14c0-1.3,0.2-1.7,1.6-1.4c13.8,2.9,27.6,5.7,41.4,8.6
		c10.3,2.1,20.5,4.3,30.8,6.4c1.8,0.4,3.7-0.1,5.5-0.2c7.7-0.3,15.4-0.6,23-0.9c11.1-0.5,22.2-1,33.3-1.5c6.6-0.3,13.3-0.6,19.9-0.8
		c6.6-0.3,13.3-0.5,19.9-0.8c1.9-0.1,2.3,0.5,2.3,2.3c-0.1,6.1,0,12.2,0,18.3c0,1.4,0.1,1.9,1.8,1.6c14.2-3.1,28.4-6,42.6-9
		c3.3-0.7,6.5-1.4,9.8-2.1c1.3-0.3,2-0.1,2.4,1.4c8,30.6,16,61.2,24.1,91.8c0.4,1.7,0.2,2.1-1.6,2.2c-13.2,0.5-26.4,1-39.6,1.6
		c-8.6,0.4-17.2,0.8-25.8,1.1c-12.1,0.5-24.1,1.1-36.2,1.7c-1.4,0.1-2.2,0-1.9-1.6c0.2-1.1-0.4-1.3-1.4-1.2
		c-9.8,1.3-19.6,2.6-29.4,3.8c-9.9,1.2-19.8,2.4-29.7,3.7c-4.5,0.6-9,1.1-13.5,1.8c-1.2,0.2-1.6-0.2-1.7-1.2c-0.7-4.3-1.4-8.7-2-13
		c-0.2-1.4-0.9-2-2.2-2.2c-9.9-1.4-19.9-2.8-29.8-4.2c-4.8-0.7-9.6-1.3-14.4-2.1c-1.4-0.2-1.8,0.3-1.8,1.7
		c0.3,6.3,0.5,12.6,0.9,18.9c0.1,1.6-0.4,2-2,1.9c-6.7-0.5-13.3-1-20-1.5c-4.3-0.3-8.5-0.6-12.8-0.9c-7-0.5-14-1-21-1.5
		c-1.8-0.1-3.7,0.1-5.5-0.3c-0.6-0.2-1,0-0.8,0.8c0.1,0.2,0.1,0.4,0.1,0.6c0.8,4,0.8,3.9-3.2,4c-11.9,0.5-23.7,1-35.6,1.5
		c-8.1,0.3-16.3,0.5-24.4,0.9c-11,0.5-22,1-33.1,1.5c-3.3,0.2-6.7,0.1-10,0.3c-8,0.5-16,0.7-24,0.9c-2.4,0.1-2.4,0-1.8-2.4
		c1.1-4.4,2.2-8.8,3.4-13.1c0.4-1.3,0.1-1.8-1.4-1.9c-10.5-0.8-20.9-1.8-31.4-2.6c-8.8-0.7-17.5-1.4-26.3-2
		c-1.3-0.1-1.7-0.5-1.7-1.8c0.2-20.3,0.3-40.6,0.7-60.9C0.8,47,0.7,37.1,1,27.2c0.3-8.4,0.3-16.8,0.3-25.2c0-1.8,0.3-2.2,2.2-1.7
		C23.9,5.5,44.3,10.8,64.8,16c19.7,5.1,39.4,10.2,59.1,15.2c1.6,0.4,1.9,1,1.3,2.4c-0.2,0.4-0.3,0.9-0.4,1.3c-0.5,1.1-0.2,1.4,1,1.5
		c9.6,0.7,19.2,1.6,28.8,2.3c1.8,0.1,3.5,0,5.3,0.4c1.1,0.2,1.7-0.1,1.9-1.3c0.3-1.7,0.9-3.4,1.2-5.2c0.2-1.2,0.7-1.5,1.9-1.4
		c3.8,0.5,7.5,0.9,11.3,1.4c5.7,0.7,11.4,1.4,17.1,2.2c6.8,0.9,13.5,1.7,20.3,2.6c2.8,0.4,5.6,0.6,8.4,1.1c1.6,0.3,1.7-0.3,1.6-1.5
		C223.4,32.2,223.4,27.6,223.3,22.9C223.4,22.9,223.4,22.9,223.3,22.9z M77.8,117.3c-0.2,1.2-0.2,2.4-0.6,3.5c-0.6,1.8,0.1,2,1.7,2
		c17.9-0.4,35.9-0.8,53.8-1.2c10-0.2,20-0.8,30-0.4c14.2,0.6,28.3,1.9,42.5,2.9c12.5,0.9,24.9,1.8,37.4,2.9c1.4,0.1,1.8-0.1,1.7-1.6
		c-0.2-6.2-0.4-12.4-0.5-18.5c0-0.6-0.5-1.6,0.9-1.4c3.7,0.6,7.5,1.1,11.2,1.7c4.9,0.7,9.9,1.5,14.8,2.2c4.9,0.7,9.8,1.4,14.7,2.1
		c4.9,0.7,9.8,1.5,14.6,2.3c1,0.2,1.5-0.2,1.8-1.2c0.4-1.4,0.9-2.7,1.3-4.1c1.1-3.3,2.3-6.5,3.4-9.8c0.6,0.2,0.5,0.5,0.6,0.7
		c1.1,7.3,2.1,14.7,3.2,22c0.3,2.3,0.5,2.4,2.8,2.1c3.8-0.6,7.6-1,11.5-1.5c6.1-0.7,12.2-1.3,18.3-2.1c6.1-0.7,12.2-1.6,18.3-2.3
		c6.4-0.8,12.7-1.5,19.1-2.3c0.9-0.1,1.2,0,1.1,0.9c-0.1,1.4,0.1,2.8-0.1,4.1c-0.2,1.6,0.2,2.1,2,2c18.8-1.1,37.7-2.2,56.5-3.2
		c10.4-0.6,20.7-1.2,31.1-1.7c1.3-0.1,1.8-0.3,1.5-1.8c-6.6-26.8-13.1-53.6-19.5-80.4c-0.4-1.5-1-1.4-2-1.2
		c-11.9,2.4-23.9,4.9-35.8,7.3c-7.9,1.6-15.8,3.2-23.8,4.8c-1.1,0.2-1.7,0.1-1.7-1.4c0.1-4.2,0-8.4-0.3-12.6c-0.1-1-0.2-1.3-1.3-1.2
		c-4,0.3-8,0.4-12,0.6c-5.8,0.3-11.7,0.6-17.5,0.9c-9.2,0.5-18.5,1-27.7,1.5c-6.4,0.3-12.7,0.8-19.1,1c-3.6,0.1-7.2,0.9-10.8,0.2
		c-4-0.8-8.1-1.6-12.1-2.4c-14.9-3-29.7-5.9-44.6-8.9c-3.3-0.7-6.6-1.3-10.5-2c0,7.3,0,14.2,0,21.1c0,0.9,0.2,1.9-1.4,1.7
		c-3.4-0.5-6.8-0.9-10.1-1.3c-6-0.7-11.9-1.5-17.9-2.2c-5.7-0.7-11.4-1.4-17.2-2.1c-5.8-0.7-11.6-1.5-17.3-2.2c-1.1-0.1-1.7,0-2,1.4
		c-1.4,6.5-2.9,13.1-4.4,20c-0.7-3.9-1.5-7.4-2-11c-0.2-1.3-0.8-1.3-1.8-1.4c-4.7-0.2-9.3-0.5-13.9-0.9c-6.7-0.5-13.3-0.9-20-1.5
		c-5.1-0.4-10.2-0.5-15.3-1.2c-0.2-0.4-0.7-0.6-1.1-0.7c-4.1-0.9-8.2-1.8-12.4-2.8c-18.9-4.4-37.9-8.8-56.8-13.2
		c-7.5-1.7-15-3.5-22.4-5.2c-0.7-0.2-1.5-0.4-1.6,0.9c-0.3,7.7-0.8,15.5-1.2,23.2c-0.4,8.9-0.9,17.8-1.3,26.8
		c-0.6,12.7-1.3,25.5-1.9,38.2c-0.1,1.2,0.3,1.5,1.5,1.6c3.3,0.2,6.5,0.5,9.8,0.8c4.7,0.5,9.5,1.1,14.2,1.5
		c4.9,0.5,9.8,0.8,14.6,1.2c6.7,0.6,13.4,1.2,20.1,2C73.7,116.8,75.8,116.6,77.8,117.3z"/>
	<path fill="#FCFCFC" d="M110.1,42.2c5.1,0.7,10.2,0.8,15.3,1.2c6.7,0.5,13.3,1,20,1.5c4.6,0.3,9.3,0.6,13.9,0.9
		c1,0.1,1.6,0.1,1.8,1.4c0.5,3.5,1.3,7,2,11c1.6-7,3.1-13.5,4.4-20c0.3-1.4,0.9-1.5,2-1.4c5.8,0.7,11.6,1.5,17.3,2.2
		c5.7,0.7,11.4,1.4,17.2,2.1c6,0.7,11.9,1.5,17.9,2.2c3.4,0.4,6.8,0.8,10.1,1.3c1.5,0.2,1.4-0.8,1.4-1.7c0-6.9,0-13.8,0-21.1
		c3.9,0.7,7.2,1.4,10.5,2c14.9,3,29.7,5.9,44.6,8.9c4,0.8,8.1,1.6,12.1,2.4c3.6,0.7,7.2,0,10.8-0.2c6.4-0.2,12.7-0.7,19.1-1
		c9.2-0.5,18.5-1,27.7-1.5c5.8-0.3,11.7-0.6,17.5-0.9c4-0.2,8-0.3,12-0.6c1.1-0.1,1.3,0.3,1.3,1.2c0.3,4.2,0.4,8.4,0.3,12.6
		c0,1.5,0.5,1.6,1.7,1.4c7.9-1.6,15.8-3.2,23.8-4.8c11.9-2.4,23.9-4.9,35.8-7.3c1-0.2,1.7-0.3,2,1.2c6.4,26.8,13,53.6,19.5,80.4
		c0.4,1.5-0.2,1.7-1.5,1.8c-10.4,0.5-20.7,1.2-31.1,1.7c-18.8,1.1-37.7,2.1-56.5,3.2c-1.7,0.1-2.1-0.4-2-2c0.2-1.4,0-2.8,0.1-4.1
		c0-0.9-0.2-1-1.1-0.9c-6.3,0.8-12.7,1.5-19.1,2.3c-6.1,0.7-12.2,1.6-18.3,2.3c-6.1,0.7-12.2,1.3-18.3,2.1
		c-3.8,0.4-7.7,0.9-11.5,1.5c-2.3,0.3-2.5,0.2-2.8-2.1c-1-7.3-2.1-14.7-3.2-22c0-0.2,0-0.5-0.6-0.7c-1.1,3.2-2.3,6.5-3.4,9.8
		c-0.5,1.3-1,2.7-1.3,4.1c-0.3,1-0.8,1.4-1.8,1.2c-4.9-0.8-9.7-1.5-14.6-2.3c-4.9-0.7-9.8-1.4-14.7-2.1c-4.9-0.7-9.9-1.5-14.8-2.2
		c-3.7-0.6-7.5-1.1-11.2-1.7c-1.3-0.2-0.9,0.8-0.9,1.4c0.2,6.2,0.3,12.4,0.5,18.5c0.1,1.4-0.3,1.7-1.7,1.6c-12.4-1-24.9-2-37.4-2.9
		c-14.2-1-28.3-2.3-42.5-2.9c-10-0.4-20,0.2-30,0.4c-17.9,0.4-35.9,0.7-53.8,1.2c-1.6,0-2.3-0.2-1.7-2c0.4-1.1,0.4-2.3,0.6-3.5
		c0.1-0.3,0.3-0.6,0.3-0.9c4.8-24.4,9.5-48.8,14.2-73.2c0.4-1.8,1-2,2.7-1.9C100.1,41.7,105.1,41.9,110.1,42.2z M349.8,92.6
		c-2.9-5.1-5.6-9.7-8.3-14.3c-5.1-8.9-10.3-17.8-15.4-26.7c-0.5-0.9-1.1-1.5-2.3-1.4c-5.1,0.4-10.2,0.7-15.3,1.1
		c-0.6,0-1.6-0.3-1.5,0.9c0,1.2,0.9,0.8,1.6,0.9c6.2,0.4,7.2,1.3,8.3,7.4c0,0.2,0.1,0.4,0.1,0.6c1.5,12.4,3,24.8,4.4,37.2
		c0.7,6.4-0.6,8.3-6.1,9.3c-0.6,0.1-1.2,0.3-1,1.1c0.2,0.7,0.7,0.6,1.3,0.5c3.3-0.4,6.5-0.6,9.8-0.9c2.5-0.2,4.9-0.5,7.4-0.8
		c0.6-0.1,1.7,0.1,1.7-0.9c0-1-1-0.8-1.7-0.9c-0.2,0-0.4,0-0.6,0c-3.5-0.2-4.8-1.2-5.9-4.6c-1.2-3.7-1.3-7.6-1.8-11.4
		c-0.9-7.4-1.8-14.8-2.6-22.2c-0.2-1.7-0.4-3.4-0.5-5c0.7,0.5,1.1,1.1,1.5,1.7c8,13.4,16.1,26.9,24.1,40.3c0.3,0.5,0.4,1.3,1.3,1.2
		c0.9-0.1,0.9-0.8,1.1-1.4c4.7-12.9,9.5-25.9,14.2-38.8c1.1-2.9,2.2-5.8,3.2-8.6c0.5,3.6,0.6,7,0.8,10.5c0.5,9.1,1.1,18.1,1.4,27.2
		c0.2,6.1,0.1,6.1-5.8,8c-0.5,0.2-1,0.3-0.9,1.1c0.1,1,0.7,0.5,1.2,0.4c5.6-0.5,11.2-1.1,16.8-1.7c0.6-0.1,1.3,0,1.4-1
		c0.1-0.9-0.5-1.2-1.1-1.3c-1.7-0.3-2.6-1.4-2.8-3c-0.2-1.2-0.3-2.3-0.4-3.5c-0.5-11.4-1-22.9-1.5-34.3c-0.1-2.2-0.2-4.5,0.2-6.7
		c0.3-1.4,0.9-2.5,2.2-3c1-0.4,2.1-0.8,3.1-1.1c0.7-0.2,1.6-0.2,1.4-1.2c-0.1-1-1-0.6-1.6-0.6c-4.5,0.2-9.1,0.6-13.6,0.8
		c-1.5,0.1-2,0.6-2.5,1.9c-2.4,6.9-4.8,13.7-7.2,20.5C355.3,77.2,352.6,84.7,349.8,92.6z M125.5,103.4
		C125.5,103.4,125.5,103.4,125.5,103.4c7.8,0,15.5,0,23.3,0c1.1,0,1.6-0.3,1.8-1.5c0.5-4,1.2-7.9,1.8-11.8c0.1-0.6,0.4-1.3-0.1-1.6
		c-0.6-0.4-1.4-0.3-2.1-0.1c-0.8,0.2-0.7,1-1,1.6c-1.7,3.9-3.9,7.3-8.5,8.3c-6.2,1.2-12.4,1.2-18.6,0.6c-2.1-0.2-2.8-1.4-2.7-3.1
		c0.2-6.4,0.5-12.9,0.7-19.3c0-0.8,0.3-1.1,1.2-1.1c3.9,0.2,7.8,0.1,11.6,0.5c4.8,0.4,6.5,0.7,7.8,6.3c0.2,0.9,0.8,1.5,1.8,1.4
		c1.3-0.1,1-1,0.9-1.8c-0.3-4.6-0.6-9.2-0.9-13.8c-0.1-0.9,0-1.9-1.3-2c-1.4-0.1-1.3,1-1.4,1.9c-0.7,3.4-1.6,4.2-5,4.5
		c-4.5,0.4-8.9-0.1-13.4-0.2c-0.9,0-1.2-0.3-1.2-1.3c0.3-4.5,0.4-9.1,0.6-13.6c0-1.5,0.7-2.3,2.2-2.1c5,0.4,10.1,0.3,15.1,1.2
		c2.4,0.4,4.2,1.8,5,4.2c0.2,0.6,0.4,1.1,0.6,1.7c0.3,1,1.1,0.7,1.8,0.8c1,0,0.7-0.7,0.7-1.3c-0.3-2.3-0.6-4.6-0.8-6.8
		c-0.1-0.9-0.6-1-1.3-1.1c-3.5-0.2-6.9-0.5-10.4-0.7c-8.1-0.5-16.3-1-24.4-1.5c-0.9-0.1-2.5-0.8-2.7,0.6c-0.3,1.6,1.6,1,2.4,1.2
		c3,0.8,3.8,1.5,3.7,4.6c-0.1,3.3-0.4,6.7-0.7,10c-0.8,9.3-1.1,18.6-2.4,27.9c-0.4,2.7-1.4,4-4.1,4.6c-0.9,0.2-1.9,0.5-2.9,0.6
		c-1.1,0.1-1.8,0.4-1.7,1.6c0.1,1.3,1.1,0.8,1.8,0.8C110.1,103.4,117.8,103.4,125.5,103.4z M417.2,99.5c-4-0.1-4.7-0.4-4.9-2.8
		c-0.6-6.3-1-12.6-1.5-18.9c-0.1-0.9,0.2-1.3,1.1-1.4c4.1-0.5,8.2-1.2,12.3-1.5c4.8-0.3,5.8,0.6,7.5,5.2c0.4,1,0.9,1.7,2.2,1.3
		c1.3-0.4,0.9-1.3,0.8-2.1c-0.7-4.9-1.5-9.9-2.2-14.8c-0.1-0.9,0-2-1.5-1.8c-1.3,0.1-1.3,0.9-1.4,1.9c-0.3,4-1.1,5.2-5,6.3
		c-4.2,1.2-8.7,1.4-13,2.1c-1,0.2-1.2-0.3-1.2-1.2c-0.3-4.5-0.7-9-1.1-13.6c-0.2-2.4,0.3-3,2.7-3.5c3.6-0.6,7.2-1.5,10.8-1.8
		c5.3-0.4,7.9-1.5,10.3,4.7c0.5,1.2,1.4,0.8,2.2,0.7c0.9-0.2,0.8-0.9,0.6-1.6c-0.5-2.4-1.1-4.9-1.5-7.3c-0.2-1.4-1-1.5-2.1-1.3
		c-11.8,2.2-23.5,4.4-35.3,6.6c-0.7,0.1-1.8,0-1.6,1.2c0.2,1,1.2,0.5,1.8,0.5c3.3,0.1,4.1,0.6,4.3,4c0.8,12.1,1.6,24.1,1.7,36.2
		c0.1,4.3-0.9,5.3-5.1,6.3c-1,0.2-1.5,0.5-1.3,1.5c0.2,1.2,1.1,0.7,1.7,0.6c8.4-0.7,16.8-1.4,25.1-2.1c6.1-0.5,12.2-1.1,18.3-1.6
		c0.8-0.1,1.8,0.2,2-1.3c0.4-4.6,0.9-9.1,1.3-13.7c0.1-0.8-0.2-1.2-1.1-1.2c-1.6-0.1-2.3,0.7-2.7,2.2c-1.3,4.3-3.5,8-8.1,9.5
		C428.1,98.7,422.5,99.2,417.2,99.5z M201.9,107c1.4,0.2,2.7-0.1,4-0.3c6.4-1.1,11-4.5,13.1-10.8c2-6.2,0.5-11.6-4.1-16.2
		c-3.8-3.8-8.3-6.8-12.6-10c-2.2-1.7-4.4-3.3-6.1-5.6c-3-4.1-1.4-8.9,3.5-10.1c4.6-1.1,8.5,0.8,11.8,3.8c2.7,2.4,3.9,5.6,4.7,8.9
		c0.3,1.2,1.1,1.2,1.9,1.2c1.1,0,0.6-1,0.6-1.5c-0.2-4.4-0.5-8.8-0.8-13.1c0-0.4,0.1-1-0.6-1.1c-0.6,0-1.4-0.4-1.8,0.4
		c-0.9,1.8-2.2,1.4-3.7,0.8c-3.2-1.3-6.3-2.7-9.9-3.1c-6.5-0.7-13.7,3-15.1,10.2c-1,5.3,1.1,9.2,4.9,12.5c4.7,4.1,10,7.4,14.6,11.6
		c3.8,3.4,5,8.2,3.2,12.5c-2.2,5-8.3,7.1-14,4.9c-5.2-2-8.4-5.8-10.5-10.8c-0.6-1.6-1.1-3.2-1.6-4.9c-0.3-1.2-1.1-1.1-2-1.2
		c-0.8,0-1,0.4-1,1.2c0,5.8-0.1,11.7-0.1,17.5c0,0.7,0,1.5,1,1.6c0.8,0,1.5,0.1,2-0.9c1.1-2.1,2.1-2.3,4.3-1.3
		C192.4,105.2,196.9,107.2,201.9,107z M251.7,80.8c0.1,0,0.1,0,0.2,0c0,0.6,0,1.2,0,1.8c-0.1,6.9,4,12.6,10.6,14.9
		c2.8,1,5.7,1.5,8.6,1.8c9.2,1,16.8-2,20-12.3c1.8-5.6,3.1-11.4,4.7-17c1.2-4.2,1.8-8.7,4.2-12.4c1.5-2.2,0.4-4.1,0.4-6.2
		c0-0.5-0.5-0.6-0.9-0.7c-3.3-0.6-6.7-1.2-10-1.8c-0.7-0.1-1.1,0.2-1.2,0.9c-0.1,0.7,0,1.2,0.7,1.4c0.3,0.1,0.6,0.2,0.9,0.4
		c5.1,2.2,5,3.9,4.2,7.8c-1.9,9.4-4.2,18.6-6.9,27.8c-1.4,4.7-4.3,8.1-9.4,9c-2.4,0.4-4.8,0.2-7.2-0.2c-8-1.4-10.9-6.5-10.2-13.1
		c1.1-9.6,2.5-19.1,3.9-28.7c0.8-5.4,1.8-6.3,7.3-6.2c0.9,0,1.9,0.3,2.1-1.1c0.1-1.4-1.1-1.3-1.9-1.5c-7.5-1.4-15-2.8-22.5-4.2
		c-0.5-0.1-1.3-0.5-1.4,0.4c-0.1,0.7-0.5,1.6,0.7,1.9c1,0.3,2,0.7,2.9,1.1c2.5,1.1,3.7,2.7,3.5,5.3c-0.3,3.9-0.7,7.8-1.1,11.8
		C253,68.2,252.3,74.5,251.7,80.8z"/>
	<path fill="#ED2228" d="M110.1,42.2c-5-0.3-10.1-0.5-15.1-1c-1.7-0.2-2.3,0-2.7,1.9c-4.7,24.4-9.5,48.8-14.2,73.2
		c-0.1,0.3-0.2,0.6-0.3,0.9c-2-0.7-4.1-0.5-6.2-0.7c-6.7-0.8-13.4-1.4-20.1-2c-4.9-0.4-9.8-0.8-14.6-1.2c-4.7-0.5-9.5-1-14.2-1.5
		c-3.2-0.3-6.5-0.6-9.8-0.8c-1.2-0.1-1.6-0.4-1.5-1.6c0.7-12.7,1.3-25.5,1.9-38.2c0.4-8.9,0.9-17.8,1.3-26.8
		c0.4-7.7,0.8-15.5,1.2-23.2c0.1-1.4,0.8-1.1,1.6-0.9c7.5,1.7,15,3.5,22.4,5.2c18.9,4.4,37.9,8.8,56.8,13.2c4.1,1,8.2,1.9,12.4,2.8
		C109.5,41.6,109.9,41.8,110.1,42.2z M60.3,79c2.5,0,4.7-0.4,6.9-0.8C79,75.9,81.1,61.9,76,55.7c-3.5-4.2-8.2-6.5-13.4-7.7
		c-9.4-2.1-18.9-3.9-28.4-5.9c-0.5-0.1-0.9-0.4-1,0.4c-0.1,0.6-0.4,1.2,0.3,1.5c0.4,0.2,0.8,0.2,1.1,0.3c4.8,1.6,6,3.2,5.7,8.2
		c-0.3,4.1-0.9,8.2-1.4,12.3c-0.7,5.9-1.4,11.8-2.2,17.7c-0.5,3.9-0.7,7.8-1.6,11.7c-0.7,3.2-1.8,4-5,4.1c-0.4,0-0.8,0-1.2,0
		c-0.6,0-1.4-0.2-1.5,0.8c-0.1,1.2,0.8,0.7,1.4,0.8c4.1,0.5,8.3,1,12.4,1.5c2.5,0.3,5.1,0.6,7.6,0.8c0.5,0,1.3,0.4,1.4-0.6
		c0.1-0.8-0.6-0.9-1.2-1c-0.3-0.1-0.6-0.1-1-0.2c-3.8-1.1-4.6-2.1-4.1-5.9c0.7-5.2,1.5-10.4,2.3-15.5c0.1-0.4,0-0.7,0.5-0.9
		c1.5-0.5,4.5,0.7,5.4,2.1c4.3,7.6,8.6,15.1,12.9,22.7c0.3,0.5,0.4,1.2,1.1,1.3c3.5,0.4,7,0.8,10.5,1.2c0.4,0,1,0.2,1.1-0.5
		c0.2-0.7-0.4-1-0.9-1c-2.3-0.4-3.6-2.1-4.6-3.9c-1.9-3.3-3.7-6.6-5.6-9.9C64.6,86.4,62.5,82.8,60.3,79z"/>
	<path fill="#0D0D0D" d="M349.8,92.6c2.8-7.9,5.4-15.4,8.1-22.8c2.4-6.8,4.8-13.7,7.2-20.5c0.4-1.3,1-1.9,2.5-1.9
		c4.5-0.2,9.1-0.5,13.6-0.8c0.6,0,1.5-0.4,1.6,0.6c0.1,1-0.7,1-1.4,1.2c-1.1,0.3-2.1,0.7-3.1,1.1c-1.4,0.5-2,1.6-2.2,3
		c-0.4,2.2-0.3,4.5-0.2,6.7c0.5,11.4,1,22.9,1.5,34.3c0.1,1.2,0.2,2.4,0.4,3.5c0.2,1.7,1.1,2.7,2.8,3c0.7,0.1,1.2,0.3,1.1,1.3
		c-0.1,1-0.8,0.9-1.4,1c-5.6,0.6-11.2,1.1-16.8,1.7c-0.4,0-1.1,0.5-1.2-0.4c-0.1-0.7,0.4-0.9,0.9-1.1c5.9-1.9,6-1.9,5.8-8
		c-0.3-9.1-0.9-18.1-1.4-27.2c-0.2-3.5-0.3-7-0.8-10.5c-1.1,2.9-2.2,5.7-3.2,8.6c-4.7,12.9-9.5,25.9-14.2,38.8
		c-0.2,0.6-0.2,1.3-1.1,1.4c-0.9,0.1-1-0.7-1.3-1.2c-8-13.4-16.1-26.9-24.1-40.3c-0.4-0.6-0.8-1.2-1.5-1.7c0.2,1.7,0.3,3.4,0.5,5
		c0.9,7.4,1.7,14.8,2.6,22.2c0.5,3.8,0.6,7.7,1.8,11.4c1.1,3.4,2.4,4.4,5.9,4.6c0.2,0,0.4,0,0.6,0c0.7,0,1.7-0.2,1.7,0.9
		c0,1-1,0.8-1.7,0.9c-2.5,0.3-4.9,0.6-7.4,0.8c-3.3,0.3-6.5,0.6-9.8,0.9c-0.6,0.1-1.1,0.2-1.3-0.5c-0.2-0.8,0.4-1,1-1.1
		c5.5-1,6.9-2.9,6.1-9.3c-1.4-12.4-3-24.8-4.4-37.2c0-0.2,0-0.4-0.1-0.6c-1.1-6.1-2.1-7-8.3-7.4c-0.7,0-1.5,0.3-1.6-0.9
		c0-1.2,0.9-0.9,1.5-0.9c5.1-0.4,10.2-0.7,15.3-1.1c1.2-0.1,1.8,0.4,2.3,1.4c5.1,8.9,10.3,17.8,15.4,26.7
		C344.2,82.9,346.9,87.5,349.8,92.6z"/>
	<path fill="#111212" d="M125.5,103.4c-7.7,0-15.4,0-23.1,0c-0.7,0-1.7,0.5-1.8-0.8c-0.1-1.2,0.6-1.5,1.7-1.6c1,0,1.9-0.3,2.9-0.6
		c2.6-0.7,3.7-1.9,4.1-4.6c1.3-9.3,1.6-18.6,2.4-27.9c0.3-3.3,0.6-6.7,0.7-10c0.1-3.1-0.7-3.8-3.7-4.6c-0.8-0.2-2.6,0.4-2.4-1.2
		c0.2-1.4,1.8-0.6,2.7-0.6c8.1,0.4,16.3,0.9,24.4,1.5c3.5,0.2,6.9,0.5,10.4,0.7c0.7,0,1.2,0.2,1.3,1.1c0.2,2.3,0.6,4.6,0.8,6.8
		c0.1,0.5,0.3,1.3-0.7,1.3c-0.7,0-1.5,0.3-1.8-0.8c-0.2-0.6-0.4-1.1-0.6-1.7c-0.8-2.4-2.5-3.8-5-4.2c-5-0.9-10.1-0.8-15.1-1.2
		c-1.4-0.1-2.1,0.6-2.2,2.1c-0.1,4.5-0.3,9.1-0.6,13.6c-0.1,1,0.3,1.3,1.2,1.3c4.5,0.1,8.9,0.6,13.4,0.2c3.4-0.3,4.3-1.1,5-4.5
		c0.2-0.9,0-1.9,1.4-1.9c1.3,0.1,1.3,1.1,1.3,2c0.3,4.6,0.6,9.2,0.9,13.8c0,0.7,0.4,1.7-0.9,1.8c-1,0.1-1.6-0.5-1.8-1.4
		c-1.3-5.5-3-5.9-7.8-6.3c-3.9-0.3-7.7-0.3-11.6-0.5c-0.9,0-1.1,0.3-1.2,1.1c-0.2,6.4-0.5,12.9-0.7,19.3c0,1.7,0.6,2.9,2.7,3.1
		c6.2,0.7,12.4,0.7,18.6-0.6c4.6-0.9,6.8-4.4,8.5-8.3c0.3-0.6,0.2-1.4,1-1.6c0.7-0.2,1.5-0.3,2.1,0.1c0.6,0.4,0.2,1.1,0.1,1.6
		c-0.6,3.9-1.3,7.9-1.8,11.8c-0.2,1.2-0.6,1.5-1.8,1.5C141,103.4,133.3,103.4,125.5,103.4C125.5,103.4,125.5,103.4,125.5,103.4z"/>
	<path fill="#111212" d="M417.2,99.5c5.2-0.3,10.8-0.7,16.2-2.6c4.5-1.5,6.7-5.2,8.1-9.5c0.5-1.5,1.1-2.3,2.7-2.2
		c0.9,0.1,1.1,0.4,1.1,1.2c-0.5,4.6-1,9.1-1.3,13.7c-0.1,1.5-1.1,1.2-2,1.3c-6.1,0.6-12.2,1.1-18.3,1.6c-8.4,0.7-16.8,1.4-25.1,2.1
		c-0.6,0.1-1.5,0.6-1.7-0.6c-0.1-1,0.4-1.3,1.3-1.5c4.3-0.9,5.2-1.9,5.1-6.3c-0.1-12.1-1-24.2-1.7-36.2c-0.2-3.4-1-3.9-4.3-4
		c-0.6,0-1.6,0.5-1.8-0.5c-0.2-1.2,0.9-1,1.6-1.2c11.8-2.2,23.5-4.4,35.3-6.6c1.1-0.2,1.8-0.1,2.1,1.3c0.4,2.5,1,4.9,1.5,7.3
		c0.1,0.6,0.3,1.4-0.6,1.6c-0.8,0.1-1.7,0.5-2.2-0.7c-2.4-6.1-5-5.1-10.3-4.7c-3.6,0.3-7.2,1.2-10.8,1.8c-2.4,0.4-2.9,1-2.7,3.5
		c0.4,4.5,0.8,9,1.1,13.6c0.1,0.9,0.2,1.4,1.2,1.2c4.3-0.7,8.8-0.9,13-2.1c3.8-1.1,4.7-2.3,5-6.3c0.1-1,0.1-1.8,1.4-1.9
		c1.4-0.1,1.4,1,1.5,1.8c0.8,4.9,1.5,9.9,2.2,14.8c0.1,0.8,0.5,1.7-0.8,2.1c-1.3,0.3-1.8-0.3-2.2-1.3c-1.7-4.6-2.7-5.5-7.5-5.2
		c-4.1,0.3-8.2,1-12.3,1.5c-0.9,0.1-1.2,0.5-1.1,1.4c0.5,6.3,0.9,12.6,1.5,18.9C412.5,99,413.2,99.4,417.2,99.5z"/>
	<path fill="#111212" d="M201.9,107c-5,0.2-9.5-1.8-14-3.9c-2.2-1-3.2-0.8-4.3,1.3c-0.5,0.9-1.2,0.9-2,0.9c-1-0.1-1-0.8-1-1.6
		c0-5.8,0.1-11.7,0.1-17.5c0-0.7,0.2-1.2,1-1.2c0.8,0,1.7,0,2,1.2c0.4,1.6,0.9,3.3,1.6,4.9c2,5,5.3,8.8,10.5,10.8
		c5.6,2.2,11.8,0.1,14-4.9c1.8-4.2,0.6-9.1-3.2-12.5c-4.6-4.2-9.9-7.5-14.6-11.6c-3.8-3.3-5.9-7.2-4.9-12.5
		c1.4-7.2,8.6-10.9,15.1-10.2c3.5,0.4,6.7,1.8,9.9,3.1c1.5,0.6,2.8,0.9,3.7-0.8c0.4-0.8,1.2-0.4,1.8-0.4c0.7,0,0.5,0.6,0.6,1.1
		c0.3,4.4,0.6,8.8,0.8,13.1c0,0.5,0.5,1.5-0.6,1.5c-0.8,0-1.6,0-1.9-1.2c-0.8-3.3-2-6.6-4.7-8.9c-3.4-3-7.2-4.9-11.8-3.8
		c-4.9,1.2-6.6,6-3.5,10.1c1.7,2.2,3.9,3.9,6.1,5.6c4.3,3.2,8.8,6.2,12.6,10c4.6,4.6,6.1,10.1,4.1,16.2c-2.1,6.2-6.7,9.7-13.1,10.8
		C204.6,106.9,203.3,107.2,201.9,107z"/>
	<path fill="#0D0D0D" d="M251.7,80.8c0.6-6.3,1.3-12.7,1.9-19c0.4-3.9,0.8-7.8,1.1-11.8c0.2-2.6-1-4.3-3.5-5.3
		c-1-0.4-1.9-0.8-2.9-1.1c-1.2-0.3-0.8-1.2-0.7-1.9c0.1-0.9,0.9-0.5,1.4-0.4c7.5,1.4,15,2.8,22.5,4.2c0.8,0.2,2,0.1,1.9,1.5
		c-0.1,1.4-1.1,1.1-2.1,1.1c-5.4-0.1-6.5,0.8-7.3,6.2c-1.3,9.6-2.8,19.1-3.9,28.7c-0.7,6.6,2.1,11.7,10.2,13.1
		c2.4,0.4,4.8,0.6,7.2,0.2c5.1-0.9,8-4.3,9.4-9c2.7-9.2,5-18.5,6.9-27.8c0.8-3.9,0.9-5.6-4.2-7.8c-0.3-0.1-0.6-0.3-0.9-0.4
		c-0.7-0.3-0.8-0.7-0.7-1.4c0.1-0.7,0.5-1,1.2-0.9c3.3,0.6,6.7,1.2,10,1.8c0.4,0.1,0.9,0.2,0.9,0.7c0,2.1,1.1,4-0.4,6.2
		c-2.4,3.7-3,8.2-4.2,12.4c-1.6,5.7-2.9,11.4-4.7,17c-3.2,10.3-10.7,13.3-20,12.3c-2.9-0.3-5.8-0.9-8.6-1.8
		c-6.6-2.3-10.7-8-10.6-14.9c0-0.6,0-1.2,0-1.8C251.8,80.8,251.7,80.8,251.7,80.8z"/>
	<path fill="#FCFCFC" d="M60.3,79c2.2,3.8,4.2,7.4,6.3,11c1.9,3.3,3.7,6.6,5.6,9.9c1.1,1.8,2.3,3.5,4.6,3.9c0.5,0.1,1,0.3,0.9,1
		c-0.1,0.6-0.7,0.5-1.1,0.5c-3.5-0.4-7-0.8-10.5-1.2c-0.7-0.1-0.8-0.8-1.1-1.3c-4.3-7.6-8.6-15.1-12.9-22.7
		c-0.8-1.5-3.8-2.6-5.4-2.1c-0.5,0.2-0.5,0.5-0.5,0.9c-0.8,5.2-1.6,10.3-2.3,15.5c-0.5,3.8,0.3,4.8,4.1,5.9c0.3,0.1,0.6,0.2,1,0.2
		c0.6,0.1,1.3,0.1,1.2,1c-0.1,1-0.9,0.6-1.4,0.6c-2.5-0.2-5.1-0.5-7.6-0.8c-4.1-0.5-8.3-1-12.4-1.5c-0.5-0.1-1.5,0.4-1.4-0.8
		c0.1-1,0.9-0.7,1.5-0.8c0.4,0,0.8,0,1.2,0c3.2-0.1,4.3-0.9,5-4.1c0.9-3.8,1.1-7.8,1.6-11.7c0.8-5.9,1.5-11.8,2.2-17.7
		c0.5-4.1,1.1-8.2,1.4-12.3c0.3-5.1-0.9-6.7-5.7-8.2c-0.4-0.1-0.8-0.2-1.1-0.3c-0.8-0.3-0.5-1-0.3-1.5c0.2-0.7,0.6-0.4,1-0.4
		c9.5,2,18.9,3.8,28.4,5.9c5.2,1.2,9.9,3.5,13.4,7.7c5.2,6.2,3,20.1-8.8,22.5C65,78.6,62.8,79,60.3,79z M54.5,75.6
		c0-0.1,0-0.1,0-0.2c1.2,0,2.5,0.1,3.7,0c5.2-0.3,8.9-3.2,10.5-8c1.7-5.2,0.7-9.8-3-12.9c-3.8-3.1-8.4-4.1-13.2-4.4
		c-1.4-0.1-2.1,0.8-2.2,2c-1.1,7.2-2.2,14.4-3.3,21.6c-0.1,0.9-0.1,1.4,1.1,1.5C50.3,75.1,52.4,75.4,54.5,75.6z"/>
	<path fill="#ED2228" d="M54.5,75.6c-2.1-0.2-4.2-0.5-6.3-0.5c-1.2,0-1.3-0.6-1.1-1.5c1.1-7.2,2.1-14.4,3.3-21.6
		c0.2-1.2,0.8-2.1,2.2-2c4.8,0.4,9.4,1.3,13.2,4.4c3.7,3.1,4.7,7.7,3,12.9c-1.6,4.8-5.3,7.7-10.5,8c-1.2,0.1-2.5,0-3.7,0
		C54.5,75.5,54.5,75.5,54.5,75.6z"/>
</g>
</svg>
