<svg xmlns="http://www.w3.org/2000/svg" baseProfile="tiny" viewBox="0 0 478.49 120.77"><path fill="#0a0504" d="M262.95-.03h1.44c6.6 1.3 12.97 3.43 19.43 5.23l60.76 17.03c4.04 1.1 8.04 2.47 12.23 2.97 10.64 1.3 21.2 3.1 31.84 4.42 2.64.32 2.72 1.05 3.35-2.4l3.3-17.08c.35-1.97 1-2.45 3-1.93 3.44.9 6.86 1.9 10.28 2.87l67.8 18.98c.75.2 1.6.35 1.93 1.24-.38.97-.32 1.9.27 2.8.07 2.47-.15 4.95.12 7.42v.48a1.4 1.4 0 0 0-.23.79c-.01.28-.01.56-.01.84.08 8.7-.07 17.43-.18 26.14-.05 4.23.07 8.48-.2 12.7-.24 3.84.04 7.68-.24 11.5-.37 5.1.07 10.23-.43 15.33-.16 1.6-.6 2.1-2.23 2.2l-16.75.78-16.4.84-11.6.58-11.36.6-34.22 1.78c-2.15.1-4.3.2-6.46.4-.6.06-1.2.1-1.8.04-1.2-.12-1.6-.6-1.6-1.8 0-1.27-.01-1.3-1.3-1.1l-24.67 3.7-21.84 3.2c-1.57.23-3.17.2-4.75.43H321c-.75-.45-.57-1.16-.48-1.83l1.8-14.77c.22-1.8.14-1.86-1.7-2-4.1-.3-8.22-.3-12.33-.46-.68-.02-1.35-.1-2.03-.16-1.63-.18-1.97.16-1.77 1.75l1.44 11.06c.38 2.94.05 3.4-2.9 3.15-5.77-.47-11.56-.73-17.34-1.1l-61-3.8c-4.26-.14-8.53-.65-12.8-.16-2.1.24-4.23.18-6.34.23l-10.3.33c-6.43.02-12.86.43-19.3.53l-8.5.18c-5.98.3-11.98.23-17.96.67-1.8.13-3.6.01-5.4.2-1.27.13-2-.57-2.22-1.84-.04-.24-.08-.48-.1-.7-.08-1.4-.8-2.12-2.16-2.46l-34.8-8.68c-.42-.1-.85-.28-1.32-.01-.3.78.01 1.56.16 2.32l2.05 11.46c.53 2.98.2 3.37-2.74 3.13L81 116.1l-22.93-2.03-26.5-2.3-18.28-1.54c-3.82-.3-7.63-.78-11.47-.97-.8-.04-1.5-.28-1.87-1.07v-2.64c.18-.24.18-.48 0-.72v-.72c.54-1.28.48-2.66.7-4L5.8 68.28l5.84-36.5c.06-.4.13-.8.2-1.18.33-1.72.75-2.17 2.46-2.46 3.16-.52 6.35-.8 9.52-1.2l39.42-4.72L75.6 20.7c.88-.1 1.4-.42 1.5-1.36.1-1 .75-1.43 1.7-1.5 1.5-.13 3.02-.3 4.55-.26 4.76.13 9.5-.2 14.26-.3l51.75-1.42 15.93-.5c2.36-.1 4.7-.2 7.07-.18 1.83.01 2.1.3 1.97 2.1-.1 1.38.1 1.55 1.63 1.22L197.1 14l24.86-5.36c.2-.04.4-.08.6-.1 1.73-.2 2.36.25 2.6 1.98l1.2 8.67.72 5c.22 1.47.44 1.62 1.9 1.3l30.18-6.83c1.8-.42 2.12-.87 2.2-2.73.2-4.83.55-9.65.95-14.47.06-.55.04-1.14.65-1.46z"/><path fill="#fff" d="M478.7 41.5c-.08-.35-.22-.7-.23-1.05l-.05-6.63c-.16-.22-.18-.45-.04-.7.1-.1.2-.1.32-.03v8.4z"/><path fill="#0a0504" d="M478.7 33.1c-.07.01-.14.01-.2.01-.7-.33-.7-.66 0-.98l.2.01v.96z"/><path fill="#fff" d="M-.1 104.85v.72-.72z"/><path fill="#fdfdfc" d="M82.23 46.8c.08-.4.23-.8.23-1.2l.01-19.8c0-1.48.1-1.58 1.55-1.6l15.54-.23 35.52-.02 27.18-.25c1.85-.02 2.12-.02 1.57 2.23l-.93 4.63 4-.7 24.15-4.88 11.42-2.22 11.62-2.34c.7-.14 1.24-.18 1.37.88.48 3.95 1.08 7.88 1.65 11.8.05.38.2.74.34 1.2l8.74-1.8 12.3-2.54 12.08-2.43 10.24-2.13 10.95-2.17c1.36-.27 1.93-.94 2-2.37l.25-4.5c.02-.33.18-.66.3-1l41.5 10.3 20.33 5.14c.7.18.95.05 1-.64.05-.54.2-1.08.22-1.62.05-1.5.1-1.63 1.56-1.44 2.67.34 5.32.8 7.98 1.15 2.17.3 4.36.48 6.53.76l6.6.9 6.4.78 6.26.87 6.28.8 8.22 1.17c2.05.28 4.12.48 6.17.75l8.46 1.16c.82.1 1.68.34 1.85-1.07.33-2.66.9-5.28 1.34-7.93.26-1.53.43-3.08.75-4.6.14-.65.5-1.12 1.42-.9l21.47 5.36L459.7 34c3.04.74 6.13 1.3 9.2 1.96 1.54.33 2.47 1.87 2.1 3.45-.06.26-.2.52-.2.78l-.25 7.98-.48 13.8-.24 5.94-.48 14.4-.25 8.82c-.12 2.88-.3 5.76-.5 8.64-.02.26-.44.5-.7.7-.1.08-.3.01-.47.01l-32.94.24-21.66.3c-3.23.1-6.44.75-9.66 1.14l-6.3.74-8.82 1.18-6.54.74-6.85.9-6.17.76-7.08.94-6.54.74-6.85.9-6.4.77-6.84.94c-1.3.18-2.63.4-3.95.43-.37.01-1.07-.65-1.08-1-.04-1.58.08-3.16.2-4.74.1-1.13.34-2.24.45-3.36.2-1.88.2-3.78.54-5.63.18-1.03-.14-1.42-1-1.63-.23-.06-.46-.1-.7-.12l-8.22-.25-9.6-.48-7.8-.47-9.84-.47c-1.48-.06-1.6.28-1.35 1.8.34 2.04.54 4.1.8 6.17.18 1.52.22 3.06.54 4.55.24 1.1-.32 1.35-1.08 1.37-.94.03-1.88-.18-2.82-.2l-11.34-.25-13.2-.47-6.06-.24-39.24-1.44-5.1-.24c-.6-.03-1.23-.1-1.1-.96.16-1.23-.66-1.25-1.5-1.2l-5.64.46c-2.62.13-5.24.15-7.86.26l-10.44.48-8.76.47-10.44.5-8.64.47-9.72.46c-.57.02-1.14-.28-1.85-.46 0 .01-.15.24-.17.47-.1.94-.74 1.1-1.45.95l-11.3-2.63-29.1-6.88-17.96-4.15c-.37-.1-.75-.16-1.12-.24-1.37-.06-2.66-.5-3.93-.92-.9-.3-1.35-1.08-1.5-2.02-.1-.63-.06-1.27-.06-1.9l.01-32.44c.01-2.12-.22-4.22-.37-6.33-.1-.56-.28-1.17.22-1.67z"/><path fill="#ee2425" d="M82.23 46.8c1.02 14 .23 28.05.48 42.07.02 1.35.85 2.08 2.28 2.32.96.16 1.87.6 2.8.93l.83 6.3c.12.9.3 1.8.3 2.7 0 .26-.56.76-.85.75-2.37-.07-4.74-.25-7.1-.37l-10-.5-7.83-.47-13.3-.73-7.95-.47-13.42-.73-7.95-.47-8.78-.52c-.28-.02-.77-.6-.75-.88.1-1.77.33-3.53.55-5.28l.85-6.43 1-8.08.93-6.9L15.45 62l.78-6.2.9-6.77.77-6.57c.25-2.15.44-4.3.76-6.45.1-.7.54-1.2 1.46-1.27 3.6-.32 7.2-.78 10.8-1.15 1.92-.2 3.86-.3 5.78-.5l7.85-.93 5.06-.5 8.1-.93 5.3-.5 8.93-.94c2.08-.2 4.18-.3 6.26-.5.98-.1 1.46.48 1.58 1.25.32 2.06.5 4.14.76 6.2l.92 6.9c.12.9.15 1.8.3 2.7.07.36.32.68.48 1z"/><path fill="#0a0504" d="M478.5 32.12v.98l-.07.7c-.9-.38-1-1.7-.17-2.4l.24.72z"/><path d="M164.4 52.72l.64 6.37.94 7.8.5 5.4c.52 3.9.88 7.84 1.74 11.67.78 3.47 2.44 3.96 5.64 4.3.93.1 1.46.37 1.2 1.33-.1.33-.52.8-.82.82-2.68.22-5.36.32-8.04.53l-7.25.67c-.36.03-1.08-.45-1.07-.64.04-.5.28-1.18.66-1.43.83-.54 1.82-.83 2.72-1.27 2.22-1.1 3.04-2.93 2.53-5.35-.23-1.1-.33-2.24-.46-3.37l-1.2-10.74-.5-5.4-.93-7.93-.5-4.8c-.26-3.53-2.86-5.52-6.17-5.15-.32.04-.9-.34-1-.63-.14-.55-.27-1.33.64-1.5l7.25-1.2c1.1-.18 2.23-.43 3.35-.44.6-.01 1.33.3 1.75.7L176.6 52.7l10.35 10.1 8.57 8.33c.38.37.84.66 1.57 1.23l-.72-7.3c-.25-2.2-.58-4.4-.88-6.62L194.34 50l-.76-5.2c-.42-3.02-2.4-4.9-5.5-4.76-.48.02-1.03.14-1.42-.04-.4-.2-.8-.65-.97-1.08-.3-.74.3-1.14.9-1.25l7.24-1.24 7.45-1.33c.7-.12 1.38-.32 2.07-.32.42 0 1.13.25 1.2.53.2.7.22 1.48-.77 1.82-.98.33-1.9.8-2.88 1.2-2.5 1-2.94 3.47-2.74 5.55.23 2.5.6 4.96.93 7.44l1.18 8.82.74 6.42.9 6.73.77 6.4 1 7.9c.18 1.22-.1 1.7-1.3 1.6-.4-.03-.8-.23-1.18-.4-.2-.1-.35-.32-.52-.5l-29.44-29.2-6.28-6.04c-.14-.13-.35-.22-.58-.36zm-48.08-16.2c5.76.04 10.97 1.7 15.34 5.38 4.56 3.85 7.68 8.7 8.6 14.72.38 2.44.64 4.97.46 7.42-.43 5.86-1.7 11.57-5.57 16.22-3.1 3.72-7 6.47-11.84 7.5-1.8.38-3.63.75-5.44.7-6.07-.16-11.76-1.72-16.5-5.7-4.34-3.64-7.02-8.36-8.36-13.88-.74-3.07-.9-6.2-.67-9.3.33-4.6 1.46-9.06 4.1-12.9 3.52-5.17 8.32-8.58 14.64-9.53 1.73-.26 3.5-.42 5.24-.64zm244.75 27.3c-.02 6.33 1.6 11.55 4.9 16.14 2.6 3.63 6.2 5.94 10.72 6.63 5.58.85 10.47-.7 14.74-4.3 1.2-1 2.2-2.23 3.35-3.3.3-.3.8-.37 1.2-.54.13.42.42.87.37 1.27-.2 1.67-.66 3.2-1.96 4.48-3.1 3.08-6.6 5.44-10.87 6.5-3.05.77-6.1 1.1-9.3.76-2.73-.3-5.4-.7-7.92-1.75-3.7-1.54-6.84-3.8-9.4-6.92-2.45-3-4.22-6.28-5.18-10-.5-1.94-1.03-3.85-.73-5.93.2-1.45-.05-2.96.06-4.43.36-5.12 1.93-9.77 5.34-13.73 3.2-3.7 7.1-6.22 11.87-7.3 2.57-.58 5.14-.72 7.82-.48 3.92.35 7.58 1.5 11.26 2.72 1.18.4 2.17.5 2.9-.85.18-.32 1.1-.4 1.6-.3.3.06.63.68.7 1.1l1.67 11.93c.05.4-.23 1.2-.47 1.24-.6.12-1.3.32-1.8-.6-1.08-2.12-2.24-4.23-3.56-6.2-2-3-5-4.56-8.46-5.35-2.9-.66-5.8-.74-8.65.3-2.93 1.07-5.05 3.1-6.54 5.75-2.43 4.28-3.74 8.88-3.67 13.2zM247.8 90.93h-10.1c-.55 0-1.12.12-1.18-.77-.06-.86.35-1.22 1.08-1.4l3.15-.74c1.33-.4 2.05-1.4 2.02-2.8l-.24-8.58-.47-7.68-.96-15.36-.48-7.44c-.1-1.48-.52-1.76-1.95-1.43l-4.1.82c-4.1.56-6.14 3.1-6.9 6.94l-.47 2.15c-.12.92-.78.98-1.46 1-.9.02-.7-.67-.7-1.2l-.24-9.3c-.03-1.44.57-2 1.98-2.22l9.66-1.62 9.1-1.5 9.07-1.6 7.7-1.28c1-.15 2.03-.27 3.03-.2.34.02.86.6.92.98l1 7.9.47 3.12c.13.85-.12 1.47-1.06 1.63-.98.17-1.64-.17-2.06-1.12l-2.18-4.58c-.9-1.6-2.5-2.46-4.27-2.42-2.9.07-5.8.4-8.68.7-.8.1-1.25.76-1.18 1.63l.47 5.27.95 11.17.48 6.48.74 11.46c.13 1.7.5 3.4.66 5.1.24 2.78 2.1 3.76 4.48 4.2.73.13 1.48.25 2.2.23.98-.03 1.2.56 1.26 1.33.07.9-.62 1.03-1.24 1.07-1.04.07-2.08.02-3.12.02h-7.4zm62.04-7.4c-.13-1.46.06-1.7 1.3-1.7h.36c2.7 0 3.4-.66 3-3.3-.36-2.44-1.06-4.84-1.5-7.27-.2-1.14-1.08-1.28-1.87-1.4l-6.9-.76-6.72-.93c-1.1-.13-2.06-.14-2.7 1.2-1.02 2.12-2.35 4.08-3.52 6.13-.32.56-.6 1.18-.73 1.8-.38 1.96.9 2.84 2.8 3.03.88.1 1.42.2 1.24 1.2-.2 1-.8.67-1.5.55-1.16-.2-2.35-.2-3.54-.27l-7.8-.5c-.5-.03-1.02-.08-1.48-.27-.25-.1-.58-.62-.5-.74.2-.36.56-.8.92-.87 1.88-.34 3.5-1.15 4.64-2.68l4.2-6.14 12.52-20.32 8.2-13.2c.22-.35.93-.7 1.28-.58.5.15 1.15.64 1.28 1.1l1.7 7.2 2.2 10.45 2.85 13.16 2.04 8.57.85 3.48c.34 1.1.88 2.06 2.2 2.3.6.1 1.18.56.85 1.26-.15.32-.77.62-1.15.6l-8-.68-6.57-.46zM458.3 46.15v5.94c0 .28-.07.58.02.84.2.6.32 1.14-.5 1.28s-1.5-.04-1.66-1.02l-.5-2.87c-.75-3.23-3-4.9-6.03-5.7l-4.54-.97c-.7-.14-.88.38-.92.9l-.5 6.6-.94 9.37-.5 6.36-.92 11.17a15.9 15.9 0 0 0 .36 4.46c.46 2.02 2.34 2.08 3.96 2.42.74.15 1.85-.02 1.6 1.3-.06.33-.53.83-.8.83l-10.8-.43c-.56-.02-1.12.01-1.68-.01l-7.5-.22c-.74-.01-1.1-.37-.97-.95.1-.46.55-1.07.96-1.18 1.08-.3 2.22-.37 3.34-.53 1.93-.27 3.15-1.5 3.34-3.4l2.16-21.67.98-10.08c.16-1.47.5-2.92.7-4.38.24-1.73-.45-2.5-2.2-2.7a62.52 62.52 0 0 1-4.49-.71c-2.82-.54-5.9.92-7.18 3.5l-1.24 2.86c-.35.77-.82 1.2-1.8.9-1.02-.3-1.14-.8-.96-1.74l1.34-8.18c.1-.6.14-1.25.33-1.84.4-1.28 1.55-.9 2.3-.74l18.14 3.98 15.48 3.2c1.87.4 1.96.18 1.9 2.24v1.2h-.28z" fill="#111"/><path fill="#fef4f4" d="M51.3 39.3l8.37 1.2c1.24.16 2.4-.08 3.17-1.26.25-.38.75-.75 1.2-.83 1.18-.22 1.5.12 1.64 1.63l.97 10.1c.04.38.18.76.23 1.14.07.67.01 1.34-.8 1.48-.77.13-1.4-.06-1.84-.86l-3.06-4.95c-1.67-2.4-4.17-3.64-6.9-4.2-3.58-.75-7.06-.25-10.37 1.46-3.53 1.83-5.75 4.76-7.23 8.3-1.6 3.84-2.5 7.83-2.17 12.02.34 4.54 1.37 8.83 4.53 12.37 2.96 3.32 6.63 4.97 11.06 5.2 5.35.26 9.95-1.56 14.14-4.7.82-.6 1.58-1.32 2.3-2.05.7-.73 1.5-.67 2.1-.16.6.5 1.02 1.2.3 2.13-2 2.55-4.45 4.56-7.22 6.14-3.18 1.8-6.62 2.75-10.33 2.98-4.95.3-9.68-.4-14.03-2.73-5.75-3.1-9.46-7.98-10.47-14.4-1.1-7.05.14-13.8 4.25-19.82 1.9-2.77 4.4-4.88 7.3-6.55 4-2.33 7.8-3.48 12.87-3.62z"/><path d="M99.73 63.65c-.07-5.58 1.24-10.7 3.6-15.55 2.12-4.34 5.58-6.9 10.44-7.6 5.65-.8 9.94 1.38 13.38 5.7 2.2 2.76 3.17 6 3.53 9.43.7 6.6-.02 13.06-2.17 19.33-1.7 4.97-4.8 8.6-10.12 10-3.05.8-5.93.4-8.75-.83-4.72-2.05-7.26-5.78-8.52-10.68-.84-3.3-1.43-6.56-1.4-9.8zm208.5-15.6l2.37 10.5 1.54 7.02c.16.78-.13 1.22-1.02 1.13l-5.5-.5-4.73-.7-2.45-.26c-.9-.14-.8-.7-.45-1.3l3.12-5.27 6.04-9.86.74-1.1c.1.1.22.2.35.3z" fill="#fdfdfc"/></svg>