<svg id="Layer_1" data-name="Layer 1" xmlns="http://www.w3.org/2000/svg" viewBox="0 0 451.43 158.22"><defs><style>.cls-1{fill:#020202;}.cls-2{fill:#ea3223;}.cls-3{fill:#fdfdfd;}.cls-4{fill:#fefafa;}.cls-5{fill:#080808;}.cls-6{fill:#050505;}</style></defs><path class="cls-1" d="M234.63,93.2c.83-5.19,1.66-10.32,2.47-15.46,2.16-13.7,4.35-27.4,6.41-41.11.27-1.84.8-2.41,2.71-2.47,20-.55,39.92-1.21,59.88-1.84.48,0,1-.07,1.61-.13L299.6,0l22.52,2.56,66.67,7.75c20.33,2.35,40.65,4.72,61,7,1.71.2,1.79.85,1.54,2.22Q447,43,442.81,66.52c-3,16.39-6,32.77-8.82,49.18-.43,2.46-1.46,3.47-3.92,4.07-22,5.32-43.92,10.83-65.89,16.21-1.86.46-2.53,1-2.28,3.1.71,5.68,1.11,11.41,1.71,17.11.15,1.49.14,2.16-1.83,2q-55.84-4.47-111.71-8.8c-7.22-.56-14.42-1.24-21.64-1.72-1.81-.12-2.45-.41-2-2.4.68-2.91.88-5.92,1.44-8.85.27-1.39.22-1.91-1.46-1.71-15.86,1.87-31.73,3.66-47.6,5.48q-31.86,3.66-63.71,7.3c-1.88.22-4.18,1.34-5.56.28s-1.12-3.52-1.3-5.39c-.21-2.15-1.11-2.59-3.2-2.49-27.26,1.33-54.53,2.52-81.79,3.83-1.94.1-2.65-.21-3-2.3Q10.29,80.82.08,20.26c-.33-2,.43-2.16,2-2.25q22.8-1.26,45.61-2.62c11.46-.66,22.92-1.35,34.38-2,1.23-.07,1.85-.2,1.44-1.68-.47-1.67-.58-3.44-1-5.12s0-2.24,1.82-2.25c11.65,0,23.3-.22,35-.34Q178,3.42,236.83,2.77c2.33,0,2.77.51,2.61,2.83C238.11,25,237,44.4,235.7,63.8c-.62,9.52-.86,19.07-2,28.55C233.66,92.67,233.71,93,234.63,93.2Z"/><path class="cls-2" d="M163.87,22.16c19-.44,37.92-.85,56.87-1.37,2.12-.06,2.62.51,2.54,2.58-.62,15.52-1.09,31-1.65,46.55-.46,12.77-.89,25.55-1.51,38.32-.23,4.56-.45,9.12-.46,13.69,0,1.48-.36,2-2.08,2.21-12.69,1.21-25.37,2.58-38,4-11.78,1.27-23.54,2.63-35.31,3.91-6.67.72-13.36,1.32-20,2.06-2,.22-3-.41-2.88-2.48.13-2.63-1.18-3.18-3.66-3-10.2.62-20.41,1-30.62,1.51-15.52.78-31,1.62-46.55,2.4-2.74.14-5.49.06-8.23.24-1.66.11-1.65-.95-1.8-2Q28,113.53,25.53,96.4C22.61,75.94,19.73,55.47,16.74,35c-.27-1.83.09-2.17,1.88-2.26C32.32,32.05,46,31.2,59.7,30.42c10-.56,20.09-1.06,30.13-1.61,4.31-.23,8.63-.54,12.94-.75,1.51-.08,2.43-.45,1.78-2.2s.29-2.18,1.94-2.22c9.32-.21,18.63-.62,27.94-.75,9.81-.14,19.63,0,29.44,0Z"/><path class="cls-3" d="M294.37,141.56l-54.3-3.68c-3.28-.23-3.32-.26-2.88-3.43Q243.58,88.67,250,42.88c.22-1.63.67-2.11,2.38-2.15,24.8-.55,49.59-1.23,74.38-1.77,2.18,0,2.18-.8,1.82-2.46-.82-3.82-1.47-7.67-2.27-11.49-.25-1.22-.07-1.55,1.29-1.45q24.39,1.67,48.79,3.19c11.78.74,23.57,1.37,35.35,2.09,8.54.53,17.08,1.13,25.62,1.7,1.45.1,2.2.18,1.84,2.29-1.61,9.35-2.82,18.77-4.24,28.15s-2.95,18.73-4.37,28.1c-1.08,7.17-2.07,14.35-3.1,21.53-.23,1.61-.43,2.82-2.64,3.29-13.86,2.91-27.66,6.09-41.49,9.16-10.58,2.36-21.17,4.68-31.75,7-1.09.25-1.51.86-1.38,2.13.41,3.71.55,7.45.94,11.17.17,1.65-.24,2.11-2,2-14.61-1.06-29.22-2-43.84-3Z"/><path class="cls-4" d="M169.15,114.17A38.25,38.25,0,0,1,159,112.8c-3.8-.88-4.12-.73-6.24,2.61-.4.63-.92.61-1.49.62-1.06,0-1.11-.89-1.28-1.56-1.08-4.18-2.11-8.36-3.16-12.54-.38-1.53-.8-3.05-1.12-4.59-.15-.68-1-1.61.36-2a1.7,1.7,0,0,1,2.26,1,31.94,31.94,0,0,0,3.9,6.06c5.18,6.53,11.81,9.42,20.15,8.2,4.06-.59,8.37-4.14,9.36-8,1.24-4.86.06-9.1-3.9-12.28-3.7-3-8.07-4.93-12.24-7.16-4.53-2.43-9.29-4.48-13.33-7.76-6.54-5.3-8.89-12.06-6.65-20.17,2.18-7.87,7.46-12.41,15.53-14,5.7-1.09,10.85.71,16.08,2.33,4.18,1.29,4.67,1.17,6.87-2.65a1.66,1.66,0,0,1,1.6-.87c1,0,.95.66,1,1.34.85,7.09,1.72,14.17,2.55,21.26.09.76.44,1.69-.88,1.91s-1.55-.45-1.88-1.43a47,47,0,0,0-2-5.1c-3.48-7.5-11.13-12.47-18.78-12.08-4.7.24-8.61,2-10.49,6.69-1.65,4.08-.26,9.12,3.31,12.49,2.87,2.71,6.31,4.57,9.74,6.46,5.45,3,11,5.85,16.17,9.33,11.92,8,9.83,24.32-3.14,30.72A25.2,25.2,0,0,1,169.15,114.17Z"/><path class="cls-4" d="M104,64.05c0,1.58,0,3.16,0,4.73,0,.78.14,1.51-1,1.65a1.47,1.47,0,0,1-1.83-1.19,57.53,57.53,0,0,0-2.28-5.51C91.06,47.32,68.57,48.19,60,62.11,56,68.78,54.91,76,55.21,83.62c.23,6,1.41,11.89,4.64,17.11,7,11.28,19.58,14.79,32.51,9.18a36,36,0,0,0,9.85-6.7c.65-.59,1.16-1.37,2.24-.4s.4,1.52-.21,2.21c-13.78,15.5-40.55,15.75-53.35-.34C40.21,91.28,39.18,66.13,58,53.23c8.57-5.88,18.3-7.11,28.45-5.35,2.61.45,5.21,1,7.8,1.6s4.65-.11,6-2.44c.52-.91,1.06-1.47,2.13-1.23S103.73,64.05,104,64.05Z"/><path class="cls-5" d="M289.63,119.05c-6.48-.32-13-.62-19.44-1-.68,0-1.63.36-2-.51s.42-1.53,1-2.11c5.9-6,11.89-11.86,17.68-17.94,4.57-4.8,9.19-9.61,12.32-15.58,2.26-4.31,3.47-8.88,2.63-13.69-2-11.39-14.88-12-20.94-7a22.11,22.11,0,0,0-5.67,7.49c-.49,1-.93,1.8-2.22,1.19s-.4-1.46-.19-2.11c2.63-8.27,7.72-14,16.54-15.87s17.37,1.7,20.6,9.17c2.84,6.6,1.36,12.9-2.28,18.75C304.17,85.45,299.37,90,294.8,94.7c-4.4,4.53-8.92,8.94-13.38,13.41-.34.34-.86.81-.81,1.15.11.77.92.53,1.44.55,7.56.29,15.13.5,22.69.82,4.35.18,7.54-1.49,9.59-5.36.36-.68.56-2,1.92-1.22s.37,1.6.08,2.36c-1.49,4-3.1,7.87-4.52,11.85a2.3,2.3,0,0,1-2.75,1.76c-6.47-.39-12.95-.67-19.43-1Z"/><path class="cls-6" d="M397.52,74.19c.09.21.1.31.15.33,12.36,4.5,11.56,16.73,5.95,24.7-5.12,7.26-12.54,10.47-21,11.89-2.22.37-4.45.76-6.64-.08-1.43-.54-2.81-1.29-2.52-3.2s1.45-2.65,3.26-2.8c2.9-.25,5.52.88,8.22,1.6,7.65,2.05,15-3.42,16-11.63,1-9.09-4.73-13.31-13.28-13.22-.91,0-1.81.25-2.73.28-.77,0-1.91.64-2.23-.23-.4-1.08,1-1.12,1.62-1.45a52.15,52.15,0,0,0,9-5.65c4.52-3.63,6-8.34,5.07-13.9-.84-4.88-6.73-8.61-12.27-7.92-4.43.54-7.68,3-10.23,6.42-1.18,1.6-2.1,3.37-3.15,5.06-.33.54-.73.92-1.42.57s-.52-.75-.4-1.27c2-9.07,9.62-18.08,21-17.64,6.12.23,10.82,2.68,13.07,8.53,2.33,6,.72,11.36-3.64,16C400.18,71.83,398.79,73,397.52,74.19Z"/></svg>