<svg id="Layer_1" data-name="Layer 1" xmlns="http://www.w3.org/2000/svg" viewBox="0 0 578.7 435.3"><defs><style>.cls-1{fill:#090706;}.cls-2{fill:#fefefe;}.cls-3{fill:#ed2225;}</style></defs><path class="cls-1" d="M408.15,83.15C432.09,82.4,456,81.72,480,80.82c3.84-.14,5.61.74,7,4.72q45.3,133.15,91,266.14c1.29,3.75,1.34,5.05-3.22,6Q410.6,391.29,246.54,425.28c-15.28,3.15-30.56,6.29-45.8,9.61-3.89.85-5.36.78-4.94-4.16,2.61-30.46,4.77-61,7.2-91.44.29-3.63,0-5.38-4.46-6.16-50.2-8.8-100.32-18-150.51-26.83-4.65-.82-6-2.87-6.71-7.19C34,255.57,26.43,212.08,19,168.58,12.7,132.27,6.53,95.94.16,59.66c-.54-3.07.29-3.51,3-3.95Q62.84,46,122.54,36q61.9-10.21,123.83-20.38Q292.81,8,339.22.17c2.69-.45,3.75-.21,3.27,3.16-3.8,26.29-7.27,52.62-11.09,78.91-.53,3.66,1,3.29,3.44,3.21q36.66-1.23,73.31-2.33ZM293.81,105.58c1.79-18.31,3.33-36.65,5.49-54.91.79-6.72,1.25-6.48-5.86-5.58Q234.11,52.55,174.8,60.16,101.21,69.55,27.61,78.87c-3.8.47-4.6,2-4,5.49q4.5,27.49,8.71,55c7.66,49.49,15.37,99,22.75,148.5.64,4.3,2.72,5,5.94,5.51,5.54.85,11.09,1.65,16.63,2.53q26.4,4.21,52.8,8.48c19.89,3.18,39.78,6.4,59.68,9.54,16.32,2.58,32.66,5.08,49,7.62.22,19.12-1,38.2-1.76,57.29-.13,3.29-.07,4.68,4.07,3.92Q389.2,355.41,537,328.38c3.11-.57,3.56-1.34,2.6-4.42q-34.51-110.89-68.71-221.9c-1-3.27-2.43-3.52-5.25-3.4-20.26.82-40.53,1.43-60.79,2.2-18.44.7-36.87,1.52-55.3,2.31Q321.71,104.35,293.81,105.58Z"/><path class="cls-2" d="M293.81,105.58q27.9-1.22,55.78-2.41c18.43-.79,36.86-1.61,55.3-2.31,20.26-.77,40.53-1.38,60.79-2.2,2.82-.12,4.25.13,5.25,3.4q34.15,111,68.71,221.9c1,3.08.51,3.85-2.6,4.42Q389.2,355.44,241.4,382.78c-4.14.76-4.2-.63-4.07-3.92.76-19.09,2-38.17,1.76-57.29.25-2.47.62-4.94.71-7.41q3.6-100.8,7-201.59c.14-4,1.16-5.41,5.18-5.51C266,106.73,279.88,106.1,293.81,105.58Zm68.9,38.91c-.33,4.66,1.48,9.38,2.83,14.12,7.7,26.91,15.53,53.79,21.9,81.07.43,1.86-.79,5.54,3.14,4.92,3.65-.57,1-3.83,1.83-5.71a2.54,2.54,0,0,0,0-1c-.9-23.7-1.73-47.4-2.77-71.1-.39-8.91.17-18-2.64-26.61-2.68-8.26-8-11.65-15.69-10.34C365.33,130.88,362.62,135.36,362.71,144.49ZM396,298.4a15.74,15.74,0,0,0,16.4-15.2c.33-8.84-6.82-16.78-15.3-17-9.34-.23-16,6.19-16.19,15.67C380.65,290.77,387.42,298.17,396,298.4Z"/><path class="cls-3" d="M293.81,105.58c-13.93.52-27.85,1.15-41.79,1.48-4,.1-5,1.48-5.18,5.51q-3.33,100.8-7,201.59c-.09,2.47-.46,4.94-.71,7.41-16.33-2.54-32.67-5-49-7.62-19.9-3.14-39.79-6.36-59.68-9.54q-26.4-4.25-52.8-8.48c-5.54-.88-11.09-1.68-16.63-2.53-3.22-.49-5.3-1.21-5.94-5.51-7.38-49.53-15.09-99-22.75-148.5q-4.26-27.52-8.71-55c-.58-3.51.22-5,4-5.49q73.61-9.23,147.19-18.71,59.32-7.56,118.64-15.07c7.11-.9,6.65-1.14,5.86,5.58C297.14,68.93,295.6,87.27,293.81,105.58ZM160.46,135.31c.06-8.12-.46-13.57-2.6-18.71-2.52-6.07-7-9-12.58-8.64s-9.69,4.07-11.55,10.14c-2.46,8-1.74,16.16-.45,24.19,4.82,29.93,11.21,59.62,14.18,89.84.16,1.65.24,3.44,2.55,3.62,2.85.22,2-1.95,2.17-3.43,1.59-17.82,3.21-35.64,4.73-53.47C158.22,163.48,159.42,148.1,160.46,135.31Zm-7,140.34c6.21.1,10.6-3.66,10.77-9.24.22-7.34-6.4-13.58-14.65-13.81-5.88-.17-10.28,3.93-10.31,9.59C139.25,269.74,145.34,275.51,153.49,275.65Z"/><path class="cls-1" d="M362.71,144.49c-.09-9.13,2.62-13.61,8.59-14.64,7.65-1.31,13,2.08,15.69,10.34,2.81,8.64,2.25,17.7,2.64,26.61,1,23.7,1.87,47.4,2.77,71.1a2.54,2.54,0,0,1,0,1c-.79,1.88,1.82,5.14-1.83,5.71-3.93.62-2.71-3.06-3.14-4.92-6.37-27.28-14.2-54.16-21.9-81.07C364.19,153.87,362.38,149.15,362.71,144.49Z"/><path class="cls-1" d="M396,298.4c-8.54-.23-15.31-7.63-15.09-16.51.22-9.48,6.85-15.9,16.19-15.67,8.48.2,15.63,8.14,15.3,17A15.74,15.74,0,0,1,396,298.4Z"/><path class="cls-2" d="M160.46,135.31c-1,12.79-2.24,28.17-3.55,43.54-1.52,17.83-3.14,35.65-4.73,53.47-.13,1.48.68,3.65-2.17,3.43-2.31-.18-2.39-2-2.55-3.62-3-30.22-9.36-59.91-14.18-89.84-1.29-8-2-16.16.45-24.19,1.86-6.07,6-9.73,11.55-10.14s10.06,2.57,12.58,8.64C160,121.74,160.52,127.19,160.46,135.31Z"/><path class="cls-2" d="M153.49,275.65c-8.15-.14-14.24-5.91-14.19-13.46,0-5.66,4.43-9.76,10.31-9.59,8.25.23,14.87,6.47,14.65,13.81C164.09,272,159.7,275.75,153.49,275.65Z"/></svg>