<svg id="Layer_1" data-name="Layer 1" xmlns="http://www.w3.org/2000/svg" viewBox="0 0 294.43 268.26"><defs><style>.cls-1,.cls-3{fill:#fff;}.cls-1,.cls-2{stroke:black;}.cls-1,.cls-2,.cls-3{stroke-miterlimit:10;}.cls-1{stroke-width:20px;}.cls-2{fill:#ec1c24;stroke-width:10px;}.cls-3{stroke:#000;stroke-width:15px;}</style></defs><polygon class="cls-1" points="241.03 195.47 162.69 186.79 111.13 246.4 95.17 169.21 22.55 138.59 91.03 99.57 97.72 21.04 155.99 74.11 232.74 56.19 200.28 128.01 241.03 195.47"/><polygon class="cls-2" points="239.09 172.38 220.09 143.77 185.76 143.19 207.12 116.29 197.06 83.46 229.24 95.45 257.36 75.75 255.9 110.05 283.32 130.71 250.25 139.91 239.09 172.38"/><polygon class="cls-3" points="184.76 158.53 151.4 155.1 129.66 180.64 122.61 147.85 91.6 135.07 120.61 118.23 123.18 84.79 148.16 107.17 180.76 99.29 167.19 129.96 184.76 158.53"/></svg>